<mxfile host="Electron" modified="2023-10-08T15:07:16.211Z" agent="Mozilla/5.0 (X11; Linux x86_64) AppleWebKit/537.36 (KHTML, like Gecko) draw.io/21.7.5 Chrome/114.0.5735.289 Electron/25.8.1 Safari/537.36" etag="tNiK18ZzcgFpHHaBzZWy" version="21.7.5" type="device">
  <diagram name="Page-1" id="Oq5nepshZKvZwhRaYss4">
    <mxGraphModel dx="1588" dy="2218" grid="1" gridSize="10" guides="1" tooltips="1" connect="1" arrows="1" fold="1" page="1" pageScale="1" pageWidth="850" pageHeight="1100" math="0" shadow="0">
      <root>
        <mxCell id="0" />
        <mxCell id="1" parent="0" />
        <mxCell id="V3Jk48kscWsiEnofZRHU-1" value="" style="rounded=0;whiteSpace=wrap;html=1;fillColor=none;strokeColor=none;" vertex="1" parent="1">
          <mxGeometry x="40" y="40" width="600" height="360" as="geometry" />
        </mxCell>
        <mxCell id="V3Jk48kscWsiEnofZRHU-3" value="" style="sketch=0;pointerEvents=1;shadow=0;dashed=0;html=1;strokeColor=none;fillColor=#505050;labelPosition=center;verticalLabelPosition=bottom;verticalAlign=top;outlineConnect=0;align=center;shape=mxgraph.office.servers.server_generic;" vertex="1" parent="1">
          <mxGeometry x="173" y="190" width="27" height="52" as="geometry" />
        </mxCell>
        <mxCell id="V3Jk48kscWsiEnofZRHU-4" value="" style="shape=image;verticalLabelPosition=bottom;labelBackgroundColor=default;verticalAlign=top;aspect=fixed;imageAspect=0;image=data:image/png,iVBORw0KGgoAAAANSUhEUgAAAJYAAACWCAYAAAA8AXHiAAAA0GVYSWZJSSoACAAAAAoAAAEEAAEAAACWAAAAAQEEAAEAAACWAAAAAgEDAAMAAACGAAAAEgEDAAEAAAABAAAAGgEFAAEAAACMAAAAGwEFAAEAAACUAAAAKAEDAAEAAAACAAAAMQECAA0AAACcAAAAMgECABQAAACqAAAAaYcEAAEAAAC+AAAAAAAAAAgACAAIAEgAAAABAAAASAAAAAEAAABHSU1QIDIuMTAuMzQAADIwMjM6MTA6MDggMTY6MzE6MzMAAQABoAMAAQAAAAEAAAAAAAAA310CwgAAAYVpQ0NQSUNDIHByb2ZpbGUAAHicfZE9SMNAHMVfW6WltDjYQcQhQ/0Y7KIijlqFIlQItUKrDiaXfkGThiTFxVFwLTj4sVh1cHHW1cFVEAQ/QFxdnBRdpMT/JYUWMR4c9+PdvcfdO8DfrDLV7JkFVM0yMqmkkMuvCsFXhBFCFGMYlZipz4liGp7j6x4+vt4leJb3uT9HVCmYDPAJxLNMNyziDeLpTUvnvE8cY2VJIT4nHjfogsSPXJddfuNcctjPM2NGNjNPHCMWSl0sdzErGyrxFHFcUTXK9+dcVjhvcVardda+J39hpKCtLHOd5hBSWMQSRAiQUUcFVVhI0KqRYiJD+0kP/6DjF8klk6sCRo4F1KBCcvzgf/C7W7M4OeEmRZJA74ttfwwDwV2g1bDt72Pbbp0AgWfgSuv4a01g5pP0RkeLHwF928DFdUeT94DLHWDgSZcMyZECNP3FIvB+Rt+UB/pvgfCa21t7H6cPQJa6St8AB4fASImy1z3eHeru7d8z7f5+AK3ecr4DKaXQAAANeGlUWHRYTUw6Y29tLmFkb2JlLnhtcAAAAAAAPD94cGFja2V0IGJlZ2luPSLvu78iIGlkPSJXNU0wTXBDZWhpSHpyZVN6TlRjemtjOWQiPz4KPHg6eG1wbWV0YSB4bWxuczp4PSJhZG9iZTpuczptZXRhLyIgeDp4bXB0az0iWE1QIENvcmUgNC40LjAtRXhpdjIiPgogPHJkZjpSREYgeG1sbnM6cmRmPSJodHRwOi8vd3d3LnczLm9yZy8xOTk5LzAyLzIyLXJkZi1zeW50YXgtbnMjIj4KICA8cmRmOkRlc2NyaXB0aW9uIHJkZjphYm91dD0iIgogICAgeG1sbnM6eG1wTU09Imh0dHA6Ly9ucy5hZG9iZS5jb20veGFwLzEuMC9tbS8iCiAgICB4bWxuczpzdEV2dD0iaHR0cDovL25zLmFkb2JlLmNvbS94YXAvMS4wL3NUeXBlL1Jlc291cmNlRXZlbnQjIgogICAgeG1sbnM6ZGM9Imh0dHA6Ly9wdXJsLm9yZy9kYy9lbGVtZW50cy8xLjEvIgogICAgeG1sbnM6R0lNUD0iaHR0cDovL3d3dy5naW1wLm9yZy94bXAvIgogICAgeG1sbnM6dGlmZj0iaHR0cDovL25zLmFkb2JlLmNvbS90aWZmLzEuMC8iCiAgICB4bWxuczp4bXA9Imh0dHA6Ly9ucy5hZG9iZS5jb20veGFwLzEuMC8iCiAgIHhtcE1NOkRvY3VtZW50SUQ9ImdpbXA6ZG9jaWQ6Z2ltcDpjMjNmMDk0Yi02NmQ3LTQyY2EtOWVlYi00YTI2ZDdlZTM5NzIiCiAgIHhtcE1NOkluc3RhbmNlSUQ9InhtcC5paWQ6YTA0ZDlkZDMtODhiZi00ZGM4LWI1NjgtNDE1Njg1YjhhMDE1IgogICB4bXBNTTpPcmlnaW5hbERvY3VtZW50SUQ9InhtcC5kaWQ6ZWNjYTkxZDEtODMxNC00NmU4LWFjOTUtMWRiYmZjN2VlNjU1IgogICBkYzpGb3JtYXQ9ImltYWdlL3BuZyIKICAgR0lNUDpBUEk9IjIuMCIKICAgR0lNUDpQbGF0Zm9ybT0iTGludXgiCiAgIEdJTVA6VGltZVN0YW1wPSIxNjk2Nzc1NDk1MTgyNjkzIgogICBHSU1QOlZlcnNpb249IjIuMTAuMzQiCiAgIHRpZmY6T3JpZW50YXRpb249IjEiCiAgIHhtcDpDcmVhdG9yVG9vbD0iR0lNUCAyLjEwIgogICB4bXA6TWV0YWRhdGFEYXRlPSIyMDIzOjEwOjA4VDE2OjMxOjMzKzAyOjAwIgogICB4bXA6TW9kaWZ5RGF0ZT0iMjAyMzoxMDowOFQxNjozMTozMyswMjowMCI+CiAgIDx4bXBNTTpIaXN0b3J5PgogICAgPHJkZjpTZXE+CiAgICAgPHJkZjpsaQogICAgICBzdEV2dDphY3Rpb249InNhdmVkIgogICAgICBzdEV2dDpjaGFuZ2VkPSIvIgogICAgICBzdEV2dDppbnN0YW5jZUlEPSJ4bXAuaWlkOjVkMzhlN2IwLTFmMTktNDY0MS04NzVhLWUzMTIzZGIxZjk1MiIKICAgICAgc3RFdnQ6c29mdHdhcmVBZ2VudD0iR2ltcCAyLjEwIChMaW51eCkiCiAgICAgIHN0RXZ0OndoZW49IjIwMjMtMTAtMDhUMTY6MzE6MzUrMDI6MDAiLz4KICAgIDwvcmRmOlNlcT4KICAgPC94bXBNTTpIaXN0b3J5PgogIDwvcmRmOkRlc2NyaXB0aW9uPgogPC9yZGY6UkRGPgo8L3g6eG1wbWV0YT4KICAgICAgICAgICAgICAgICAgICAgICAgICAgICAgICAgICAgICAgICAgICAgICAgICAgICAgICAgICAgICAgICAgICAgICAgICAgICAgICAgICAgICAgICAgICAgICAgICAgIAogICAgICAgICAgICAgICAgICAgICAgICAgICAgICAgICAgICAgICAgICAgICAgICAgICAgICAgICAgICAgICAgICAgICAgICAgICAgICAgICAgICAgICAgICAgICAgICAgICAgCiAgICAgICAgICAgICAgICAgICAgICAgICAgICAgICAgICAgICAgICAgICAgICAgICAgICAgICAgICAgICAgICAgICAgICAgICAgICAgICAgICAgICAgICAgICAgICAgICAgICAKICAgICAgICAgICAgICAgICAgICAgICAgICAgICAgICAgICAgICAgICAgICAgICAgICAgICAgICAgICAgICAgICAgICAgICAgICAgICAgICAgICAgICAgICAgICAgICAgICAgIAogICAgICAgICAgICAgICAgICAgICAgICAgICAgICAgICAgICAgICAgICAgICAgICAgICAgICAgICAgICAgICAgICAgICAgICAgICAgICAgICAgICAgICAgICAgICAgICAgICAgCiAgICAgICAgICAgICAgICAgICAgICAgICAgICAgICAgICAgICAgICAgICAgICAgICAgICAgICAgICAgICAgICAgICAgICAgICAgICAgICAgICAgICAgICAgICAgICAgICAgICAKICAgICAgICAgICAgICAgICAgICAgICAgICAgICAgICAgICAgICAgICAgICAgICAgICAgICAgICAgICAgICAgICAgICAgICAgICAgICAgICAgICAgICAgICAgICAgICAgICAgIAogICAgICAgICAgICAgICAgICAgICAgICAgICAgICAgICAgICAgICAgICAgICAgICAgICAgICAgICAgICAgICAgICAgICAgICAgICAgICAgICAgICAgICAgICAgICAgICAgICAgCiAgICAgICAgICAgICAgICAgICAgICAgICAgICAgICAgICAgICAgICAgICAgICAgICAgICAgICAgICAgICAgICAgICAgICAgICAgICAgICAgICAgICAgICAgICAgICAgICAgICAKICAgICAgICAgICAgICAgICAgICAgICAgICAgICAgICAgICAgICAgICAgICAgICAgICAgICAgICAgICAgICAgICAgICAgICAgICAgICAgICAgICAgICAgICAgICAgICAgICAgIAogICAgICAgICAgICAgICAgICAgICAgICAgICAgICAgICAgICAgICAgICAgICAgICAgICAgICAgICAgICAgICAgICAgICAgICAgICAgICAgICAgICAgICAgICAgICAgICAgICAgCiAgICAgICAgICAgICAgICAgICAgICAgICAgICAgICAgICAgICAgICAgICAgICAgICAgICAgICAgICAgICAgICAgICAgICAgICAgICAgICAgICAgICAgICAgICAgICAgICAgICAKICAgICAgICAgICAgICAgICAgICAgICAgICAgICAgICAgICAgICAgICAgICAgICAgICAgICAgICAgICAgICAgICAgICAgICAgICAgICAgICAgICAgICAgICAgICAgICAgICAgIAogICAgICAgICAgICAgICAgICAgICAgICAgICAgICAgICAgICAgICAgICAgICAgICAgICAgICAgICAgICAgICAgICAgICAgICAgICAgICAgICAgICAgICAgICAgICAgICAgICAgCiAgICAgICAgICAgICAgICAgICAgICAgICAgICAgICAgICAgICAgICAgICAgICAgICAgICAgICAgICAgICAgICAgICAgICAgICAgICAgICAgICAgICAgICAgICAgICAgICAgICAKICAgICAgICAgICAgICAgICAgICAgICAgICAgICAgICAgICAgICAgICAgICAgICAgICAgICAgICAgICAgICAgICAgICAgICAgICAgICAgICAgICAgICAgICAgICAgICAgICAgIAogICAgICAgICAgICAgICAgICAgICAgICAgICAgICAgICAgICAgICAgICAgICAgICAgICAgICAgICAgICAgICAgICAgICAgICAgICAgICAgICAgICAgICAgICAgICAgICAgICAgCiAgICAgICAgICAgICAgICAgICAgICAgICAgICAgICAgICAgICAgICAgICAgICAgICAgICAgICAgICAgICAgICAgICAgICAgICAgICAgICAgICAgICAgICAgICAgICAgICAgICAKICAgICAgICAgICAgICAgICAgICAgICAgICAgICAgICAgICAgICAgICAgICAgICAgICAgICAgICAgICAgICAgICAgICAgICAgICAgICAgICAgICAgICAgICAgICAgICAgICAgIAogICAgICAgICAgICAgICAgICAgICAgICAgICAgICAgICAgICAgICAgICAgICAgICAgICAgICAgICAgICAgICAgICAgICAgICAgICAgICAgICAgICAgICAgICAgICAgICAgICAgCiAgICAgICAgICAgICAgICAgICAgICAgICAgIAo8P3hwYWNrZXQgZW5kPSJ3Ij8+xteEJAAAAAlwSFlzAAALEwAACxMBAJqcGAAAAAd0SU1FB+cKCA4fIy0y4zIAAAhxSURBVHja7Z1PjtxEFMbfK/eE7GCJ6FlMJGbFDUBCcRRzg74DWYUoOcBcYARZwRmYG8Sj8QgpG3Ys2CFlFtMLNghWISR2sehyx+20u9122a5X9X3SSFGUP66qn7/36rn+MHkoTcREZ+aHCibS9T9zGyd6jGc5zlLe/nykVr8kve35pIs9A0qZRhVTQNRGr7NXd0/pjzfbntsnyNgTmJiJ8vL3fiaKvoyTdxKef56ls+qzN70cAGu0UEeqNiCzZZy8lf2W6PPj68tnlTZFTaEcYNkHiqtvs0thbqjczLiYqDDJEoHyFaZ9kEkCjAEUAAsGLAAlHzB2EKqoTMoBVFvAFhHTRQ6wmssGmok0gDpIN8dZem/bxCZ4sPSqdICwZyk8ugAXTw0UXMo+YC64l5o4lyoAlV2VfclEhSmwhuFY1bcJQI3iXpPMHHlkqJBLBZJ78dhQ/U5f3Pk4/uwNhnwa9xoLLh4JqoiJcriUE3BF1Y/3YsECVGHCxQNDpZCkhxkWGVCFPmPUmomtj5ECVGHqNk70yrF4EHNhQAXnGiIsMqCChoCLARU0BFzKElQRoPIj57L1fZEtQAWngnPZBQtQAS7rYOnVPBVLXvyGi7uuilBdoSIiBlT+6hWd3CWictHgWMn7QknfAg7t1lF8+tqMcSewDv5L5Y4QuBXyLWtgIVkHXNZDYRlrM6IZujoslbWtQ/ItPuAfh1vBtVq7FgMqaAi4VAuozGL8M4WuDT4kqrYhsQ0szETFMn6Zo2vD1jJO8rYlCG7jVss4Qc0KWmuepeVxlrqrY7GPJ/pC/WSY4E6OVe6ghVtBO1yr8XwI1YJMCDqYDYXygkjdTP0AlYWBWxkSUUWfX714PzN58E2YoWezD04EOJrbblXt0K1TYE9Bk9LupqKp8461fPDNzk72yc32wSSpnbNNt9LMxMXy6wffag8GxvUBaAuSy7q9//B7vr58sjMU6gVFfOHWAR62Ot8VyGy0x7UXZttBI5uh8MK9VaH7QqHzbqb1+TxLnwYwvyi2OpbDJYab+dWLk6HhlRTilvcfPiKlfnTQtdZJvIRyw+BT695uNrYrOQZVY/JeJu1YHboJ2j7AKkA+Db3PNNGMidZ3RJqq6eoom1Pp9/1B0+XChp2yEo/Fe9Aw0dpk8IWmRYTugHqGw3XyrkrrWsZ/v0PXQD3DYV4Cpsizm+whJ8SKsFUesq9CMZHWRHectthAl8pI7AtNdIeJtMmvElxBAtnKs96sZ4V4U9EHg5QbIChosEJ2LWltV69O6C46GG22qds40eroXvIaHY222tZMeof7sLzXx5dn5ssA+AKYL2488+0NlwqYb+Hdu4V91QFyHTKfc0WvV4y6CFkoE49gliJPCVmIJZIg17jXB9o2aPj8hM0T1twMMG3K/ftwalurcNoM0TJOzonZ6Z1B7jtWrQNDOtKo0T0dh0p8KJR2CEhnkBAK3elwKZD5mtM5DxZOm5H50njrWC4NTIjljCDLDUPnZr6uuIBjje0GWj+fZ+njMfvEdddCgXQHxAecNgOoasJmCghgQWvdACxoCJ0ALAihEIIAFgSwoADBOs5SHLwGWdVxljIcC0IohAAWBLCI5ln6EboCsgqWXl1L8R+6ArKVuGsinhnXyn1s5ND7B6U/z5CGNaM919z7CtpYgxrodjU9K6+omGefzEK6nWIo9wh54+o8SyOi1RU65lo5UkwX+S0lzkIw+OWSPdxsTJhcBnd1J9PqPh2sIO0xeNhWv6fc8D4cpkfoEqhjGDyqsrQukBoLww1gUNcw+E5XeELlHRouFFYSL3Z1tQPyGXf7oCyKcuUmuU3HWsDBoP4m9SFYF7ogIuI8f4R+glpJ6x9MxMsbwWJirYnU/JernxAK0PZWYfD68onekqt7Hfpc/hbn+/kOasu0sdAOL1nGJU3OJe2Kt1z/jGQd6p5ekebWjgXXQlvbuhURMzdcVq92E0ksvcMl5zIuv0D72GgEy5DILm8PW8bJua+TCpfbZphodKs2OZZ22bUkHEvtW9v+/eufTw0TupNjGdfSzrtWi3DhUjhs5VYOh8DPf/v1T+NWO8Fqsx5LayJF2VfRMn6ZuwzXnkG7IceP/3F9UjLP0sgUQ/cuZ99bbijJZDorJCe786sXk0O1C3wRR2ybnIpbgNU6xJWFMAmH4dbv33FhAJugknAvTpmwNxVD+4LFRMTXROo0Tt5Knn25cs67mNszsrTczaW55a6ug5JyUa61Z2DHGtQp/++p3OpgsFZwLSKmi1waXGMPsg9AdYWqE1iSnWvXwNsa9A/+3Th5TsyPJfZRV6j6gMVExMs48WJrfu9LJuuXdQpJyNuUFw7Jq3qDVcLFRFqya/V1sWrh2Kd+qLgVc8cjGHpV1H0IiZDdEGgFLMAFqJrUe6GfWbsV4ZBcb6CK+kJlxbHgXHCqQcECXIBqMLAAF6AaDCzABaisJO87EnrceiEAqtVyO/sabPsX4HIdqkXERAUT64HGf1iZ6WuOsOhcSWHQz3GjuAngCguqQUNhjd58HRa1PscQT5qo5yON+XiqzkDgXuMBVe9778AyDVxvdgRcY838ui19EQVWPe+Ce9nXPEsVr+oIEU90nc1kp82s8q4zpR3fECs89OUTju/0Qu4lN5dyzrFqdBfaXHFnOugGqBycS7ErUDnjWMi9+rrUaueUS8/mZG5TnTkCsN1hb4oZn1iwAJhcoESABcCISOvnx9eX30kBShRYTYD5DFm1BCMJKJFg1QDbqNNootlSyGElO9zp/Pj68ll1IkNEBQu8Xll8YdK8zVyDLFrGiYgr8uZZOtt89kVEdKFdKRsEC9YWyKg+KK6Fy/qXhhImaeEuGLA2Q+WZ+dkeSsaCbdvnqjKU04FnTknS/4Osaxsssl71AAAAAElFTkSuQmCC;" vertex="1" parent="1">
          <mxGeometry x="120" y="196" width="40" height="40" as="geometry" />
        </mxCell>
        <mxCell id="V3Jk48kscWsiEnofZRHU-6" value="" style="shape=image;verticalLabelPosition=bottom;labelBackgroundColor=default;verticalAlign=top;aspect=fixed;imageAspect=0;image=data:image/png,iVBORw0KGgoAAAANSUhEUgAAAJYAAACWCAYAAAA8AXHiAAAQ4UlEQVR42u2de1SU9brHP3NBEAUlQ1IREDXdopiogZdirdKNprnzmqc0lTLt4uWclmxZtk0z107THaiRu86Gji5Nbeva3lbGUUtENNtb2js9goZiSkMKG8dEQME5f7yv4wwMOjMMyMw8n7WeBXN533fm+X3n+V3e3+/5afBeNEAXoCsQbmHtahmAH9BS/b8CqARMwL+BUgu7ABSqfwvU/03e6lxvQAv8BhgEDASigSggoJGv+ytwEvgB+A7IAU57g9g8WVg9gBHAb4HBQNtm8rnKVIFlAvuAMwjNPioNAVKBc2pUcAcrAFLUz66RYmw+9AH+BFx0IzHVZz+p36W3FOuDwR9IBI56gJjqsxxghvpdhUYmBFgClHiwoGqbUa3eQ6X4XU8X4C8W3XxvtErgUyBC5NBwOqu/Vm8WVG27CWwAIkUejtNKrfIqREj1WpX6owsUudg3rpYIGEQ4dtvPaiNfhirqoRtwQITitGWj3F0QVPTA29KOcolVAItUn3o1EeovTUThWjsOdPdWUc1AuUkrQmgcuwZM8yZB+arjMVL4TWMbvGH0vjPwrRR2k9sJdZDZIxkMXJFCfmB2GWU+mkcxHrghhdssbgv9h6eI6i3gthRqs7EaYL67i+r3UpDN1t53V1G9K4XX7G2lu90K+qMUmtvYh+4iqiVSWG5nf3CHhroUlHtas23QT1R7HFJI7mm3m+NQxECgXArHI2ZHDHaFIFzRIwgH/g48jOAJXAEGoCxFcxptAz+EH/BXEZVHEQzs5G6uigcirI9UdQuexWPAnx/UxWdIm8Tj7aWmbmNFAt/T+NlahAfLdSAGONsUVaEe2CSi8gpaq2Xt4+iBOicultyQECm4HZ3UYYjsxqwKHwX+qfYGBe+hCuiHkjTO5VWhFvhvEZVX4gt87EggckRY04EnxMdeS7wjTSB7FRgA5AMdxL9ezS9qc+iaqxrv76Lk8xSkl2gCDroiYoWp0UraVgIoCzK6A5caGrE+AGLFn4KKHmUB7N6GRKwINVq1EH8KFtwCeqJkp3aqV/gHEZVgAx+UgXKnIlYIypYd0rYSbFGFsmzf4GjEmieiEu6BL/CGoxGrFcoMwofEf8I9+DdKopcb9kas50VUgh08pGrF7qpwpvhMsJNX7K0K+wD/En8JDtAbOHW/iDVD/CQ4yPT7RSyNOsQQJr4SHOAiyjJAU30Ra4iISnCCzkCc5RO184FPdOXVwsLCeOSRRxw+7urVq5w54/qNRx977DFatHD8RsK5c+coKSlRHKbX8+KLLzp1/b1795rP44FMQtnmz6awRrvySh07diQ6OtrxuHrxYqMIKyoqilatWjl8nNFoNAvCx8eHCRMmOHX9Y8eOebKwfgf8p62qsAeyo5TgPF1Qtq2pI6yR4huhgYywJazh4hehgfy2trA0eGAOcKHJGXpHU3eEFQUEiV+EBhKkttXNwhosPhFcxGBLYfUXfwguYoClsKLFH4KL6HNHWBq1jSUIrqA3oNGirMSRlESCq2gDdNZiMVoqCC6i652IJQiuJEKPMo/GKyguLqZlS8eTAd+4cUOk4hjhepS5NF7BgQMHpMibSFhalLzeguBKHtYiyf+FRhCWHmjX3D9l//79efhhx/VfWFhIfn6++XF8fDx+fo4v7j558iRFRUUu/U6dOnUiMTHRqWNXrFjBzZs3AWVW7LPPPuvwOYxGI2vWrGmsImunxw3GsEJCQggNDXXKeZaEhoY6NYO0sLDQ5d+pdevWPP74404dq9PdzT4VHBzs1HkaeSZrGy3KGnxBcCUttEiaIkGEJbgJvlrxgdAYaIGb4gbBxVSJsITG4KYWJeWfILg8Yl0TPwguxqgFSsQPgosp0QKl4gfBxZRKxBIaTVg/iR8EF3NBD1xorLMXFxdb3TC1l7KyMqvHhYWFdW4o23t9S/Lz8/H19W3Q56murmbPnj1O+cPyPGVlZU6fp7q62vz/Tz/95NR5rl+/3qjC0qAkA8mUH5ngQp7SAj+KHwQXU6BBWbB6FQgUfwguwAgE6VEy3Z6iGacxio+Pp0MHx3cNzsvL4/vvvzc/XrRoEeHh4Zw+fZoPP/zQ5jFRUVHMmzcPgNWrV1vNQL0f/fv3Z9u2bQC88MILfPvtt3YdFxYWxty5c3nyyScJCAjAYDBw4MAB0tPTMRgM7iask4DpTg7SfzVnYbVq1YrAQMcDau1pyOPHj6dfv34cPHiwXmGFhYUxc6ayMceWLVscEpafnx+RkUq2TXuXmQ0dOpS9e/eSn5/Ptm3b+OWXX+jWrRtTpkwhOTmZ5ORk1q5d607C+gHuJrf9h0Twpkev17Np0yZ27drFSy+9hMlkTpPOu+++y5tvvsmsWbNIT0+nvLzcXb7Wd5bCypFivjc6nY5BgwYRERFBSUkJWVlZ3Lhxgw4dOtCyZUsqKyttHte9e3diYmKorq7m6NGj/Pzzz1ZVZ1hYGMuWLbMSFUBNTQ2pqamkpaVx69Ytq9d8fHwYMmQIoaGhlJaWcvjw4XsOH0RGRhITE4OPjw8nTpxwKAo7wRFLYf0fyhZhsuOXDeLi4tiwYQPdu3e/20I1Gpk7dy5Tpkxh+PDhHDp0iEWLFplfDwgIYOvWrUyaNMlKLGlpabz11lvcunXLXF3ea6yvtqjGjRvH2rVrCQoK4uzZs7Rt25agoCCSkpJYv3691XtDQ0P55JNPSEhIIC8vj5qaGnr16sWhQ4d45ZVXOH/+vKtdVQqcgbv5sUxYJH8X7tKjRw8yMzPNoioqKiInJweTyURGRgYxMTE2j1u3bh2TJk3iwoULHD9+nIqKCnQ6HXPmzOHjjz9W6ozvvqO0tJSNGzfSs2fP+36WyZMn8/nnn5OamkpgYCB9+/YlPDyc6dOns3z5cmbMuLsNUseOHcnJyUGv19O1a1eioqKIjo6mc+fOGI1G4uPjGytamSyFBfC/3iKWoUOHUlxcbNM2bdpk9d6lS5cSEKCskEtKSqJz587mamjLli20a2d7WWZoaCiJiYlEREQQGxtLZGQkR44cAeDll1+mX79+lJeXM378eIKDgzl16hRff/01CxYsICqqbrqyNm3akJaWxttvv83KlSutRt937NjB66+/zsqVK80dltTUVC5fvszo0aOtlq8ZDAbGjRvHZ5991hiuNWvIUlj7vEVYLVq0ICQkxKYFBd3N8avRaHjmmWcAOHz4MB988IG5LVReXs6rr75a762mzZs3k5GRYX5cXFzM1KlTzVXbxInK7jKHDh3i0UcfZebMmVy7do133nmHkydPUlBQwKxZs9DrldbK2LFj0el0pKSk2Lzetm3bMJlMPPXUUwQHBzN27FiWLl1qXtjaRJg1ZLnlST7KdvcevztFfn5+vauAe/XqxRtvvGEePrgTrU6cOFHnveXl5Zw+fZq4uLg6r2Vm1r1Ldv78ec6cOUNUVJRV1VdVVUV6ejrp6en4+vryxBNPMG3aNNatW8f48eMZOXIk0dHRGI1Gli1bVu/3qqyspG/fvlRVVaHT6cjKympKt57D4i5O7b10dqNsMu7RFBUVkZaWZvO1kSNHmoVVWVlJVVUVvr6+dOnSpc57tVotERER9RayLSoqKsw9O1tUVVWxf/9+9u/fz9atW9m9ezfjxo1Dp9Oh0WisImptvvzyS/Lz883nbuJotdNqKKXWi194g7DsxWQykZWVxfDhwxk1ahTDhg1j//795tcXLlxY7+5msbGxfPHFF1bPtW3bll69epmj1/3Ys2cP586do3fv3uTn56PX65k9e3adoYna3BF7v379yMlpspGkrVY/ulov5iDzs6x47733qKmpQafTsW/fPnbu3ElKSgo5OTksX77cqhFtyWuvvWbVY9Tr9aSkpODv7w8oW8xFR0czaFD9Nzz8/PwIDg7GYDCwY8cO2rRpw+TJk+/7mQsLCzly5AgLFixoKjddBI7fS1gm4K8ip7tkZWUxc+ZM83DBmDFjmDdvHnFxcaSkpPDNN9/U3/c+coQtW7awZs0acnNzmTZtmvmcmZmZTJ06lYMHD7J48eI6t6wCAwPJyMigurqa7du3U1xczOLFi/noo49ISEioUyXPmDGDhQsXmp+bM2cOCQkJrFixwqra1Wq1JCUlMWLECFe6aQsWu6vaqgoBMoD/EklZOCQjg8zMTCZNmkRkZCRXrlxhz549nDhxwtyor92mmjt3LklJSTz//PNWzx87doyJEydiMplISkri7NmzLFmyhOTkZI4ePcqlS5do3749AwcOpLKykjFjxnDlyhUAVq1ahV6vZ+fOnWRnZ3Pq1CmCgoKIj4/H19eX+fPnm6+Tm5tLQkICmzdvZvLkyWRmZlJdXc3TTz9NYGAg06dPd6WL/qf2E5p63niUWluxPkjCwsJo3bq1w8eVlJRw+fJl8+PRo0fTrl07DAaDzV4bKHmrhg0bBsBXX31FcXExnTp1wmAwcPv27TrtqOzsbPR6PatWrWL16tWMGTPG3D4qKytjwoQJDBgwgOrqag4fPsyuXbvqnKdFixbEx8cTGxtLSEgI169fJzc3l927d5sb+7X9MXHiRLp27YrRaOT48ePs27fP5nv9/f157rnnGDhwIFqtltzcXLZv386vv/7qykHRofYKKxH4i8QqhezsbFq2bMnGjRvJy8vD39+fuLg4Zs+eTUBAABUVFfTp04eCggJvdE+iWsvZhT/KfR+Tt1v79u1Nly5dMtXH1atXTaNGjfJW/5SoWqlDfXc/b6HMKH3S26NVeXk569evp6CggIqKCqqrq7l27Ro//PAD6enpJCYmkpub663uWU096yU09zioPcoKHj8EoS5VKJtPFNt68V75sS4Dm8R/Qj1sqE9U94tYoOxacQbJ+ifUbSr1AOq9fXC/jH4XHGnxC17Dp/cSlT0RC5QtUc5IW0tQqQC6A/dMfG/P+vdrQCvgCfGpALwP7LrfmzR2nqy1GrU6iF+9miK1bXXfJUP2Zuy4ibLY4nfiW6/mTeDvrj6pBjiAjMZ7q33jQA1n/xtVHgX+KQ15r6MKeAzIs/cAR5NX3Ukr+ZT42qtYDPzN0erNUfRAFs0414PgUr4DhqAMijaqsEBZyZOLpD7ydK4DMcBZRw/UOXnBMsAAPCe+92heVhvtTc6n0lvyWFv/IBXti7I6QwrCs+xbGrhBqsYF4gpXG3jBUnN4BJeBAShLupzGFfsVXgBGATekTNyeCrXdfLE5fagJQI1UI25rNcC45qr4+VJAbmtz3WGUVgrKvWyRu9TVf5TCchv70N0agkul0Jq9rXDXXsbvpfCarb3v7l3Y+dJbbHa9vzmeMj4yFmU6qxTsg7UK4HlPG3wbpI7qSgE/GPsFiPXUkd1QlBRJUtBNa/9AWQ7v0fgCqVLYTWYbgJZ4ES+h7G0nhd84ZgSmeOtNz3CUac4iBNdPe+nm7XfU9UCy2mMRUTTMbqi+1COY6YqyF4sIxDnLAnqKjGyjAaahLOUWsdhnRcBUXDNp0+PxB5aooV3EY9uq1N51gMjFuXGvVGl/WdlN4M9AJ5FHw4lAWRFU6cWCqlQFFS5ycD3t1SqyxIsEdVWN2hKhmqgNNoO7W8V6oh1Rv6O/FPeDIQpYhbJayN3FVAisBHpJsTavoYpBKFNtf3QjMZ0F/oSyd5HGkwrDU+kGjAASgMHAQ83kc5Wi7Av5lWo/euqv3FuiWU9VYAOBPmoV2qaRr2sETqp2HGXKUB619vYTYXnmMEak2oUPVx+3q2ValA0UWqnHlKtjSbfV6GNphWpbrxBl8+0L3urY/wexPJFwuq+QOQAAAABJRU5ErkJggg==;" vertex="1" parent="1">
          <mxGeometry x="517" y="276" width="40" height="40" as="geometry" />
        </mxCell>
        <mxCell id="V3Jk48kscWsiEnofZRHU-7" value="" style="shape=image;verticalLabelPosition=bottom;labelBackgroundColor=default;verticalAlign=top;aspect=fixed;imageAspect=0;image=data:image/png,iVBORw0KGgoAAAANSUhEUgAAAJYAAACWCAYAAAA8AXHiAAAA0GVYSWZJSSoACAAAAAoAAAEEAAEAAACWAAAAAQEEAAEAAACWAAAAAgEDAAMAAACGAAAAEgEDAAEAAAABAAAAGgEFAAEAAACMAAAAGwEFAAEAAACUAAAAKAEDAAEAAAACAAAAMQECAA0AAACcAAAAMgECABQAAACqAAAAaYcEAAEAAAC+AAAAAAAAAAgACAAIAEgAAAABAAAASAAAAAEAAABHSU1QIDIuMTAuMzQAADIwMjM6MTA6MDggMTY6Mzc6MjcAAQABoAMAAQAAAAEAAAAAAAAA46AYfwAAAYVpQ0NQSUNDIHByb2ZpbGUAAHicfZE9SMNAHMVfW6WltDjYQcQhQ/0Y7KIijlqFIlQItUKrDiaXfkGThiTFxVFwLTj4sVh1cHHW1cFVEAQ/QFxdnBRdpMT/JYUWMR4c9+PdvcfdO8DfrDLV7JkFVM0yMqmkkMuvCsFXhBFCFGMYlZipz4liGp7j6x4+vt4leJb3uT9HVCmYDPAJxLNMNyziDeLpTUvnvE8cY2VJIT4nHjfogsSPXJddfuNcctjPM2NGNjNPHCMWSl0sdzErGyrxFHFcUTXK9+dcVjhvcVardda+J39hpKCtLHOd5hBSWMQSRAiQUUcFVVhI0KqRYiJD+0kP/6DjF8klk6sCRo4F1KBCcvzgf/C7W7M4OeEmRZJA74ttfwwDwV2g1bDt72Pbbp0AgWfgSuv4a01g5pP0RkeLHwF928DFdUeT94DLHWDgSZcMyZECNP3FIvB+Rt+UB/pvgfCa21t7H6cPQJa6St8AB4fASImy1z3eHeru7d8z7f5+AK3ecr4DKaXQAAANeGlUWHRYTUw6Y29tLmFkb2JlLnhtcAAAAAAAPD94cGFja2V0IGJlZ2luPSLvu78iIGlkPSJXNU0wTXBDZWhpSHpyZVN6TlRjemtjOWQiPz4KPHg6eG1wbWV0YSB4bWxuczp4PSJhZG9iZTpuczptZXRhLyIgeDp4bXB0az0iWE1QIENvcmUgNC40LjAtRXhpdjIiPgogPHJkZjpSREYgeG1sbnM6cmRmPSJodHRwOi8vd3d3LnczLm9yZy8xOTk5LzAyLzIyLXJkZi1zeW50YXgtbnMjIj4KICA8cmRmOkRlc2NyaXB0aW9uIHJkZjphYm91dD0iIgogICAgeG1sbnM6eG1wTU09Imh0dHA6Ly9ucy5hZG9iZS5jb20veGFwLzEuMC9tbS8iCiAgICB4bWxuczpzdEV2dD0iaHR0cDovL25zLmFkb2JlLmNvbS94YXAvMS4wL3NUeXBlL1Jlc291cmNlRXZlbnQjIgogICAgeG1sbnM6ZGM9Imh0dHA6Ly9wdXJsLm9yZy9kYy9lbGVtZW50cy8xLjEvIgogICAgeG1sbnM6R0lNUD0iaHR0cDovL3d3dy5naW1wLm9yZy94bXAvIgogICAgeG1sbnM6dGlmZj0iaHR0cDovL25zLmFkb2JlLmNvbS90aWZmLzEuMC8iCiAgICB4bWxuczp4bXA9Imh0dHA6Ly9ucy5hZG9iZS5jb20veGFwLzEuMC8iCiAgIHhtcE1NOkRvY3VtZW50SUQ9ImdpbXA6ZG9jaWQ6Z2ltcDpmNTljMmMyNi02ZDJlLTRmOWItYmNiZC1mYmUyZTdhZWJjYTgiCiAgIHhtcE1NOkluc3RhbmNlSUQ9InhtcC5paWQ6NWMyYzY5OWYtNDFjNy00MTU1LTk4NWYtZjI1NzU0NjIyZjU2IgogICB4bXBNTTpPcmlnaW5hbERvY3VtZW50SUQ9InhtcC5kaWQ6YWZiZDQyNTUtYjhhMi00MTJmLTk0MTktZDk1NmI0MWQxY2QxIgogICBkYzpGb3JtYXQ9ImltYWdlL3BuZyIKICAgR0lNUDpBUEk9IjIuMCIKICAgR0lNUDpQbGF0Zm9ybT0iTGludXgiCiAgIEdJTVA6VGltZVN0YW1wPSIxNjk2Nzc1ODQ4ODUxODM2IgogICBHSU1QOlZlcnNpb249IjIuMTAuMzQiCiAgIHRpZmY6T3JpZW50YXRpb249IjEiCiAgIHhtcDpDcmVhdG9yVG9vbD0iR0lNUCAyLjEwIgogICB4bXA6TWV0YWRhdGFEYXRlPSIyMDIzOjEwOjA4VDE2OjM3OjI3KzAyOjAwIgogICB4bXA6TW9kaWZ5RGF0ZT0iMjAyMzoxMDowOFQxNjozNzoyNyswMjowMCI+CiAgIDx4bXBNTTpIaXN0b3J5PgogICAgPHJkZjpTZXE+CiAgICAgPHJkZjpsaQogICAgICBzdEV2dDphY3Rpb249InNhdmVkIgogICAgICBzdEV2dDpjaGFuZ2VkPSIvIgogICAgICBzdEV2dDppbnN0YW5jZUlEPSJ4bXAuaWlkOmI0YjUzOWNiLTg2ZTYtNGViMC04NDY0LWNjNzQyM2ZiNTE0ZiIKICAgICAgc3RFdnQ6c29mdHdhcmVBZ2VudD0iR2ltcCAyLjEwIChMaW51eCkiCiAgICAgIHN0RXZ0OndoZW49IjIwMjMtMTAtMDhUMTY6Mzc6MjgrMDI6MDAiLz4KICAgIDwvcmRmOlNlcT4KICAgPC94bXBNTTpIaXN0b3J5PgogIDwvcmRmOkRlc2NyaXB0aW9uPgogPC9yZGY6UkRGPgo8L3g6eG1wbWV0YT4KICAgICAgICAgICAgICAgICAgICAgICAgICAgICAgICAgICAgICAgICAgICAgICAgICAgICAgICAgICAgICAgICAgICAgICAgICAgICAgICAgICAgICAgICAgICAgICAgICAgIAogICAgICAgICAgICAgICAgICAgICAgICAgICAgICAgICAgICAgICAgICAgICAgICAgICAgICAgICAgICAgICAgICAgICAgICAgICAgICAgICAgICAgICAgICAgICAgICAgICAgCiAgICAgICAgICAgICAgICAgICAgICAgICAgICAgICAgICAgICAgICAgICAgICAgICAgICAgICAgICAgICAgICAgICAgICAgICAgICAgICAgICAgICAgICAgICAgICAgICAgICAKICAgICAgICAgICAgICAgICAgICAgICAgICAgICAgICAgICAgICAgICAgICAgICAgICAgICAgICAgICAgICAgICAgICAgICAgICAgICAgICAgICAgICAgICAgICAgICAgICAgIAogICAgICAgICAgICAgICAgICAgICAgICAgICAgICAgICAgICAgICAgICAgICAgICAgICAgICAgICAgICAgICAgICAgICAgICAgICAgICAgICAgICAgICAgICAgICAgICAgICAgCiAgICAgICAgICAgICAgICAgICAgICAgICAgICAgICAgICAgICAgICAgICAgICAgICAgICAgICAgICAgICAgICAgICAgICAgICAgICAgICAgICAgICAgICAgICAgICAgICAgICAKICAgICAgICAgICAgICAgICAgICAgICAgICAgICAgICAgICAgICAgICAgICAgICAgICAgICAgICAgICAgICAgICAgICAgICAgICAgICAgICAgICAgICAgICAgICAgICAgICAgIAogICAgICAgICAgICAgICAgICAgICAgICAgICAgICAgICAgICAgICAgICAgICAgICAgICAgICAgICAgICAgICAgICAgICAgICAgICAgICAgICAgICAgICAgICAgICAgICAgICAgCiAgICAgICAgICAgICAgICAgICAgICAgICAgICAgICAgICAgICAgICAgICAgICAgICAgICAgICAgICAgICAgICAgICAgICAgICAgICAgICAgICAgICAgICAgICAgICAgICAgICAKICAgICAgICAgICAgICAgICAgICAgICAgICAgICAgICAgICAgICAgICAgICAgICAgICAgICAgICAgICAgICAgICAgICAgICAgICAgICAgICAgICAgICAgICAgICAgICAgICAgIAogICAgICAgICAgICAgICAgICAgICAgICAgICAgICAgICAgICAgICAgICAgICAgICAgICAgICAgICAgICAgICAgICAgICAgICAgICAgICAgICAgICAgICAgICAgICAgICAgICAgCiAgICAgICAgICAgICAgICAgICAgICAgICAgICAgICAgICAgICAgICAgICAgICAgICAgICAgICAgICAgICAgICAgICAgICAgICAgICAgICAgICAgICAgICAgICAgICAgICAgICAKICAgICAgICAgICAgICAgICAgICAgICAgICAgICAgICAgICAgICAgICAgICAgICAgICAgICAgICAgICAgICAgICAgICAgICAgICAgICAgICAgICAgICAgICAgICAgICAgICAgIAogICAgICAgICAgICAgICAgICAgICAgICAgICAgICAgICAgICAgICAgICAgICAgICAgICAgICAgICAgICAgICAgICAgICAgICAgICAgICAgICAgICAgICAgICAgICAgICAgICAgCiAgICAgICAgICAgICAgICAgICAgICAgICAgICAgICAgICAgICAgICAgICAgICAgICAgICAgICAgICAgICAgICAgICAgICAgICAgICAgICAgICAgICAgICAgICAgICAgICAgICAKICAgICAgICAgICAgICAgICAgICAgICAgICAgICAgICAgICAgICAgICAgICAgICAgICAgICAgICAgICAgICAgICAgICAgICAgICAgICAgICAgICAgICAgICAgICAgICAgICAgIAogICAgICAgICAgICAgICAgICAgICAgICAgICAgICAgICAgICAgICAgICAgICAgICAgICAgICAgICAgICAgICAgICAgICAgICAgICAgICAgICAgICAgICAgICAgICAgICAgICAgCiAgICAgICAgICAgICAgICAgICAgICAgICAgICAgICAgICAgICAgICAgICAgICAgICAgICAgICAgICAgICAgICAgICAgICAgICAgICAgICAgICAgICAgICAgICAgICAgICAgICAKICAgICAgICAgICAgICAgICAgICAgICAgICAgICAgICAgICAgICAgICAgICAgICAgICAgICAgICAgICAgICAgICAgICAgICAgICAgICAgICAgICAgICAgICAgICAgICAgICAgIAogICAgICAgICAgICAgICAgICAgICAgICAgICAgICAgICAgICAgICAgICAgICAgICAgICAgICAgICAgICAgICAgICAgICAgICAgICAgICAgICAgICAgICAgICAgICAgICAgICAgCiAgICAgICAgICAgICAgICAgICAgICAgICAgIAo8P3hwYWNrZXQgZW5kPSJ3Ij8+WkOGNwAAAAlwSFlzAAALEwAACxMBAJqcGAAAAAd0SU1FB+cKCA4lHL79EHYAACAASURBVHja7X15eFNV+v/nJjdrm65p0pbSAoWyVLayiOyFUqCAyrANz4iKOLKMiAsIMjigg4JfUb5+YRBccBlwQMARKvtSkK1SShG6sXWhK3RNl6RJk5zfHzPn/m7SlCZpCmnp+zz3qZLt3nM+510+5z3vy6BdOElPTyc3b97EvXv3cP/+fZSVlSE/Px9FRUUoKSlBZWUlamtrUVdXB5PJBIZhIBKJIJVKoVAo4OPjg4CAAAQGBiI4OBg+Pj5QKpUICAhAaGgonnzySeZxGUvmcQZSSkoKuXXrFuLj45GSkoJ79+6hpKSkRX5LoVBApVJBrVZj1KhReOqppxASEoLQ0NCPlErlivZl3colMzOTvPnmmyQqKoqwLEsANLgEAgERCoVEKBQSgUBABAIBYRiGMAxj8/0AuNf5n6Wfb+xzLMuSrl27kqlTp5Ivv/yS5Ofnk/YZamWye/duMn78eCIWiy0m1xoADwKPsxcfdHzgWb9PLpeTYcOGkZUrV5Lr16+3g8yd5dSpUyQ6OtommFoCRI4CTiAQEJZliUAgsHjNw8ODjBkzhmzevLldk7mbvPvuuw3M26MEkr1AE4lEFv8eEhJCli1bRq5du9YOsEchWVlZ5Pjx42Tbtm0kLi6OA5S1NmgNF1+b8TXtyy+/TFJTU9sB1tJy/vx5snz5chIREUEUCoWFeXuQ49yaLmttK5FIyMKFC0lBQUE7wFwt8fHxZPTo0Q3MRmvWUvZcfA0WHBxMtm7d2g4uV8itW7fIjBkzGgw2jbzagoayx0zyNdjkyZPJ7du32wHmrBw/fpx06tTJwjy4Akh8UPLpAJZlG1ARfN+H/3pL0hUPMpFUg3Xo0IH88ssv7eByVHbs2MGt0saITWdWfUtEinTCHxbI+M/w6aefugW4WsWWzt69e8nMmTNBCAHDMDCbzc49LMNAIBDAbDaDEMvxl8vlUCgUUCqViIyMRNeuXREaGgqZTAaRSASWZbnP1tfXo76+HtXV1cjJyUFGRgYyMjKg0WhQVVUFo9Fo8d0CgQAMw8BkMrXYGAkEAgCA2WzGG2+8gY0bNzLtwHqAXLx4kURHR0Ov1zcbVHwweXp6YuzYsejTpw9CQ0MRFhaG0NBQKJVKDggCgQCEEO7ifxfD/Gfo6GsGgwEFBQXIzs5GTk4Obty4gSNHjiAvL8/m55x9DnsWjslkwsKFC/H5558z7cCyISUlJT+OGjVqRnp6OoRCodMrnmoahUKBOXPmYMiQIRgwYABUKhUkEgmMRiOnhai2sdZoTU0ozXQQiUQQi8UghKC8vBy///47EhISkJSUhIsXL3KfEQqFIIS4HGAMw0AoFMJoNGLFihVYv3490w4sK3nllVfIF198AZZlG5gXR0GlUqnw5ZdfIiYmBlqtlgMSTX/hX86KtXYTi8XcpdVqkZycjN27dyMhIQH5+fkWoHQlwPia6+uvv8a8efOYdmD9V06cOEHi4uJgNpthMpkc0iDWoAoJCcHOnTvRp08flJeXQygUNhtEjgJNKBTCw8ODamIcOHAA33zzDTIyMhr4SK7yuQghkMlkOHfuHKKioph2YAEYOnQouXDhgtMmkIJKrVZj37596NmzJzQaDViWfSTPwweZWCyGp6cnysrKcObMGWzZsgVJSUmcibQVXDRHW/fu3RvXr19/qHMtcNco8MKFC9zAODugPj4+2LFjByIjIx8pqPjmifo/5eXlYFkWU6dOxb59+/DVV1+hT58+nHYWCoXN/k2z2QyWZXH9+nVs2LCBPPYaa8iQISQxMdEpbUVNnEAgwPbt2/HMM8+gtLQUIpHILTWzyWSCUCiEQqFAdXU1duzYgW3btiE3N5fTYM2hKai59/b2RkpKCjp37vxQ5lzobgN94cIF8ve//91pf4Nqq5UrV+Lll19+KKDimzlb1IQ9vpBOp4NQKMTw4cMxdepU6PV6pKamwmg0Nlt7CYVC6HQ6SKVSnD9//r3HElg6nW7NtWvXwLKsw8Ci/sm4cePw8ccfQ6PRuMSkPAhQNPqjRKpYLIZIJIJQKOQcclsRIx90lDcjhECr1UIulyMuLg4jR47EzZs3uQiSUhTOaC2GYZCXl4fbt29Hfvzxx3seK1OYlZVFoqKiUFlZ2YDQtHfwvL29cfjwYXTu3BlarbZFgEUBIpFI4OXlBZlMZlMzmc1m7iKEwGQyQa/Xw2AwwGQyWbxmTbqazWZ4eXmhrq4O3377LT744ANotVoL0rapseAvTGpSt27digULFrT4vLPuBKzExERUVlY65bTTgVy6dCl69eqF0tLSFnHWzWYzByi5XN4AcHyACQQCC60FgPsM3Rqi5CwFHAWNQCBAdXU1BAIBXn31VQwdOhRr1qzBmTNnLEy+rXGg32G9OBmGwc8///z4Oe9PP/00iY+P58g9R/2qyMhIHDp0iFvVrgaUUCiEl5cXFApFi3BgRqMRdXV1MBgMHNCog+/l5QWTyYTNmzdj48aNqK2tbeDYUyAFBwcjNDQUiYmJ3L/RMQoLC8PVq1fDfX19sx4LYGVlZZH+/ftDo9E4bAYpkLZv346pU6eioqLCpSbQbDZDJpPBz8/voVEWZrMZBoMBWq0WBoMBOp0ODMPAz88Pv/76K5YuXYobN25YLCJCCEQiEfbu3Yvu3btj+PDhKC8vb6BNDx06hAkTJrTo3LsNj3Xy5EloNBqHtQ1dif3798e4ceNQVVXlUlARQuDj4wOVSvVQeTCBQACpVAo/Pz+o1WoEBgbCw8MDFRUVGDJkCH755RdMnz6dM4fUr9qyZQtGjBgBlUqF1atXN/CzzGYzx/Y/FsBKS0vjBtQZnua5556Dp6eny1JTKLgDAgLg7e39SMeGYRjIZDIEBAQgJCSEM8lbt27Fhg0bIJVKYTab8T//8z+YMWMGKisrUVVVhVmzZmHixIkwm80WPll6evrj42NFRkaStLQ0hxx3+t7w8HAcP34cYrGY21RuLqgEAgGUSiWkUqnbEquUmti7dy9u3LiBV199FTU1NVwgI5PJkJeXh5iYGI56MRqNGD16NE6fPt32TWF6ejqhq8gZpzsmJgY+Pj6or693iVPt7qCiWz4KhQIAMGvWLCxduhRVVVXc+AkEAtTW1qJr16545513LMa1tLT08TCF+/fv5wbLGWDFxsbCbDa7LFLz9fV1W1DxzT/1mwBAKpVCrVZDKpVydAPLstBoNHjxxRcxevRoLvWoJTNZ3QpYqampDQasKaGOaN++fTF48GAuampuJKZQKLj0ltYkAoEAMpkMarUa/v7+3CKl1wcffAA/P78WTxVyK2BlZWU5bQZHjBjhEjNICIFUKn3kjrorxMPDg1scAoEAWq0Wffr0wWuvvcbtGLR5YOXk5BAaETrCtlN1HhUVBb1e73A0acu0+Pj4PLQV3dLCN+VCoRAVFRV45ZVX0LFjR47batPAys3NRVVVlVNsuVgsRmRkJIxGY7MAYTKZIJfLH8pKflgikUggEok4YtRoNMLT0xN/+MMfkJeXh4yMDNKmgbV//36H/SuqnSIjIxEcHIz6+vpm+ydeXl5oS0K5LwosgUAAvV6PkSNHghCCo0ePtm2NdenSJaeAAAAjR46Et7d3szQW9TncNRGwOSIWi7ntMXqusVu3bvDy8kJ8fHzbBhat+emIGaTvDQ8Pd3hfsTGnva34VtbAoi4GwzDQ6XTo3LkzRo4cidOnT+Pu3bukTQIrNTWVFBUVOQQsuvLEYjHCwsJQV1fXLMedhultUejpbesFGR0dDZPJhFu3brVNjXX37l2nHXeFQoGgoKBm0Qz0xExbNIN8J56OrVAoRG1tLQYOHAgAuHDhQtsE1p07d7gHdpQaoHXVm8O40zSTtixUG9MxMplMUKvV8PDwwNmzZ9smsE6cOAHAuUMTnp6eXPJbc81FWxZ6OJdfUMXb2xu9e/fGtWvX2iawaEToDLDCwsI4nqa5VENbFuv0aMpnDRs2DMXFxTh//jxpU8DKzMwkGo3GKX4GALp27drsFGTK77R1YPE39+nfnj17AgB3frHNAOvmzZvQ6XROf75Tp04uoQha8niYO5lCPtC0Wi26d+8OhmFaLDJ8ZMC6ffu2U6kydJACAwObDayHURjEXbQW/5kNBgM6dOgALy+vtges7OxsC6DYK9Qfk8lkza7M8jiAij4nXbz0v8ViMVQqFW7evNm2gEWLkDkCDhrVsCwLDw8Pl6QhPw5i7UeazWaIxWIolUrcvXu37QDrzp075MqVK82iGmQyWbOphqZOFLdVYFGaRa1Wo6qqqu0AKz093Slik75fLpe7xBQ6C+y2ACwA6NixI3Q6HX7//XfSJoCVnJz8wAduSvjAao4ppLUTHjftRsnS4OBgEEJQUFDQNjTWjRs3mvV5iUQCsVjsEm3TFFhoqcqWrHbc0tLY7oJKpQIA0ESAVg+s5kYitEyQK6QxoFBAUYKRHv2ndSVak/aSy+WQy+UWz8owDPz9/QGgRVKVHzqwLl++TK5fv+5UpWCqNcRisdNHxazFOgCg5YUooLKysvD+++/jqaeewtSpU3HlyhWOdKTvbQ10g7+/P3c0jGpqmhff3Axcm1ryYT9kWloaDAZDs0psU2A1N9edDywKEKoJr1y5gh9++AFbt25FbW0tACAjIwOHDx/GihUrsGDBAgQGBnLfQYunubMDr1QqUVJSAp1Ox3FZAKDValunxrpx4wY5d+4cSUxMJP/+97/BsmyztA0FlisG22AwwGg0cpu158+fx8yZMzF8+HB88sknXLkgqsH0ej3ee+89REZGYtmyZbhz5w6nwYxGo1ubSKFQCKVSCZZluWRJAKirq2s9GisvL498+OGHOHjwILp3796oinZmIvimsLmnc1iWBcuySEpKwurVq3H06FFOe9EJsK5BJRAIUF5ejg0bNuC7777DnDlzsGLFCgQEBAAAVzfUHTUYy7IICAjgqgPS+20VwNq5cyfp1asXqqurMXToUCxYsAB+fn4ghKC2thbp6en417/+xZ1edhRc1HlvjnagxcyKi4uxZs0afPXVVxx9QU9Z2xpwWvKRAqykpASffvop9u3bh0WLFmHRokXw9PTkfsMdMyjowuQn/7k9sHbs2EH+9Kc/oWfPnvi///s/xMTE2HzfjBkzMGXKFKceSiQSNWuyTCYTfHx8cP78eSxbtgwZGRkWgLLnnqwBlpubi+XLl+O7777D66+/jtmzZ3MAo6b2YW56Wy86vtNOTXtwcLBdlMsj97FSU1PJvHnz8MQTTyAhIQExMTHcBNDLaDTCaDRiwoQJ2Lx5M1e8wllT6AyovL29ceTIEcycORMZGRmcz+cMjcAHmFAoRHp6Ol555RVERUXh888/x927d7lDDc09UWTPvRiNRpv9gagPKRQKUVxcjCtXrjhdk+yha6yVK1fCYDDghx9+gFqthtFoBMuyDRxtOgDz58/HwYMHER8f71ChfKoJnAGVQqFAYmIi5s2bx1VVdoWPQQFGAXTr1i0sWrQIgYGBiI2NxZ///Gf06dPHpQdjaXVlPoD4i1Sr1UKr1UKn00Gn06GmpgZnzpzBpk2bkJOTwxXadesT4FevXiUAyNy5cwkhhBiNRvIgMZlMhBBC8vPziUqlsqtBOH39zTffJFVVVSQrK4vcvXvXris3N5cUFBSQtLQ0i/a/eEid5wGQsLAwsmrVKmI2m4nZbCbOitlstjm++fn55MsvvyRLly4lkydPJr179yZBQUFEKpU22u2VYRjSo0cPQo/cl5WVveJWwFq8eDFhGIZcvnyZmEymJoHFB9+qVasatKB9ELDef/99UllZSbKzs+0GVnZ2NtFoNGT+/Pl2/RZasI1vZmamxeJyBFD19fUWi/PQoUPk7bffJk8++STx9/e3636se1wDIEFBQWTo0KHk6NGjxK1M4alTpxAREYEBAwY4xCMRQvD666/j66+/RlFRkV1+iLe3t0OMt9lshoeHB3777Td8++23XIlJaz+EmhZ7/CB7+wzyN7opfZGQkICIiAiH/C26G8CyLPLz87F7927s2rULly9fbsBV8Wu9W+e627pfoVCIoqIi1NbWonfv3u7lvOfm5mLMmDEP7BpqnU1AB8Df3x8vvvhik44kHRwfHx+HOCy6fbFnzx4YDAbO56P3SoMKa+f9Qd/P929olNXU/dCJPnTokEPRIQVVXV0dPvnkEwwcOBBLly7F5cuXOYec33eaPgtdJE0BmI5lx44dERwczLiNxkpKSiKDBg3iEvRtAYsODnWi+Q49IQRPP/00PvnkE+5k84MGw9/f3+7VTot+5OTk4F//+hcIIdzemEwmQ3BwMLp06YLAwECEhoYiODgYAQEByMnJwV//+tcGbDrVVEFBQWAYBvn5+RZBh3UlPesxYBgGZ8+eRWZmJnr06NFgLGwFHEKhEGlpaXjppZe4I3P0M66sEm3daeORA4vm89C9M1s3LRAIcO3aNfj7+6NDhw4c0KhZGjJkCAYPHoxz5841eqyL/pu/v7/dA2o2myGXy3H27Fl07twZ0dHRGDZsGIKDg6FUKrmLikajgVgsRnJyMgdAOol00ZjNZrzwwgt46aWXkJKSgkuXLiE+Ph6ZmZkW90UbTdGFRqmVyspKHDp0qNEdCf7zCoVCnD9/Hk8//TTX49B6N8BV4nalnL755hsCgBw+fJgQQiwcTOqgb9++nfTr14889dRT5IcffrB4jf7dsmVLk461UCgkKSkppLi4mOTm5trtvGdlZZHy8vJGnWKDwUCqqqpIdnY2ycnJIfn5+WTlypVEKpU2uIcJEyaQ1NRUUlJSQkpLS0lVVRUpLCwku3btIq+//jrp3r27TaeZYRguWpw4cSL3243dk9lsJjk5OSQ4OJgAICzLWjjgrgow6HjHxsYSt9JYer2eW6G2Vlx5eTk2b96M9evXQyQSYeHChVAoFJg8ebKF2ezXr1+jppSaRx8fH6dOQAuFQq65uLUPRTvQ85+BEIJly5ZhwoQJOHjwIMrLyyGRSDBs2DCMHTsWJpMJtbW1YBgGNTU1EAqFGD9+PGJiYrB69WpcvHgRBw4cwOXLl3H58mWLZzKbzTh27BiysrLQpUsXCzfBeh9z7dq1KCws5Bh8Vzcmtx4jtwJWY44obWyUlpYGkUiEoKAgSKVSfPTRR1ixYgX69+/PpccCQI8ePdCtWzfcvHmzQSMBvqMvkUgcjgqlUimUSuUDgwO6IU39PI1Ggx49emDAgAHcxnJ9fT2qq6ttToRGowEhBB4eHpg4cSImTpwInU6H3NxcnDp1Cp9++inu3LmD/v37w2Qy4fz58zaBxV+QaWlp6Ny5M+RyOfLy8lBVVYWuXbvCbDajsLDQZmYCf3vK3nHiJ/65TVRIK5pQzWUNtPv37yMoKAhisRhlZWXo27cvpkyZgiVLlnDOsNFohK+vL5544gmb0SH9TpVKBalUarePQeuLBgQENLl1wTAM52fQya2rq8P9+/dRUVGBkpISLpPU1mJiWZbTfjQ6k8lk6NGjBxYtWoS4uDgAwK5du5CUlISZM2fa1PT0+z08PLB3714kJibi4sWLiIiIgFqtxvHjx7Ft2zZ4enpabCZTQNGdDQoqGjk2FeUOHz7cvYDl6+sLAI0eJaKtOYRCIViWRWlpKf70pz/h3r17OHnypIV2GjlyZKN8CwAolUpOYzU1UNR0NqWp+CKXy7k66Xz+id57Y+aCbunI5XJ4eXlx7yeEQK/Xcy1KAHCdWGk+VGMikUgQHBwMlUoFhmGQlZWF0aNHQ6VSQaVScdtg/PoMJpMJzz77LFavXs0tUkqp8Deg+d1d6W+NGTPGvYBFo0Fa9tGe0FYkEuHFF1/Exx9/bGFW6KppDFh00uwhX/39/Z0qsS2Xy6FSqeDt7c35cw+66CFab29v+Pv7NzjSTtN8KioqwLIs5HK53ad+6uvrYTabkZmZifLycnTr1g11dXVQq9X47LPPEBUVxUWJCoUCs2bN4lyNw4cP4+jRo3j77bcxduxYTpPyu7pS0K1atQoREREuS71wiY8VFhaWLJFIBtDexdYTKZVKUVdXZ5H+W1NTgz59+qBz584Wn1EqlfDy8kJVVZVNPsvb27vJKjNmsxl+fn7N6jBBgaJQKFBfXw+DwcBNMh80LMtCLBZDIpHY1IqUajGZTMjNzUV4eLhDYKeZCXxKh2VZVFVVYdy4cRg6dChu3rwJg8EAPz8/REREQKfToaioCBKJBFFRUXjyySdRX1+PgoICHD58GPHx8bh69Sq0Wi1kMhneeustvPvuuy7N53EJsFQq1cDQ0FCSmppqkxH38fFBZWUll5fEd8Z79OjRQCP5+/s3ABb96+vr67KDFPZuO0kkEqczAOh4aDQa3LhxAxMnToREImmSGLUWGjBQUPKj0aioKAgEAi6w4Pt5Wq3WIjjq27cvVqxYgeTkZEyaNAm9evXC2rVrXZ4k5rItnZCQEKSkpFg4tvSvn58fysrKYDAYGoCOpqzwS0AGBQU1So4GBQXZdVDV3XLPS0tLUVNTg65duz7Q1DcWcRcXF3PBCx0z6gdWVVWhsrKSSzfmjz/fcddoNJyvNWDAAIjFYvj4+LTMgnTVFw0YMAD37t3jmizyB06tVkMmk3EtdfmTbh1msyyLTp06WbzGr5ASHh5uE6DuKvRZCwoKwDAMoqKimtwTtQWse/fucQvYw8OD2xekkSB1ypviqSjI6urqUFNTAz8/P/cG1uTJk0EIwbFjx7gwn0Z7wcHBCA4ORnFxcQP1z6cN6H936NDBpq/m6emJLl26wGAw2EUduJOcOHEChBBERkY6dX8ajQYsy0Imk0EsFkOtVkOhUHBj/KCsDMqT8RMkdTod9Hq9+2usvn37wsvLC7/99ptFlEcfKjg4GDk5ORblofncF391N9aBq2PHjlAoFHZxWO4CLHofR44cgaenJ6eNHb2/mpoaC19PLBbD19cXarUavr6+8PDwgEgkavC9DMNwPB6fWC4vL4dOp+OaabpaXJaPFRgYyEycOJGcPHkSer2eAxB90CFDhuDUqVMQiUQcI88wDLfRy/fNaE0BCiAaVUVFRXHc0IMmxl0q9dFFlZ2djYyMDEydOpUrZuKoKaTpPtblw/mdVvlpMnSMqKm0lsrKShBCWgxYLs2ij46ORklJCVc/nD+AgwYNws2bN1FaWmrRlYoy1PxBpLyYtZPerVs3uwrausuRK3qfv//+O3Q6HSZPnuyQ424d5FBH/EERLCVmRSJRo+cN+GS2s+cHHiqwpk2bBgD4xz/+0UDdd+7cGQzDICMjg6shQLdy+OYQ+E9aDH9l0oloLC3HFrDcoWgtDTouXrwIiUSCIUOGOOS4t0SUaw2sluom61JghYeHM8888wxOnz6N0tJSTrsYjUaIRCLExsYiMTERUqmU00YmkwkGg8Hie3x9fbntDjo5np6eCA0NtbtegzsAi4b+e/bsQadOndCpUyeOMHXmu1wJsJqaGgBosT5CLrcXzz//PCorK/HTTz9xA0EneebMmbhx4wY0Go2Fc2+9ee3l5WUBLBopdu/evcnez1QTPmpgUS17+fJlZGdnIzY2tlkpL44cprVHaCn0lmqq7nJgTZs2jVGpVHj//fdRU1NjcVAzIiICcrkchw4d4qI7gUAA2kiAAsbDw4Pb8af/1rt3b/j6+tqlsdxBW1EAHT58GAAwe/bsZn2fWCy2yBx1VnPRz9HF3NRGuNsACwA++OADFBQUcIcGaAoHIQRvvPEGDh8+bHFKpra21gIwtM8eXyZMmGAXfwXALRovUXD/+uuvCAsLQ58+fZyiGSgQJBIJd4rclb5Wi7kBLfGl06ZNG6dSqbB69Wpum4ESedHR0QgLC8PXX38NpVLJgY7afFvRkFQqRXh4uF2D6syR/ZaIBhmGQVlZGRISEjB8+HCufLiz0apUKoXRaGzgj7qKZ2sVwPLz8zuxevVqZGZm4quvvuJARZ35Dz/8EIcPH8aFCxcQGBiI+vp6C2BZ81Dh4eEO9SZ0F/9q//79MJlMiI2NbbaGoOXHXQUs/ompVgMsAPjLX/7CREZGYv369SgsLORAZTabERYWhi1btmDNmjU4cuQIfH19Gxw94gOof//+CAkJgV6vbxJY7sBh0Xvcs2cPRCIRpkyZ4vR9UUDS8aHAchaodNGlp6eDZVm7KRy3ARYAfPbZZygqKsLixYs5B55mPY4cORI7duzA999/j/nz52Pbtm1c/jafWWcYBk8//bTdG8+POiKkdEJlZSWXmuLr6+sSjcUHVnPuzWAw4Oeff0avXr3Qt29fptUBKyYmhlm4cCF++uknHDx4kAMV/Tt48GAkJCRg+fLl6Nmzp03ghIaGon///hYV6NxZY1EzmJaWhpKSEq4+WHPbs1Ai05pMdkbu3buHwsJCl6YiP1RgAcB7772XHBAQgBUrVlgk+lFeRiKRIC4uDs8++yy3wcr3sZ566il4e3vbNTFUIz5KjUXvce/evdz9832a5prC5gCL+lNnz54FIQSxsbGtF1gqlWrg8uXLkZqaiv3793NsOx1sfmE2fuEKuvJjY2PtPu5FVf2j1FiUXtmzZw9CQ0Mdzr9qTFwBLAr6X375BQDQq1ev1gssAJgzZ05FQEAAVq1aBa1W26DNmbWWEYlE0Gq16NixI8aPH2/B1LtzREi5uaysLBQVFeGPf/yjhXlsjlAKxVmClGaUVFRU4OTJkxg+fDg6derEtGpgqdVqv1WrViEzMxOHDx/m8rNtaRyz2Yzi4mJotVqMGDHC4WZMj5Icpfd59epVmM1mjB071uVkpLMgpfdw8+ZN3L9/n8u0aNXAAoAlS5Ywfn5+WLFiBcrLyyEWiy0quVBQCQQCfPrpp6ivr+eyUh2ZmJbaonDE1CQlJUEoFHInkFoCvM6C6/z58wCAcePGtQ1gAcDGjRtx+/ZtxMXF4erVq5x6pzUVWJZFcnIyNm3ahFGjRmHsDEse7QAAETZJREFU2LHcfqO9E/uoTCENHIxGI3766Sd07doVYWFhTmczNGUKnQE9wzDYt28fvL29MWDAAKbNAOuFF15gNm3ahKSkJAwcOBCbNm3ijiqxLIvTp09j0qRJEIvFWLNmDeeL2RumP8y2I1TD0v07WuyspKQEWVlZ6N69u8vasvB9R2eARS3B7du3kZyczB31bzPAAoDFixczly9fxoABA/Daa69hwoQJePPNNzFt2jRER0ejpqYGX331Ffr27Yva2lqHVntLcVj8yJWaIvpbtJAIPe1MT+OMGjWKC0pc0S2MgtOZ76EJAOfOnYNer8eMGTNafJ4fyW5tVFQUAwArV64kH374IY4ePQoA+OMf/4hXX30VERERDkWCdMBdra0ooGyl+Go0Gty9exe5ubkoLS1FVVUVSkpKkJSUBEIIvvvuO6hUKkyfPp3LeXL0kKot59tZbccwDE6ePAlvb2+MHDnyozYJLCoffvghk5CQQJYsWYJr164hJCQEffv2RVlZmdNZlq4AFzVzNH8c+E/e+q+//orTp08jPz8fJSUlKC0t5U4oW8u1a9cwZ84crF+/Hn/5y18wb948LrCwt1sYNbV8bs6Z56OHVg4cOID+/ftDqVSuaNPAAoDo6GimsLCQLFiwABs2bEBxcTE2bNjA1UlwpICtK8hRfq/C/Px8/POf/8Tx48eRkJDQ6KTxi7VRcpc6y2lpaVi0aBG+//57LFmyBLNmzbLInuVrIv7JGvosVNuVlpYCAEe/2Bsd0iYOBw4cQFVVFZ555hmcOXMGj5XMnTuXACAvvfQSuX//PsnNzbW7HGROTg65f/8+aY7QkpXV1dXkgw8+sKibzjAMEQqFRCgUNqiVDgcaCYwfP57s2bOH1NTUNHkvly9fJtu3bycvvvgi8fDwIADI1q1bG9yvPc80d+5cIhaLye3btx9K7QG3O6c+Z84c8s9//hN//etfsXTpUlRWVtrll9Ba7vxCtY4I9X+uXbuGuXPn4sqVK82Oxqz9HL6GCgkJQWxsLCZOnMgVezMYDMjJycGpU6dw5coVlJSUWDSppMXYFixYgHfeeQd+fn4PNKtUA+r1enTp0gW9evXCiRMnGDyuMnr0aAKAfPvtt6SiosKu1iY5OTmktLS0WZpq3759RKFQcIVkm9JGcLKQrCPfKxQKuaK2/Ktbt24kPj7+gdqLdr44d+4cAUDWrVtH8DhLYWEh6dChAwkICCBXrlwhRUVFJCcnp1FQ5eXlkZycHFJWVuYwqGiF53379nEVklu6HQq/ejLLspyJZVmW+39qam19lg+0efPmkcrKSpvgov8/e/ZsAoDcuHHj8QYWABw5coQIBAISGxtLysrKWgRYdOB/++034unp+VB77MCFTaCioqJIcnKyxTPRMt/l5eUkICCAREdHP1RQCdwVWBMmTGAWL16MY8eOYe/evfDy8mrUz7EuzmZv9CcUClFYWIgZM2ZwRcxaKgfc1ULPGIpEIly5cgWjR4/Gzz//zD0DjRpTUlJQUlKC559/Hu3yXykrK3slPDycBAQEkPT0dFJQUNCo5nIkKqRt2YxGI3nmmWdalabCAxoAsCxLduzYQQghxGAwEEIIefbZZwnLsuTOnTvtZpAve/fuJQDIwoULiUajadSRz83NJcXFxXb1AaTm4v3337fo+NCaL37ni59//pkQQsidO3eISCRyaceJNiVjxowhAEhCQgK5f/++Ta1FG102xe3Q18+cOUPEYnGjTnJrBpePjw/Jzc0lO3fuJADIsWPHHjqwWgWnce3aNUKbDnz33XfQaDQ2GXaGYaBWqxtN9qO5XbW1tRg8eDAyMzMbdMBo7UKfZ/LkyaipqUFGRgYyMzPDfX19s9pVlA157rnnCACyZ8+eRqPEnJwcotPpmtRW8+bNa/V+VVN0Bv3vhQsXPhIz2GpY2Ly8PBIZGYlevXohPj6ey523jpQ8PT1t9oShzPqePXswc+bMFtFU/PuxrhzdWPTaUjUUaBnx69evo2vXrg99ngWtBVgdO3ZkFixYgMTEROzZs8dmLVLahdS6xgMFVWZmJv785z87nQHBL2/Nr1TMz5Xid6uglAA/l8u6nCO9b35FY1cITflxxTnENq2xAKC8vDymX79+x8ViMU6dOsXVm+JPhtlshq+vr0WzJTrBsbGxOHPmTJN8Fb9PNH+iHqThBAIBxGIxhEIhfH194e/vD4VCAZlMxu0T6vV6VFdXo7S0FGVlZVzHC1vfxe9R7YzQZ1y4cCE+//zzhz7PbGsClp+f34nNmzfj1Vdfxfbt2/HGG2+grKzMoroMwzCoqqqCXC7nupGyLIs33ngDZ86cAcuyDWqeWjccbyzjUyqVIiIiAqGhoVCpVFAqlQgICEDnzp0RFhaGkJAQyGQyrg2Kde11+t20fUp5eTkyMjKQlpaG3Nxc5OTkIDExEWVlZRYAaQ7AkpKS2jWWvRIZGUnu3r2Ls2fPIjAwEHV1dQ0mUCwWw8/PD2KxGDt37sRzzz1n0UDzQenCfn5+CAwMhFKpRIcOHTBkyBAMGjQIAQEBXH31FvQlceXKFezcuRPJycnIyspqEPE5Eh2q1WokJiaic+fOj29Wg71y4sQJAoA8//zzpKKigmRnZzeIEO/cuUNqampIcnIytw9ofYnFYuLv70/Cw8PJ9OnTyebNm8mBAwdIZmYmqa2tbZK5r6+vJ/X19cRoNBKTycS12+Vfttrx8i/6PUajscH7S0tLyc6dO8nAgQMbcFVwYLP7woUL7TyWvTJz5kzy448/4scff0RMTEyDuqYSiQRZWVl49tlnUVJSArlcjoiICERFRaFjx46IiIhA165dERISApVKZbNYm7UJstUnyJVi7dTzn+fgwYNYt24dLl68aLf2omZ/3759mDZtWrvGskfy8/OJQqEgkZGRJCsri+Tn53PZprm5uaSoqIgcP36cbN26lZw4cYLk5OQ0qYWoBqLa51ELvScqdXV1ZMuWLSQoKMguHo6+vmbNmvYtHUdk27ZtBAB5+eWXSVVVlcU+IgVXWVkZuXfvHjdBRqORGAwGC/Nl7yQ/SrDxt6qysrLIpEmTmkwcpMD6wx/+0A4sR2Xq1KkEANm+fTuprKwkd+7csQBXTk4Oyc7OJuXl5U6BQ6/XN+orPUoNVl9fT95880279g6feOKJdmA5KgUFBSQsLIz4+PiQCxcukJKSEgvNRZMAS0pKHJ5EQgiprKwkly5dInfv3iVardYtNJnJZOLSjj/77DPi5eXVIJWan2kaEhLS7rw7I6dPnyYxMTHo1q0b9u3bB39/f2i1Ws75pT2o1Wq1Q8fD6GGE3NxcpKSkwNvbm+ukpVKpGvSh4dMXLX3Unzr5AoEAY8aMQUJCAsfcU76Myvbt2/HSSy8x7cByQr7//nvy/PPPY/jw4fjmm2/g5eWF2tpai2gvMDDQ4TJHFFy3bt1CZmYmR7qKRCL4+/tzrYZ9fHwabYjUHLA1BlZ6Oufo0aOYMmUKevbsievXr3OvSyQSDBs2DEuXLkVcXBzTrrGaIevXrycrVqzAyJEjsW3bNiiVSlRXV3Ot6AICApzqHUPBdfXqVRQWFnKt8SiDLxAIIJf/p/O9l5cXPD094eXl1SiQ7Nl4buyz9EAt/Tto0CDcuXMHv//+O/79738jOTkZvXr1QlxcHPr06fPI5rfNcRt///vfybvvvouBAwdi69atCA8PR2VlJRiGgY+PT6NNNu0Rk8mES5cuoaKiwoLF5+9HCgQCiEQiiMVieHt7Q6VScV1RxWKxQxrTYDBAr9fDYDCguLgYZWVl6NevHxQKBRiGwa5duzB79mysXbsWq1atcqu5bJOk2ZYtW8iiRYugVCqxZcsWjB8/HpWVlZDJZAgICGjWd2u1Wly6dAk6na5Bf2uqZWgGA/0rFAotgEXLNonFYrAsa9Elje4j0nZ7BoMBtbW1kMvl6N27N9cktLq6Gk888QSEQiFSUlLG+fn5nWgH1kOQEydOkNmzZ6OkpARLlizB8uXLuf1DZx1rahIrKipw6dKlRivcWOdl8VNprDugNvY7/M3n0NBQdO/eHRKJhEsBWrlyJdatW4fdu3dj1qxZbjePbZrmz87OJq+99hri4+MRFxeHf/zjH1zPwOaCq7CwECkpKWBZ1qJYr62//N/iFy5pzNdiGAYGgwFSqRTdu3dHSEgIgP9f4OP69evo168fRo0ahYSEBLecw8di/2jp0qVkw4YNGDFiBPbv3w9fX1+H+jI3Bq7bt29zefP8CjH8i5+OQx1+g8HApfPwc6/o3/r6egQGBqJXr16Qy+UNQDpp0iQcOXIE6enp6NmzZzuwHqWsW7eOvPPOO4iLi+MOdjanKTmd7NLSUovSR9b9mK0pAr1ej5qaGmg0Gq5gm9lshkgkQn19PViWRbdu3bjCuPze2UKhENu2bcOCBQuwbNkyfPzxx+0by+4g7733HgFA5s6dy6WsPEoxmUyktLSUXLhwgcTHx5OLFy8SjUbTgNGne5p5eXlEpVKRyMjI9i0ad5P58+cTAOSjjz7i9tyasyXTVA7Wg97P32AuLi5uUHfBegN6ypQpBAA5depUO7DcUf5bIIMcO3bMYiIfxb6frQ1uW6DaunUrAUDeeuutdlC5qxQUFJCAgACiVqtJUlISqa6u5jZ1H9Xmsq3foveUlpZGxGIx6du3L6moqOjSPoNuLMePHycMw5C+ffuSo0ePkpMnT5IbN26QioqKRw4y/m/qdDry5JNPErFYTFJSUtq1VWuQ1atXEwBk+vTp5OTJk2TPnj3kl19+IWfOnCGpqamkurr6keVi0WoxixcvJgDI559/3qpA9diHq5MmTSIHDx7E3/72N0RHR3P7imazGSzLwt/fH76+vggKCoKPj49NyoGSmq4SSoR+//33eOGFFzBr1izs3r2baQdWK5K8vDwyYsQIlJaW4n//938RFhbG5XLRvCYKMl9fX6jVanh7e0OpVDYgWPmt8pzlxejnz549i9jYWHTp0gXp6emtbp7aCTYAFy9eJEOHDkVoaCg2bNgAhUIBvV7f4Pg8BZlQKOQqNAcGBsLDwwNyubxRJv9BaTLWIKyvr0diYiKmT5+O6upq/Prrrxg0aFA7sFqr0ETBQYMG4W9/+xsEAoFFq2E+CPggo0frPT094e3tzSX9Ufbdnm0jo9GIqqoqFBQUoKCgAG+//TauX7+OH3/8ETNnzmyVc9QOLJ6sXbuWrFq1CsOGDcPKlSu5zWBb7Uas6zoYjUaLNikSiQRisRgymQxSqRQSicQiw9RkMqGurg61tbWora2FVquFWCzGxo0bcezYMaxbtw7vvPNOq52fdmBZyfLly8lHH32EoUOHYtmyZfDx8YFer4fJZOIad9oqGmLdnYseJuVXmLEWvqn19fXF1q1bsWvXLsyfPx/btm1r1XPTDiwbsmrVKrJ27Vp0794ds2fPRlhYGJRKJZe5aTAYuP6E/BwrWyelrf/yAUY/6+3tjR9++AFffPEFpkyZgvj4+FY/L+3AakQ2bdpE3nrrLa7MkL+/PwYNGoROnTohNDSUKxpCnXbqk1HA8RP7rJ11mmIjEokgk8nw008/YePGjRg2bBjOnz/fJuakHVgPkLt375ITJ07g+PHjuHnzJlJTUy0KmUmlUnTp0gUDBgxAp06dOM7Lw8ODS0WmBdX4Tr/BYIBOp+MyUWnjz1OnTs339/f/oh1Yj5nk5uaSe/fuITc3F6dPn8aFCxdQXFyMoqIiC79JoVDA09MTHh4ekEqlEIlEXE4VzWGvqKiARqMBAAwePBjx8fEVarXar62MVTuwmikVFRVd0tPT7+Tl5aGwsBDFxcXIy8tDdnY2ioqKUFZWhpqaGg50Pj4+6NChA2g91Z49e2LGjBltbh7+HxWCV2vYK/SrAAAAAElFTkSuQmCC;" vertex="1" parent="1">
          <mxGeometry x="517" y="116" width="40" height="40" as="geometry" />
        </mxCell>
        <mxCell id="V3Jk48kscWsiEnofZRHU-8" value="" style="sketch=0;pointerEvents=1;shadow=0;dashed=0;html=1;strokeColor=none;fillColor=#505050;labelPosition=center;verticalLabelPosition=bottom;verticalAlign=top;outlineConnect=0;align=center;shape=mxgraph.office.servers.server_generic;" vertex="1" parent="1">
          <mxGeometry x="480" y="110" width="27" height="52" as="geometry" />
        </mxCell>
        <mxCell id="V3Jk48kscWsiEnofZRHU-10" value="" style="sketch=0;pointerEvents=1;shadow=0;dashed=0;html=1;strokeColor=none;fillColor=#505050;labelPosition=center;verticalLabelPosition=bottom;verticalAlign=top;outlineConnect=0;align=center;shape=mxgraph.office.servers.server_generic;" vertex="1" parent="1">
          <mxGeometry x="480" y="270" width="27" height="52" as="geometry" />
        </mxCell>
        <mxCell id="V3Jk48kscWsiEnofZRHU-11" value="" style="sketch=0;pointerEvents=1;shadow=0;dashed=0;html=1;strokeColor=none;fillColor=#505050;labelPosition=center;verticalLabelPosition=bottom;outlineConnect=0;verticalAlign=top;align=center;shape=mxgraph.office.clouds.cloud;" vertex="1" parent="1">
          <mxGeometry x="270" y="186" width="100" height="60" as="geometry" />
        </mxCell>
        <mxCell id="V3Jk48kscWsiEnofZRHU-22" value="" style="endArrow=classic;html=1;rounded=0;startArrow=classic;startFill=1;" edge="1" parent="1" source="V3Jk48kscWsiEnofZRHU-3" target="V3Jk48kscWsiEnofZRHU-11">
          <mxGeometry width="50" height="50" relative="1" as="geometry">
            <mxPoint x="230" y="340" as="sourcePoint" />
            <mxPoint x="280" y="290" as="targetPoint" />
          </mxGeometry>
        </mxCell>
        <mxCell id="V3Jk48kscWsiEnofZRHU-23" value="" style="endArrow=classic;html=1;rounded=0;startArrow=classic;startFill=1;" edge="1" parent="1" source="V3Jk48kscWsiEnofZRHU-8" target="V3Jk48kscWsiEnofZRHU-11">
          <mxGeometry width="50" height="50" relative="1" as="geometry">
            <mxPoint x="640" y="200" as="sourcePoint" />
            <mxPoint x="690" y="150" as="targetPoint" />
          </mxGeometry>
        </mxCell>
        <mxCell id="V3Jk48kscWsiEnofZRHU-24" value="" style="endArrow=classic;html=1;rounded=0;startArrow=classic;startFill=1;endSize=6;" edge="1" parent="1" source="V3Jk48kscWsiEnofZRHU-11" target="V3Jk48kscWsiEnofZRHU-10">
          <mxGeometry width="50" height="50" relative="1" as="geometry">
            <mxPoint x="640" y="280" as="sourcePoint" />
            <mxPoint x="690" y="230" as="targetPoint" />
          </mxGeometry>
        </mxCell>
        <mxCell id="V3Jk48kscWsiEnofZRHU-27" value="" style="sketch=0;pointerEvents=1;shadow=0;dashed=0;html=1;strokeColor=none;fillColor=#505050;labelPosition=center;verticalLabelPosition=bottom;verticalAlign=top;outlineConnect=0;align=center;shape=mxgraph.office.servers.server_generic;" vertex="1" parent="1">
          <mxGeometry x="480" y="190" width="27" height="52" as="geometry" />
        </mxCell>
        <mxCell id="V3Jk48kscWsiEnofZRHU-28" value="" style="endArrow=classic;startArrow=classic;html=1;rounded=0;" edge="1" parent="1" source="V3Jk48kscWsiEnofZRHU-11" target="V3Jk48kscWsiEnofZRHU-27">
          <mxGeometry width="50" height="50" relative="1" as="geometry">
            <mxPoint x="420" y="260" as="sourcePoint" />
            <mxPoint x="470" y="210" as="targetPoint" />
          </mxGeometry>
        </mxCell>
        <mxCell id="V3Jk48kscWsiEnofZRHU-29" value="" style="shape=image;verticalLabelPosition=bottom;labelBackgroundColor=default;verticalAlign=top;aspect=fixed;imageAspect=0;image=data:image/png,iVBORw0KGgoAAAANSUhEUgAAAJYAAACWCAYAAAA8AXHiAAAD9ElEQVR42u3dv47jVBiG8fccJ5mZOOvAthSAQLNoBUJampUQdBTcAgWiAwmBQNwBd0FFz58CCjTabZDgLhAFBRSUq0wcOz7fofDOiIYCNmjOFz8/afrx8RPHznw5E87v3c8CDiyyBCAsEBYICyAsEBYICyAsEBYICyAsEBYICyAsEBYICyAsEBYICyAsEBYICyAsEBYICyAsEBYIC/jPZsUWH6N2basX7r6kdz56X/t+rxDCpE9WNtNZvdSDb77TTz880HJVy8wI698vZNbJcqnn75yr63aKEw8rDabVutH69lNjUAUvx8zDq7Rrd+q7bvJXLDNT17YahoG3wkMIMYw/Ew8r5KAQo4t14OYdhAXCAmEBhAXCAmEBhAXCAmEBhIXizaZ0sDln979/zlnKhFXOpTlGxSq6OCn/xKJpvpiPx0FYNy+EoHbbqt1sFKLfd39Lpna7VXu5LX7C4ejDspRUN41+vnior7/4UnXTyFJy/SIZ9nudLc9kyQjrZk+GNOwHtdtW1XzuOqyruLhiFXQyqqpSVVXyPi7o4SFkck+F109W+H8fllgCEBYIC4QFEBYIC4QFEBYIC4QFEBYIC5PEH6Ed8rCN0bTGZmaPx2a8zs1kSWHc6bD0F8fRhxVjVLtt9dqbr+vOqy8rxEpeB98tmZarWhdffasfv79gD9IbvlQpm2m1vqX17aelnOV10s8GU71uVDe32IO0nJOSlAbfI8mWTPOukzk4juncvIfgfiT5etadPUgxVYQFwgJhgbAAwgJhgbAAwgJhgbCAQ3Lxt8Jj2iFmKv9zcebhRMwXC+Wc3Z+UbKbkfNO3owgrhKB93+vP3//Qvu9dh2U56/TsVKummcT+XMWGZWZanJ7ot19+1ecffOL7RjZGXW42euPtt/TeZx/rcrNRjJGwbvgGS8nM9SLnnJWGpOz8OI7u5t37vZWnAT0+bgBhgbAAwgJhgbAAwgJhgbAAwgJhgbAAwgJhgbAAwgJhYQKKnSCNMWq3bfXiK3f17qcfjl+m8LrZYxhn+Jd1rd1ud/Tz7kWHJY2z4ovTEz3z3LPqu879iLKZKQ0DV6wi4rKsvuuOIiyJL6wWdzKuv5AAbt5BWABhgbBAWABhgbBAWABhgbBAWMAhsGuyI9fr4GAt2DXZEUum+WKhWFWE9aRRXe2a3DvfNflQYS0fPdJ2syl+LcL5vfu59Lhm85l4J7xaDykNSVb4RrnlD/rlrH7XSWIW6/GKSA5m03wM+lXVuKCTjyuPD/LcvB/ssvW3heWK5QGfY4GwQFggLICwQFggLICwQFggLICwQFggLICwQFggLICwQFggLICwQFggLICwQFggLOCJ/AU6RkjbVUfhEAAAAABJRU5ErkJggg==;" vertex="1" parent="1">
          <mxGeometry x="520" y="196" width="40" height="40" as="geometry" />
        </mxCell>
        <mxCell id="V3Jk48kscWsiEnofZRHU-30" value="" style="rounded=0;whiteSpace=wrap;html=1;fillColor=none;strokeColor=none;" vertex="1" parent="1">
          <mxGeometry x="40" y="440" width="600" height="360" as="geometry" />
        </mxCell>
        <mxCell id="V3Jk48kscWsiEnofZRHU-31" value="" style="sketch=0;pointerEvents=1;shadow=0;dashed=0;html=1;strokeColor=none;fillColor=#505050;labelPosition=center;verticalLabelPosition=bottom;verticalAlign=top;outlineConnect=0;align=center;shape=mxgraph.office.servers.server_generic;" vertex="1" parent="1">
          <mxGeometry x="173" y="590" width="27" height="52" as="geometry" />
        </mxCell>
        <mxCell id="V3Jk48kscWsiEnofZRHU-32" value="" style="shape=image;verticalLabelPosition=bottom;labelBackgroundColor=default;verticalAlign=top;aspect=fixed;imageAspect=0;image=data:image/png,iVBORw0KGgoAAAANSUhEUgAAAJYAAACWCAYAAAA8AXHiAAAA0GVYSWZJSSoACAAAAAoAAAEEAAEAAACWAAAAAQEEAAEAAACWAAAAAgEDAAMAAACGAAAAEgEDAAEAAAABAAAAGgEFAAEAAACMAAAAGwEFAAEAAACUAAAAKAEDAAEAAAACAAAAMQECAA0AAACcAAAAMgECABQAAACqAAAAaYcEAAEAAAC+AAAAAAAAAAgACAAIAEgAAAABAAAASAAAAAEAAABHSU1QIDIuMTAuMzQAADIwMjM6MTA6MDggMTY6MzE6MzMAAQABoAMAAQAAAAEAAAAAAAAA310CwgAAAYVpQ0NQSUNDIHByb2ZpbGUAAHicfZE9SMNAHMVfW6WltDjYQcQhQ/0Y7KIijlqFIlQItUKrDiaXfkGThiTFxVFwLTj4sVh1cHHW1cFVEAQ/QFxdnBRdpMT/JYUWMR4c9+PdvcfdO8DfrDLV7JkFVM0yMqmkkMuvCsFXhBFCFGMYlZipz4liGp7j6x4+vt4leJb3uT9HVCmYDPAJxLNMNyziDeLpTUvnvE8cY2VJIT4nHjfogsSPXJddfuNcctjPM2NGNjNPHCMWSl0sdzErGyrxFHFcUTXK9+dcVjhvcVardda+J39hpKCtLHOd5hBSWMQSRAiQUUcFVVhI0KqRYiJD+0kP/6DjF8klk6sCRo4F1KBCcvzgf/C7W7M4OeEmRZJA74ttfwwDwV2g1bDt72Pbbp0AgWfgSuv4a01g5pP0RkeLHwF928DFdUeT94DLHWDgSZcMyZECNP3FIvB+Rt+UB/pvgfCa21t7H6cPQJa6St8AB4fASImy1z3eHeru7d8z7f5+AK3ecr4DKaXQAAANeGlUWHRYTUw6Y29tLmFkb2JlLnhtcAAAAAAAPD94cGFja2V0IGJlZ2luPSLvu78iIGlkPSJXNU0wTXBDZWhpSHpyZVN6TlRjemtjOWQiPz4KPHg6eG1wbWV0YSB4bWxuczp4PSJhZG9iZTpuczptZXRhLyIgeDp4bXB0az0iWE1QIENvcmUgNC40LjAtRXhpdjIiPgogPHJkZjpSREYgeG1sbnM6cmRmPSJodHRwOi8vd3d3LnczLm9yZy8xOTk5LzAyLzIyLXJkZi1zeW50YXgtbnMjIj4KICA8cmRmOkRlc2NyaXB0aW9uIHJkZjphYm91dD0iIgogICAgeG1sbnM6eG1wTU09Imh0dHA6Ly9ucy5hZG9iZS5jb20veGFwLzEuMC9tbS8iCiAgICB4bWxuczpzdEV2dD0iaHR0cDovL25zLmFkb2JlLmNvbS94YXAvMS4wL3NUeXBlL1Jlc291cmNlRXZlbnQjIgogICAgeG1sbnM6ZGM9Imh0dHA6Ly9wdXJsLm9yZy9kYy9lbGVtZW50cy8xLjEvIgogICAgeG1sbnM6R0lNUD0iaHR0cDovL3d3dy5naW1wLm9yZy94bXAvIgogICAgeG1sbnM6dGlmZj0iaHR0cDovL25zLmFkb2JlLmNvbS90aWZmLzEuMC8iCiAgICB4bWxuczp4bXA9Imh0dHA6Ly9ucy5hZG9iZS5jb20veGFwLzEuMC8iCiAgIHhtcE1NOkRvY3VtZW50SUQ9ImdpbXA6ZG9jaWQ6Z2ltcDpjMjNmMDk0Yi02NmQ3LTQyY2EtOWVlYi00YTI2ZDdlZTM5NzIiCiAgIHhtcE1NOkluc3RhbmNlSUQ9InhtcC5paWQ6YTA0ZDlkZDMtODhiZi00ZGM4LWI1NjgtNDE1Njg1YjhhMDE1IgogICB4bXBNTTpPcmlnaW5hbERvY3VtZW50SUQ9InhtcC5kaWQ6ZWNjYTkxZDEtODMxNC00NmU4LWFjOTUtMWRiYmZjN2VlNjU1IgogICBkYzpGb3JtYXQ9ImltYWdlL3BuZyIKICAgR0lNUDpBUEk9IjIuMCIKICAgR0lNUDpQbGF0Zm9ybT0iTGludXgiCiAgIEdJTVA6VGltZVN0YW1wPSIxNjk2Nzc1NDk1MTgyNjkzIgogICBHSU1QOlZlcnNpb249IjIuMTAuMzQiCiAgIHRpZmY6T3JpZW50YXRpb249IjEiCiAgIHhtcDpDcmVhdG9yVG9vbD0iR0lNUCAyLjEwIgogICB4bXA6TWV0YWRhdGFEYXRlPSIyMDIzOjEwOjA4VDE2OjMxOjMzKzAyOjAwIgogICB4bXA6TW9kaWZ5RGF0ZT0iMjAyMzoxMDowOFQxNjozMTozMyswMjowMCI+CiAgIDx4bXBNTTpIaXN0b3J5PgogICAgPHJkZjpTZXE+CiAgICAgPHJkZjpsaQogICAgICBzdEV2dDphY3Rpb249InNhdmVkIgogICAgICBzdEV2dDpjaGFuZ2VkPSIvIgogICAgICBzdEV2dDppbnN0YW5jZUlEPSJ4bXAuaWlkOjVkMzhlN2IwLTFmMTktNDY0MS04NzVhLWUzMTIzZGIxZjk1MiIKICAgICAgc3RFdnQ6c29mdHdhcmVBZ2VudD0iR2ltcCAyLjEwIChMaW51eCkiCiAgICAgIHN0RXZ0OndoZW49IjIwMjMtMTAtMDhUMTY6MzE6MzUrMDI6MDAiLz4KICAgIDwvcmRmOlNlcT4KICAgPC94bXBNTTpIaXN0b3J5PgogIDwvcmRmOkRlc2NyaXB0aW9uPgogPC9yZGY6UkRGPgo8L3g6eG1wbWV0YT4KICAgICAgICAgICAgICAgICAgICAgICAgICAgICAgICAgICAgICAgICAgICAgICAgICAgICAgICAgICAgICAgICAgICAgICAgICAgICAgICAgICAgICAgICAgICAgICAgICAgIAogICAgICAgICAgICAgICAgICAgICAgICAgICAgICAgICAgICAgICAgICAgICAgICAgICAgICAgICAgICAgICAgICAgICAgICAgICAgICAgICAgICAgICAgICAgICAgICAgICAgCiAgICAgICAgICAgICAgICAgICAgICAgICAgICAgICAgICAgICAgICAgICAgICAgICAgICAgICAgICAgICAgICAgICAgICAgICAgICAgICAgICAgICAgICAgICAgICAgICAgICAKICAgICAgICAgICAgICAgICAgICAgICAgICAgICAgICAgICAgICAgICAgICAgICAgICAgICAgICAgICAgICAgICAgICAgICAgICAgICAgICAgICAgICAgICAgICAgICAgICAgIAogICAgICAgICAgICAgICAgICAgICAgICAgICAgICAgICAgICAgICAgICAgICAgICAgICAgICAgICAgICAgICAgICAgICAgICAgICAgICAgICAgICAgICAgICAgICAgICAgICAgCiAgICAgICAgICAgICAgICAgICAgICAgICAgICAgICAgICAgICAgICAgICAgICAgICAgICAgICAgICAgICAgICAgICAgICAgICAgICAgICAgICAgICAgICAgICAgICAgICAgICAKICAgICAgICAgICAgICAgICAgICAgICAgICAgICAgICAgICAgICAgICAgICAgICAgICAgICAgICAgICAgICAgICAgICAgICAgICAgICAgICAgICAgICAgICAgICAgICAgICAgIAogICAgICAgICAgICAgICAgICAgICAgICAgICAgICAgICAgICAgICAgICAgICAgICAgICAgICAgICAgICAgICAgICAgICAgICAgICAgICAgICAgICAgICAgICAgICAgICAgICAgCiAgICAgICAgICAgICAgICAgICAgICAgICAgICAgICAgICAgICAgICAgICAgICAgICAgICAgICAgICAgICAgICAgICAgICAgICAgICAgICAgICAgICAgICAgICAgICAgICAgICAKICAgICAgICAgICAgICAgICAgICAgICAgICAgICAgICAgICAgICAgICAgICAgICAgICAgICAgICAgICAgICAgICAgICAgICAgICAgICAgICAgICAgICAgICAgICAgICAgICAgIAogICAgICAgICAgICAgICAgICAgICAgICAgICAgICAgICAgICAgICAgICAgICAgICAgICAgICAgICAgICAgICAgICAgICAgICAgICAgICAgICAgICAgICAgICAgICAgICAgICAgCiAgICAgICAgICAgICAgICAgICAgICAgICAgICAgICAgICAgICAgICAgICAgICAgICAgICAgICAgICAgICAgICAgICAgICAgICAgICAgICAgICAgICAgICAgICAgICAgICAgICAKICAgICAgICAgICAgICAgICAgICAgICAgICAgICAgICAgICAgICAgICAgICAgICAgICAgICAgICAgICAgICAgICAgICAgICAgICAgICAgICAgICAgICAgICAgICAgICAgICAgIAogICAgICAgICAgICAgICAgICAgICAgICAgICAgICAgICAgICAgICAgICAgICAgICAgICAgICAgICAgICAgICAgICAgICAgICAgICAgICAgICAgICAgICAgICAgICAgICAgICAgCiAgICAgICAgICAgICAgICAgICAgICAgICAgICAgICAgICAgICAgICAgICAgICAgICAgICAgICAgICAgICAgICAgICAgICAgICAgICAgICAgICAgICAgICAgICAgICAgICAgICAKICAgICAgICAgICAgICAgICAgICAgICAgICAgICAgICAgICAgICAgICAgICAgICAgICAgICAgICAgICAgICAgICAgICAgICAgICAgICAgICAgICAgICAgICAgICAgICAgICAgIAogICAgICAgICAgICAgICAgICAgICAgICAgICAgICAgICAgICAgICAgICAgICAgICAgICAgICAgICAgICAgICAgICAgICAgICAgICAgICAgICAgICAgICAgICAgICAgICAgICAgCiAgICAgICAgICAgICAgICAgICAgICAgICAgICAgICAgICAgICAgICAgICAgICAgICAgICAgICAgICAgICAgICAgICAgICAgICAgICAgICAgICAgICAgICAgICAgICAgICAgICAKICAgICAgICAgICAgICAgICAgICAgICAgICAgICAgICAgICAgICAgICAgICAgICAgICAgICAgICAgICAgICAgICAgICAgICAgICAgICAgICAgICAgICAgICAgICAgICAgICAgIAogICAgICAgICAgICAgICAgICAgICAgICAgICAgICAgICAgICAgICAgICAgICAgICAgICAgICAgICAgICAgICAgICAgICAgICAgICAgICAgICAgICAgICAgICAgICAgICAgICAgCiAgICAgICAgICAgICAgICAgICAgICAgICAgIAo8P3hwYWNrZXQgZW5kPSJ3Ij8+xteEJAAAAAlwSFlzAAALEwAACxMBAJqcGAAAAAd0SU1FB+cKCA4fIy0y4zIAAAhxSURBVHja7Z1PjtxEFMbfK/eE7GCJ6FlMJGbFDUBCcRRzg74DWYUoOcBcYARZwRmYG8Sj8QgpG3Ys2CFlFtMLNghWISR2sehyx+20u9122a5X9X3SSFGUP66qn7/36rn+MHkoTcREZ+aHCibS9T9zGyd6jGc5zlLe/nykVr8kve35pIs9A0qZRhVTQNRGr7NXd0/pjzfbntsnyNgTmJiJ8vL3fiaKvoyTdxKef56ls+qzN70cAGu0UEeqNiCzZZy8lf2W6PPj68tnlTZFTaEcYNkHiqtvs0thbqjczLiYqDDJEoHyFaZ9kEkCjAEUAAsGLAAlHzB2EKqoTMoBVFvAFhHTRQ6wmssGmok0gDpIN8dZem/bxCZ4sPSqdICwZyk8ugAXTw0UXMo+YC64l5o4lyoAlV2VfclEhSmwhuFY1bcJQI3iXpPMHHlkqJBLBZJ78dhQ/U5f3Pk4/uwNhnwa9xoLLh4JqoiJcriUE3BF1Y/3YsECVGHCxQNDpZCkhxkWGVCFPmPUmomtj5ECVGHqNk70yrF4EHNhQAXnGiIsMqCChoCLARU0BFzKElQRoPIj57L1fZEtQAWngnPZBQtQAS7rYOnVPBVLXvyGi7uuilBdoSIiBlT+6hWd3CWictHgWMn7QknfAg7t1lF8+tqMcSewDv5L5Y4QuBXyLWtgIVkHXNZDYRlrM6IZujoslbWtQ/ItPuAfh1vBtVq7FgMqaAi4VAuozGL8M4WuDT4kqrYhsQ0szETFMn6Zo2vD1jJO8rYlCG7jVss4Qc0KWmuepeVxlrqrY7GPJ/pC/WSY4E6OVe6ghVtBO1yr8XwI1YJMCDqYDYXygkjdTP0AlYWBWxkSUUWfX714PzN58E2YoWezD04EOJrbblXt0K1TYE9Bk9LupqKp8461fPDNzk72yc32wSSpnbNNt9LMxMXy6wffag8GxvUBaAuSy7q9//B7vr58sjMU6gVFfOHWAR62Ot8VyGy0x7UXZttBI5uh8MK9VaH7QqHzbqb1+TxLnwYwvyi2OpbDJYab+dWLk6HhlRTilvcfPiKlfnTQtdZJvIRyw+BT695uNrYrOQZVY/JeJu1YHboJ2j7AKkA+Db3PNNGMidZ3RJqq6eoom1Pp9/1B0+XChp2yEo/Fe9Aw0dpk8IWmRYTugHqGw3XyrkrrWsZ/v0PXQD3DYV4Cpsizm+whJ8SKsFUesq9CMZHWRHectthAl8pI7AtNdIeJtMmvElxBAtnKs96sZ4V4U9EHg5QbIChosEJ2LWltV69O6C46GG22qds40eroXvIaHY222tZMeof7sLzXx5dn5ssA+AKYL2488+0NlwqYb+Hdu4V91QFyHTKfc0WvV4y6CFkoE49gliJPCVmIJZIg17jXB9o2aPj8hM0T1twMMG3K/ftwalurcNoM0TJOzonZ6Z1B7jtWrQNDOtKo0T0dh0p8KJR2CEhnkBAK3elwKZD5mtM5DxZOm5H50njrWC4NTIjljCDLDUPnZr6uuIBjje0GWj+fZ+njMfvEdddCgXQHxAecNgOoasJmCghgQWvdACxoCJ0ALAihEIIAFgSwoADBOs5SHLwGWdVxljIcC0IohAAWBLCI5ln6EboCsgqWXl1L8R+6ArKVuGsinhnXyn1s5ND7B6U/z5CGNaM919z7CtpYgxrodjU9K6+omGefzEK6nWIo9wh54+o8SyOi1RU65lo5UkwX+S0lzkIw+OWSPdxsTJhcBnd1J9PqPh2sIO0xeNhWv6fc8D4cpkfoEqhjGDyqsrQukBoLww1gUNcw+E5XeELlHRouFFYSL3Z1tQPyGXf7oCyKcuUmuU3HWsDBoP4m9SFYF7ogIuI8f4R+glpJ6x9MxMsbwWJirYnU/JernxAK0PZWYfD68onekqt7Hfpc/hbn+/kOasu0sdAOL1nGJU3OJe2Kt1z/jGQd6p5ekebWjgXXQlvbuhURMzdcVq92E0ksvcMl5zIuv0D72GgEy5DILm8PW8bJua+TCpfbZphodKs2OZZ22bUkHEvtW9v+/eufTw0TupNjGdfSzrtWi3DhUjhs5VYOh8DPf/v1T+NWO8Fqsx5LayJF2VfRMn6ZuwzXnkG7IceP/3F9UjLP0sgUQ/cuZ99bbijJZDorJCe786sXk0O1C3wRR2ybnIpbgNU6xJWFMAmH4dbv33FhAJugknAvTpmwNxVD+4LFRMTXROo0Tt5Knn25cs67mNszsrTczaW55a6ug5JyUa61Z2DHGtQp/++p3OpgsFZwLSKmi1waXGMPsg9AdYWqE1iSnWvXwNsa9A/+3Th5TsyPJfZRV6j6gMVExMs48WJrfu9LJuuXdQpJyNuUFw7Jq3qDVcLFRFqya/V1sWrh2Kd+qLgVc8cjGHpV1H0IiZDdEGgFLMAFqJrUe6GfWbsV4ZBcb6CK+kJlxbHgXHCqQcECXIBqMLAAF6AaDCzABaisJO87EnrceiEAqtVyO/sabPsX4HIdqkXERAUT64HGf1iZ6WuOsOhcSWHQz3GjuAngCguqQUNhjd58HRa1PscQT5qo5yON+XiqzkDgXuMBVe9778AyDVxvdgRcY838ui19EQVWPe+Ce9nXPEsVr+oIEU90nc1kp82s8q4zpR3fECs89OUTju/0Qu4lN5dyzrFqdBfaXHFnOugGqBycS7ErUDnjWMi9+rrUaueUS8/mZG5TnTkCsN1hb4oZn1iwAJhcoESABcCISOvnx9eX30kBShRYTYD5DFm1BCMJKJFg1QDbqNNootlSyGElO9zp/Pj68ll1IkNEBQu8Xll8YdK8zVyDLFrGiYgr8uZZOtt89kVEdKFdKRsEC9YWyKg+KK6Fy/qXhhImaeEuGLA2Q+WZ+dkeSsaCbdvnqjKU04FnTknS/4Osaxsssl71AAAAAElFTkSuQmCC;" vertex="1" parent="1">
          <mxGeometry x="120" y="596" width="40" height="40" as="geometry" />
        </mxCell>
        <mxCell id="V3Jk48kscWsiEnofZRHU-33" value="" style="shape=image;verticalLabelPosition=bottom;labelBackgroundColor=default;verticalAlign=top;aspect=fixed;imageAspect=0;image=data:image/png,iVBORw0KGgoAAAANSUhEUgAAAJYAAACWCAYAAAA8AXHiAAAQ4UlEQVR42u2de1SU9brHP3NBEAUlQ1IREDXdopiogZdirdKNprnzmqc0lTLt4uWclmxZtk0z107THaiRu86Gji5Nbeva3lbGUUtENNtb2js9goZiSkMKG8dEQME5f7yv4wwMOjMMyMw8n7WeBXN533fm+X3n+V3e3+/5afBeNEAXoCsQbmHtahmAH9BS/b8CqARMwL+BUgu7ABSqfwvU/03e6lxvQAv8BhgEDASigSggoJGv+ytwEvgB+A7IAU57g9g8WVg9gBHAb4HBQNtm8rnKVIFlAvuAMwjNPioNAVKBc2pUcAcrAFLUz66RYmw+9AH+BFx0IzHVZz+p36W3FOuDwR9IBI56gJjqsxxghvpdhUYmBFgClHiwoGqbUa3eQ6X4XU8X4C8W3XxvtErgUyBC5NBwOqu/Vm8WVG27CWwAIkUejtNKrfIqREj1WpX6owsUudg3rpYIGEQ4dtvPaiNfhirqoRtwQITitGWj3F0QVPTA29KOcolVAItUn3o1EeovTUThWjsOdPdWUc1AuUkrQmgcuwZM8yZB+arjMVL4TWMbvGH0vjPwrRR2k9sJdZDZIxkMXJFCfmB2GWU+mkcxHrghhdssbgv9h6eI6i3gthRqs7EaYL67i+r3UpDN1t53V1G9K4XX7G2lu90K+qMUmtvYh+4iqiVSWG5nf3CHhroUlHtas23QT1R7HFJI7mm3m+NQxECgXArHI2ZHDHaFIFzRIwgH/g48jOAJXAEGoCxFcxptAz+EH/BXEZVHEQzs5G6uigcirI9UdQuexWPAnx/UxWdIm8Tj7aWmbmNFAt/T+NlahAfLdSAGONsUVaEe2CSi8gpaq2Xt4+iBOicultyQECm4HZ3UYYjsxqwKHwX+qfYGBe+hCuiHkjTO5VWhFvhvEZVX4gt87EggckRY04EnxMdeS7wjTSB7FRgA5AMdxL9ezS9qc+iaqxrv76Lk8xSkl2gCDroiYoWp0UraVgIoCzK6A5caGrE+AGLFn4KKHmUB7N6GRKwINVq1EH8KFtwCeqJkp3aqV/gHEZVgAx+UgXKnIlYIypYd0rYSbFGFsmzf4GjEmieiEu6BL/CGoxGrFcoMwofEf8I9+DdKopcb9kas50VUgh08pGrF7qpwpvhMsJNX7K0K+wD/En8JDtAbOHW/iDVD/CQ4yPT7RSyNOsQQJr4SHOAiyjJAU30Ra4iISnCCzkCc5RO184FPdOXVwsLCeOSRRxw+7urVq5w54/qNRx977DFatHD8RsK5c+coKSlRHKbX8+KLLzp1/b1795rP44FMQtnmz6awRrvySh07diQ6OtrxuHrxYqMIKyoqilatWjl8nNFoNAvCx8eHCRMmOHX9Y8eOebKwfgf8p62qsAeyo5TgPF1Qtq2pI6yR4huhgYywJazh4hehgfy2trA0eGAOcKHJGXpHU3eEFQUEiV+EBhKkttXNwhosPhFcxGBLYfUXfwguYoClsKLFH4KL6HNHWBq1jSUIrqA3oNGirMSRlESCq2gDdNZiMVoqCC6i652IJQiuJEKPMo/GKyguLqZlS8eTAd+4cUOk4hjhepS5NF7BgQMHpMibSFhalLzeguBKHtYiyf+FRhCWHmjX3D9l//79efhhx/VfWFhIfn6++XF8fDx+fo4v7j558iRFRUUu/U6dOnUiMTHRqWNXrFjBzZs3AWVW7LPPPuvwOYxGI2vWrGmsImunxw3GsEJCQggNDXXKeZaEhoY6NYO0sLDQ5d+pdevWPP74404dq9PdzT4VHBzs1HkaeSZrGy3KGnxBcCUttEiaIkGEJbgJvlrxgdAYaIGb4gbBxVSJsITG4KYWJeWfILg8Yl0TPwguxqgFSsQPgosp0QKl4gfBxZRKxBIaTVg/iR8EF3NBD1xorLMXFxdb3TC1l7KyMqvHhYWFdW4o23t9S/Lz8/H19W3Q56murmbPnj1O+cPyPGVlZU6fp7q62vz/Tz/95NR5rl+/3qjC0qAkA8mUH5ngQp7SAj+KHwQXU6BBWbB6FQgUfwguwAgE6VEy3Z6iGacxio+Pp0MHx3cNzsvL4/vvvzc/XrRoEeHh4Zw+fZoPP/zQ5jFRUVHMmzcPgNWrV1vNQL0f/fv3Z9u2bQC88MILfPvtt3YdFxYWxty5c3nyyScJCAjAYDBw4MAB0tPTMRgM7iask4DpTg7SfzVnYbVq1YrAQMcDau1pyOPHj6dfv34cPHiwXmGFhYUxc6ayMceWLVscEpafnx+RkUq2TXuXmQ0dOpS9e/eSn5/Ptm3b+OWXX+jWrRtTpkwhOTmZ5ORk1q5d607C+gHuJrf9h0Twpkev17Np0yZ27drFSy+9hMlkTpPOu+++y5tvvsmsWbNIT0+nvLzcXb7Wd5bCypFivjc6nY5BgwYRERFBSUkJWVlZ3Lhxgw4dOtCyZUsqKyttHte9e3diYmKorq7m6NGj/Pzzz1ZVZ1hYGMuWLbMSFUBNTQ2pqamkpaVx69Ytq9d8fHwYMmQIoaGhlJaWcvjw4XsOH0RGRhITE4OPjw8nTpxwKAo7wRFLYf0fyhZhsuOXDeLi4tiwYQPdu3e/20I1Gpk7dy5Tpkxh+PDhHDp0iEWLFplfDwgIYOvWrUyaNMlKLGlpabz11lvcunXLXF3ea6yvtqjGjRvH2rVrCQoK4uzZs7Rt25agoCCSkpJYv3691XtDQ0P55JNPSEhIIC8vj5qaGnr16sWhQ4d45ZVXOH/+vKtdVQqcgbv5sUxYJH8X7tKjRw8yMzPNoioqKiInJweTyURGRgYxMTE2j1u3bh2TJk3iwoULHD9+nIqKCnQ6HXPmzOHjjz9W6ozvvqO0tJSNGzfSs2fP+36WyZMn8/nnn5OamkpgYCB9+/YlPDyc6dOns3z5cmbMuLsNUseOHcnJyUGv19O1a1eioqKIjo6mc+fOGI1G4uPjGytamSyFBfC/3iKWoUOHUlxcbNM2bdpk9d6lS5cSEKCskEtKSqJz587mamjLli20a2d7WWZoaCiJiYlEREQQGxtLZGQkR44cAeDll1+mX79+lJeXM378eIKDgzl16hRff/01CxYsICqqbrqyNm3akJaWxttvv83KlSutRt937NjB66+/zsqVK80dltTUVC5fvszo0aOtlq8ZDAbGjRvHZ5991hiuNWvIUlj7vEVYLVq0ICQkxKYFBd3N8avRaHjmmWcAOHz4MB988IG5LVReXs6rr75a762mzZs3k5GRYX5cXFzM1KlTzVXbxInK7jKHDh3i0UcfZebMmVy7do133nmHkydPUlBQwKxZs9DrldbK2LFj0el0pKSk2Lzetm3bMJlMPPXUUwQHBzN27FiWLl1qXtjaRJg1ZLnlST7KdvcevztFfn5+vauAe/XqxRtvvGEePrgTrU6cOFHnveXl5Zw+fZq4uLg6r2Vm1r1Ldv78ec6cOUNUVJRV1VdVVUV6ejrp6en4+vryxBNPMG3aNNatW8f48eMZOXIk0dHRGI1Gli1bVu/3qqyspG/fvlRVVaHT6cjKympKt57D4i5O7b10dqNsMu7RFBUVkZaWZvO1kSNHmoVVWVlJVVUVvr6+dOnSpc57tVotERER9RayLSoqKsw9O1tUVVWxf/9+9u/fz9atW9m9ezfjxo1Dp9Oh0WisImptvvzyS/Lz883nbuJotdNqKKXWi194g7DsxWQykZWVxfDhwxk1ahTDhg1j//795tcXLlxY7+5msbGxfPHFF1bPtW3bll69epmj1/3Ys2cP586do3fv3uTn56PX65k9e3adoYna3BF7v379yMlpspGkrVY/ulov5iDzs6x47733qKmpQafTsW/fPnbu3ElKSgo5OTksX77cqhFtyWuvvWbVY9Tr9aSkpODv7w8oW8xFR0czaFD9Nzz8/PwIDg7GYDCwY8cO2rRpw+TJk+/7mQsLCzly5AgLFixoKjddBI7fS1gm4K8ip7tkZWUxc+ZM83DBmDFjmDdvHnFxcaSkpPDNN9/U3/c+coQtW7awZs0acnNzmTZtmvmcmZmZTJ06lYMHD7J48eI6t6wCAwPJyMigurqa7du3U1xczOLFi/noo49ISEioUyXPmDGDhQsXmp+bM2cOCQkJrFixwqra1Wq1JCUlMWLECFe6aQsWu6vaqgoBMoD/EklZOCQjg8zMTCZNmkRkZCRXrlxhz549nDhxwtyor92mmjt3LklJSTz//PNWzx87doyJEydiMplISkri7NmzLFmyhOTkZI4ePcqlS5do3749AwcOpLKykjFjxnDlyhUAVq1ahV6vZ+fOnWRnZ3Pq1CmCgoKIj4/H19eX+fPnm6+Tm5tLQkICmzdvZvLkyWRmZlJdXc3TTz9NYGAg06dPd6WL/qf2E5p63niUWluxPkjCwsJo3bq1w8eVlJRw+fJl8+PRo0fTrl07DAaDzV4bKHmrhg0bBsBXX31FcXExnTp1wmAwcPv27TrtqOzsbPR6PatWrWL16tWMGTPG3D4qKytjwoQJDBgwgOrqag4fPsyuXbvqnKdFixbEx8cTGxtLSEgI169fJzc3l927d5sb+7X9MXHiRLp27YrRaOT48ePs27fP5nv9/f157rnnGDhwIFqtltzcXLZv386vv/7qykHRofYKKxH4i8QqhezsbFq2bMnGjRvJy8vD39+fuLg4Zs+eTUBAABUVFfTp04eCggJvdE+iWsvZhT/KfR+Tt1v79u1Nly5dMtXH1atXTaNGjfJW/5SoWqlDfXc/b6HMKH3S26NVeXk569evp6CggIqKCqqrq7l27Ro//PAD6enpJCYmkpub663uWU096yU09zioPcoKHj8EoS5VKJtPFNt68V75sS4Dm8R/Qj1sqE9U94tYoOxacQbJ+ifUbSr1AOq9fXC/jH4XHGnxC17Dp/cSlT0RC5QtUc5IW0tQqQC6A/dMfG/P+vdrQCvgCfGpALwP7LrfmzR2nqy1GrU6iF+9miK1bXXfJUP2Zuy4ibLY4nfiW6/mTeDvrj6pBjiAjMZ7q33jQA1n/xtVHgX+KQ15r6MKeAzIs/cAR5NX3Ukr+ZT42qtYDPzN0erNUfRAFs0414PgUr4DhqAMijaqsEBZyZOLpD7ydK4DMcBZRw/UOXnBMsAAPCe+92heVhvtTc6n0lvyWFv/IBXti7I6QwrCs+xbGrhBqsYF4gpXG3jBUnN4BJeBAShLupzGFfsVXgBGATekTNyeCrXdfLE5fagJQI1UI25rNcC45qr4+VJAbmtz3WGUVgrKvWyRu9TVf5TCchv70N0agkul0Jq9rXDXXsbvpfCarb3v7l3Y+dJbbHa9vzmeMj4yFmU6qxTsg7UK4HlPG3wbpI7qSgE/GPsFiPXUkd1QlBRJUtBNa/9AWQ7v0fgCqVLYTWYbgJZ4ES+h7G0nhd84ZgSmeOtNz3CUac4iBNdPe+nm7XfU9UCy2mMRUTTMbqi+1COY6YqyF4sIxDnLAnqKjGyjAaahLOUWsdhnRcBUXDNp0+PxB5aooV3EY9uq1N51gMjFuXGvVGl/WdlN4M9AJ5FHw4lAWRFU6cWCqlQFFS5ycD3t1SqyxIsEdVWN2hKhmqgNNoO7W8V6oh1Rv6O/FPeDIQpYhbJayN3FVAisBHpJsTavoYpBKFNtf3QjMZ0F/oSyd5HGkwrDU+kGjAASgMHAQ83kc5Wi7Av5lWo/euqv3FuiWU9VYAOBPmoV2qaRr2sETqp2HGXKUB619vYTYXnmMEak2oUPVx+3q2ValA0UWqnHlKtjSbfV6GNphWpbrxBl8+0L3urY/wexPJFwuq+QOQAAAABJRU5ErkJggg==;" vertex="1" parent="1">
          <mxGeometry x="517" y="676" width="40" height="40" as="geometry" />
        </mxCell>
        <mxCell id="V3Jk48kscWsiEnofZRHU-34" value="" style="shape=image;verticalLabelPosition=bottom;labelBackgroundColor=default;verticalAlign=top;aspect=fixed;imageAspect=0;image=data:image/png,iVBORw0KGgoAAAANSUhEUgAAAJYAAACWCAYAAAA8AXHiAAAA0GVYSWZJSSoACAAAAAoAAAEEAAEAAACWAAAAAQEEAAEAAACWAAAAAgEDAAMAAACGAAAAEgEDAAEAAAABAAAAGgEFAAEAAACMAAAAGwEFAAEAAACUAAAAKAEDAAEAAAACAAAAMQECAA0AAACcAAAAMgECABQAAACqAAAAaYcEAAEAAAC+AAAAAAAAAAgACAAIAEgAAAABAAAASAAAAAEAAABHSU1QIDIuMTAuMzQAADIwMjM6MTA6MDggMTY6Mzc6MjcAAQABoAMAAQAAAAEAAAAAAAAA46AYfwAAAYVpQ0NQSUNDIHByb2ZpbGUAAHicfZE9SMNAHMVfW6WltDjYQcQhQ/0Y7KIijlqFIlQItUKrDiaXfkGThiTFxVFwLTj4sVh1cHHW1cFVEAQ/QFxdnBRdpMT/JYUWMR4c9+PdvcfdO8DfrDLV7JkFVM0yMqmkkMuvCsFXhBFCFGMYlZipz4liGp7j6x4+vt4leJb3uT9HVCmYDPAJxLNMNyziDeLpTUvnvE8cY2VJIT4nHjfogsSPXJddfuNcctjPM2NGNjNPHCMWSl0sdzErGyrxFHFcUTXK9+dcVjhvcVardda+J39hpKCtLHOd5hBSWMQSRAiQUUcFVVhI0KqRYiJD+0kP/6DjF8klk6sCRo4F1KBCcvzgf/C7W7M4OeEmRZJA74ttfwwDwV2g1bDt72Pbbp0AgWfgSuv4a01g5pP0RkeLHwF928DFdUeT94DLHWDgSZcMyZECNP3FIvB+Rt+UB/pvgfCa21t7H6cPQJa6St8AB4fASImy1z3eHeru7d8z7f5+AK3ecr4DKaXQAAANeGlUWHRYTUw6Y29tLmFkb2JlLnhtcAAAAAAAPD94cGFja2V0IGJlZ2luPSLvu78iIGlkPSJXNU0wTXBDZWhpSHpyZVN6TlRjemtjOWQiPz4KPHg6eG1wbWV0YSB4bWxuczp4PSJhZG9iZTpuczptZXRhLyIgeDp4bXB0az0iWE1QIENvcmUgNC40LjAtRXhpdjIiPgogPHJkZjpSREYgeG1sbnM6cmRmPSJodHRwOi8vd3d3LnczLm9yZy8xOTk5LzAyLzIyLXJkZi1zeW50YXgtbnMjIj4KICA8cmRmOkRlc2NyaXB0aW9uIHJkZjphYm91dD0iIgogICAgeG1sbnM6eG1wTU09Imh0dHA6Ly9ucy5hZG9iZS5jb20veGFwLzEuMC9tbS8iCiAgICB4bWxuczpzdEV2dD0iaHR0cDovL25zLmFkb2JlLmNvbS94YXAvMS4wL3NUeXBlL1Jlc291cmNlRXZlbnQjIgogICAgeG1sbnM6ZGM9Imh0dHA6Ly9wdXJsLm9yZy9kYy9lbGVtZW50cy8xLjEvIgogICAgeG1sbnM6R0lNUD0iaHR0cDovL3d3dy5naW1wLm9yZy94bXAvIgogICAgeG1sbnM6dGlmZj0iaHR0cDovL25zLmFkb2JlLmNvbS90aWZmLzEuMC8iCiAgICB4bWxuczp4bXA9Imh0dHA6Ly9ucy5hZG9iZS5jb20veGFwLzEuMC8iCiAgIHhtcE1NOkRvY3VtZW50SUQ9ImdpbXA6ZG9jaWQ6Z2ltcDpmNTljMmMyNi02ZDJlLTRmOWItYmNiZC1mYmUyZTdhZWJjYTgiCiAgIHhtcE1NOkluc3RhbmNlSUQ9InhtcC5paWQ6NWMyYzY5OWYtNDFjNy00MTU1LTk4NWYtZjI1NzU0NjIyZjU2IgogICB4bXBNTTpPcmlnaW5hbERvY3VtZW50SUQ9InhtcC5kaWQ6YWZiZDQyNTUtYjhhMi00MTJmLTk0MTktZDk1NmI0MWQxY2QxIgogICBkYzpGb3JtYXQ9ImltYWdlL3BuZyIKICAgR0lNUDpBUEk9IjIuMCIKICAgR0lNUDpQbGF0Zm9ybT0iTGludXgiCiAgIEdJTVA6VGltZVN0YW1wPSIxNjk2Nzc1ODQ4ODUxODM2IgogICBHSU1QOlZlcnNpb249IjIuMTAuMzQiCiAgIHRpZmY6T3JpZW50YXRpb249IjEiCiAgIHhtcDpDcmVhdG9yVG9vbD0iR0lNUCAyLjEwIgogICB4bXA6TWV0YWRhdGFEYXRlPSIyMDIzOjEwOjA4VDE2OjM3OjI3KzAyOjAwIgogICB4bXA6TW9kaWZ5RGF0ZT0iMjAyMzoxMDowOFQxNjozNzoyNyswMjowMCI+CiAgIDx4bXBNTTpIaXN0b3J5PgogICAgPHJkZjpTZXE+CiAgICAgPHJkZjpsaQogICAgICBzdEV2dDphY3Rpb249InNhdmVkIgogICAgICBzdEV2dDpjaGFuZ2VkPSIvIgogICAgICBzdEV2dDppbnN0YW5jZUlEPSJ4bXAuaWlkOmI0YjUzOWNiLTg2ZTYtNGViMC04NDY0LWNjNzQyM2ZiNTE0ZiIKICAgICAgc3RFdnQ6c29mdHdhcmVBZ2VudD0iR2ltcCAyLjEwIChMaW51eCkiCiAgICAgIHN0RXZ0OndoZW49IjIwMjMtMTAtMDhUMTY6Mzc6MjgrMDI6MDAiLz4KICAgIDwvcmRmOlNlcT4KICAgPC94bXBNTTpIaXN0b3J5PgogIDwvcmRmOkRlc2NyaXB0aW9uPgogPC9yZGY6UkRGPgo8L3g6eG1wbWV0YT4KICAgICAgICAgICAgICAgICAgICAgICAgICAgICAgICAgICAgICAgICAgICAgICAgICAgICAgICAgICAgICAgICAgICAgICAgICAgICAgICAgICAgICAgICAgICAgICAgICAgIAogICAgICAgICAgICAgICAgICAgICAgICAgICAgICAgICAgICAgICAgICAgICAgICAgICAgICAgICAgICAgICAgICAgICAgICAgICAgICAgICAgICAgICAgICAgICAgICAgICAgCiAgICAgICAgICAgICAgICAgICAgICAgICAgICAgICAgICAgICAgICAgICAgICAgICAgICAgICAgICAgICAgICAgICAgICAgICAgICAgICAgICAgICAgICAgICAgICAgICAgICAKICAgICAgICAgICAgICAgICAgICAgICAgICAgICAgICAgICAgICAgICAgICAgICAgICAgICAgICAgICAgICAgICAgICAgICAgICAgICAgICAgICAgICAgICAgICAgICAgICAgIAogICAgICAgICAgICAgICAgICAgICAgICAgICAgICAgICAgICAgICAgICAgICAgICAgICAgICAgICAgICAgICAgICAgICAgICAgICAgICAgICAgICAgICAgICAgICAgICAgICAgCiAgICAgICAgICAgICAgICAgICAgICAgICAgICAgICAgICAgICAgICAgICAgICAgICAgICAgICAgICAgICAgICAgICAgICAgICAgICAgICAgICAgICAgICAgICAgICAgICAgICAKICAgICAgICAgICAgICAgICAgICAgICAgICAgICAgICAgICAgICAgICAgICAgICAgICAgICAgICAgICAgICAgICAgICAgICAgICAgICAgICAgICAgICAgICAgICAgICAgICAgIAogICAgICAgICAgICAgICAgICAgICAgICAgICAgICAgICAgICAgICAgICAgICAgICAgICAgICAgICAgICAgICAgICAgICAgICAgICAgICAgICAgICAgICAgICAgICAgICAgICAgCiAgICAgICAgICAgICAgICAgICAgICAgICAgICAgICAgICAgICAgICAgICAgICAgICAgICAgICAgICAgICAgICAgICAgICAgICAgICAgICAgICAgICAgICAgICAgICAgICAgICAKICAgICAgICAgICAgICAgICAgICAgICAgICAgICAgICAgICAgICAgICAgICAgICAgICAgICAgICAgICAgICAgICAgICAgICAgICAgICAgICAgICAgICAgICAgICAgICAgICAgIAogICAgICAgICAgICAgICAgICAgICAgICAgICAgICAgICAgICAgICAgICAgICAgICAgICAgICAgICAgICAgICAgICAgICAgICAgICAgICAgICAgICAgICAgICAgICAgICAgICAgCiAgICAgICAgICAgICAgICAgICAgICAgICAgICAgICAgICAgICAgICAgICAgICAgICAgICAgICAgICAgICAgICAgICAgICAgICAgICAgICAgICAgICAgICAgICAgICAgICAgICAKICAgICAgICAgICAgICAgICAgICAgICAgICAgICAgICAgICAgICAgICAgICAgICAgICAgICAgICAgICAgICAgICAgICAgICAgICAgICAgICAgICAgICAgICAgICAgICAgICAgIAogICAgICAgICAgICAgICAgICAgICAgICAgICAgICAgICAgICAgICAgICAgICAgICAgICAgICAgICAgICAgICAgICAgICAgICAgICAgICAgICAgICAgICAgICAgICAgICAgICAgCiAgICAgICAgICAgICAgICAgICAgICAgICAgICAgICAgICAgICAgICAgICAgICAgICAgICAgICAgICAgICAgICAgICAgICAgICAgICAgICAgICAgICAgICAgICAgICAgICAgICAKICAgICAgICAgICAgICAgICAgICAgICAgICAgICAgICAgICAgICAgICAgICAgICAgICAgICAgICAgICAgICAgICAgICAgICAgICAgICAgICAgICAgICAgICAgICAgICAgICAgIAogICAgICAgICAgICAgICAgICAgICAgICAgICAgICAgICAgICAgICAgICAgICAgICAgICAgICAgICAgICAgICAgICAgICAgICAgICAgICAgICAgICAgICAgICAgICAgICAgICAgCiAgICAgICAgICAgICAgICAgICAgICAgICAgICAgICAgICAgICAgICAgICAgICAgICAgICAgICAgICAgICAgICAgICAgICAgICAgICAgICAgICAgICAgICAgICAgICAgICAgICAKICAgICAgICAgICAgICAgICAgICAgICAgICAgICAgICAgICAgICAgICAgICAgICAgICAgICAgICAgICAgICAgICAgICAgICAgICAgICAgICAgICAgICAgICAgICAgICAgICAgIAogICAgICAgICAgICAgICAgICAgICAgICAgICAgICAgICAgICAgICAgICAgICAgICAgICAgICAgICAgICAgICAgICAgICAgICAgICAgICAgICAgICAgICAgICAgICAgICAgICAgCiAgICAgICAgICAgICAgICAgICAgICAgICAgIAo8P3hwYWNrZXQgZW5kPSJ3Ij8+WkOGNwAAAAlwSFlzAAALEwAACxMBAJqcGAAAAAd0SU1FB+cKCA4lHL79EHYAACAASURBVHja7X15eFNV+v/nJjdrm65p0pbSAoWyVLayiOyFUqCAyrANz4iKOLKMiAsIMjigg4JfUb5+YRBccBlwQMARKvtSkK1SShG6sXWhK3RNl6RJk5zfHzPn/m7SlCZpCmnp+zz3qZLt3nM+510+5z3vy6BdOElPTyc3b97EvXv3cP/+fZSVlSE/Px9FRUUoKSlBZWUlamtrUVdXB5PJBIZhIBKJIJVKoVAo4OPjg4CAAAQGBiI4OBg+Pj5QKpUICAhAaGgonnzySeZxGUvmcQZSSkoKuXXrFuLj45GSkoJ79+6hpKSkRX5LoVBApVJBrVZj1KhReOqppxASEoLQ0NCPlErlivZl3colMzOTvPnmmyQqKoqwLEsANLgEAgERCoVEKBQSgUBABAIBYRiGMAxj8/0AuNf5n6Wfb+xzLMuSrl27kqlTp5Ivv/yS5Ofnk/YZamWye/duMn78eCIWiy0m1xoADwKPsxcfdHzgWb9PLpeTYcOGkZUrV5Lr16+3g8yd5dSpUyQ6OtommFoCRI4CTiAQEJZliUAgsHjNw8ODjBkzhmzevLldk7mbvPvuuw3M26MEkr1AE4lEFv8eEhJCli1bRq5du9YOsEchWVlZ5Pjx42Tbtm0kLi6OA5S1NmgNF1+b8TXtyy+/TFJTU9sB1tJy/vx5snz5chIREUEUCoWFeXuQ49yaLmttK5FIyMKFC0lBQUE7wFwt8fHxZPTo0Q3MRmvWUvZcfA0WHBxMtm7d2g4uV8itW7fIjBkzGgw2jbzagoayx0zyNdjkyZPJ7du32wHmrBw/fpx06tTJwjy4Akh8UPLpAJZlG1ARfN+H/3pL0hUPMpFUg3Xo0IH88ssv7eByVHbs2MGt0saITWdWfUtEinTCHxbI+M/w6aefugW4WsWWzt69e8nMmTNBCAHDMDCbzc49LMNAIBDAbDaDEMvxl8vlUCgUUCqViIyMRNeuXREaGgqZTAaRSASWZbnP1tfXo76+HtXV1cjJyUFGRgYyMjKg0WhQVVUFo9Fo8d0CgQAMw8BkMrXYGAkEAgCA2WzGG2+8gY0bNzLtwHqAXLx4kURHR0Ov1zcbVHwweXp6YuzYsejTpw9CQ0MRFhaG0NBQKJVKDggCgQCEEO7ifxfD/Gfo6GsGgwEFBQXIzs5GTk4Obty4gSNHjiAvL8/m55x9DnsWjslkwsKFC/H5558z7cCyISUlJT+OGjVqRnp6OoRCodMrnmoahUKBOXPmYMiQIRgwYABUKhUkEgmMRiOnhai2sdZoTU0ozXQQiUQQi8UghKC8vBy///47EhISkJSUhIsXL3KfEQqFIIS4HGAMw0AoFMJoNGLFihVYv3490w4sK3nllVfIF198AZZlG5gXR0GlUqnw5ZdfIiYmBlqtlgMSTX/hX86KtXYTi8XcpdVqkZycjN27dyMhIQH5+fkWoHQlwPia6+uvv8a8efOYdmD9V06cOEHi4uJgNpthMpkc0iDWoAoJCcHOnTvRp08flJeXQygUNhtEjgJNKBTCw8ODamIcOHAA33zzDTIyMhr4SK7yuQghkMlkOHfuHKKioph2YAEYOnQouXDhgtMmkIJKrVZj37596NmzJzQaDViWfSTPwweZWCyGp6cnysrKcObMGWzZsgVJSUmcibQVXDRHW/fu3RvXr19/qHMtcNco8MKFC9zAODugPj4+2LFjByIjIx8pqPjmifo/5eXlYFkWU6dOxb59+/DVV1+hT58+nHYWCoXN/k2z2QyWZXH9+nVs2LCBPPYaa8iQISQxMdEpbUVNnEAgwPbt2/HMM8+gtLQUIpHILTWzyWSCUCiEQqFAdXU1duzYgW3btiE3N5fTYM2hKai59/b2RkpKCjp37vxQ5lzobgN94cIF8ve//91pf4Nqq5UrV+Lll19+KKDimzlb1IQ9vpBOp4NQKMTw4cMxdepU6PV6pKamwmg0Nlt7CYVC6HQ6SKVSnD9//r3HElg6nW7NtWvXwLKsw8Ci/sm4cePw8ccfQ6PRuMSkPAhQNPqjRKpYLIZIJIJQKOQcclsRIx90lDcjhECr1UIulyMuLg4jR47EzZs3uQiSUhTOaC2GYZCXl4fbt29Hfvzxx3seK1OYlZVFoqKiUFlZ2YDQtHfwvL29cfjwYXTu3BlarbZFgEUBIpFI4OXlBZlMZlMzmc1m7iKEwGQyQa/Xw2AwwGQyWbxmTbqazWZ4eXmhrq4O3377LT744ANotVoL0rapseAvTGpSt27digULFrT4vLPuBKzExERUVlY65bTTgVy6dCl69eqF0tLSFnHWzWYzByi5XN4AcHyACQQCC60FgPsM3Rqi5CwFHAWNQCBAdXU1BAIBXn31VQwdOhRr1qzBmTNnLEy+rXGg32G9OBmGwc8///z4Oe9PP/00iY+P58g9R/2qyMhIHDp0iFvVrgaUUCiEl5cXFApFi3BgRqMRdXV1MBgMHNCog+/l5QWTyYTNmzdj48aNqK2tbeDYUyAFBwcjNDQUiYmJ3L/RMQoLC8PVq1fDfX19sx4LYGVlZZH+/ftDo9E4bAYpkLZv346pU6eioqLCpSbQbDZDJpPBz8/voVEWZrMZBoMBWq0WBoMBOp0ODMPAz88Pv/76K5YuXYobN25YLCJCCEQiEfbu3Yvu3btj+PDhKC8vb6BNDx06hAkTJrTo3LsNj3Xy5EloNBqHtQ1dif3798e4ceNQVVXlUlARQuDj4wOVSvVQeTCBQACpVAo/Pz+o1WoEBgbCw8MDFRUVGDJkCH755RdMnz6dM4fUr9qyZQtGjBgBlUqF1atXN/CzzGYzx/Y/FsBKS0vjBtQZnua5556Dp6eny1JTKLgDAgLg7e39SMeGYRjIZDIEBAQgJCSEM8lbt27Fhg0bIJVKYTab8T//8z+YMWMGKisrUVVVhVmzZmHixIkwm80WPll6evrj42NFRkaStLQ0hxx3+t7w8HAcP34cYrGY21RuLqgEAgGUSiWkUqnbEquUmti7dy9u3LiBV199FTU1NVwgI5PJkJeXh5iYGI56MRqNGD16NE6fPt32TWF6ejqhq8gZpzsmJgY+Pj6or693iVPt7qCiWz4KhQIAMGvWLCxduhRVVVXc+AkEAtTW1qJr16545513LMa1tLT08TCF+/fv5wbLGWDFxsbCbDa7LFLz9fV1W1DxzT/1mwBAKpVCrVZDKpVydAPLstBoNHjxxRcxevRoLvWoJTNZ3QpYqampDQasKaGOaN++fTF48GAuampuJKZQKLj0ltYkAoEAMpkMarUa/v7+3CKl1wcffAA/P78WTxVyK2BlZWU5bQZHjBjhEjNICIFUKn3kjrorxMPDg1scAoEAWq0Wffr0wWuvvcbtGLR5YOXk5BAaETrCtlN1HhUVBb1e73A0acu0+Pj4PLQV3dLCN+VCoRAVFRV45ZVX0LFjR47batPAys3NRVVVlVNsuVgsRmRkJIxGY7MAYTKZIJfLH8pKflgikUggEok4YtRoNMLT0xN/+MMfkJeXh4yMDNKmgbV//36H/SuqnSIjIxEcHIz6+vpm+ydeXl5oS0K5LwosgUAAvV6PkSNHghCCo0ePtm2NdenSJaeAAAAjR46Et7d3szQW9TncNRGwOSIWi7ntMXqusVu3bvDy8kJ8fHzbBhat+emIGaTvDQ8Pd3hfsTGnva34VtbAoi4GwzDQ6XTo3LkzRo4cidOnT+Pu3bukTQIrNTWVFBUVOQQsuvLEYjHCwsJQV1fXLMedhultUejpbesFGR0dDZPJhFu3brVNjXX37l2nHXeFQoGgoKBm0Qz0xExbNIN8J56OrVAoRG1tLQYOHAgAuHDhQtsE1p07d7gHdpQaoHXVm8O40zSTtixUG9MxMplMUKvV8PDwwNmzZ9smsE6cOAHAuUMTnp6eXPJbc81FWxZ6OJdfUMXb2xu9e/fGtWvX2iawaEToDLDCwsI4nqa5VENbFuv0aMpnDRs2DMXFxTh//jxpU8DKzMwkGo3GKX4GALp27drsFGTK77R1YPE39+nfnj17AgB3frHNAOvmzZvQ6XROf75Tp04uoQha8niYO5lCPtC0Wi26d+8OhmFaLDJ8ZMC6ffu2U6kydJACAwObDayHURjEXbQW/5kNBgM6dOgALy+vtges7OxsC6DYK9Qfk8lkza7M8jiAij4nXbz0v8ViMVQqFW7evNm2gEWLkDkCDhrVsCwLDw8Pl6QhPw5i7UeazWaIxWIolUrcvXu37QDrzp075MqVK82iGmQyWbOphqZOFLdVYFGaRa1Wo6qqqu0AKz093Slik75fLpe7xBQ6C+y2ACwA6NixI3Q6HX7//XfSJoCVnJz8wAduSvjAao4ppLUTHjftRsnS4OBgEEJQUFDQNjTWjRs3mvV5iUQCsVjsEm3TFFhoqcqWrHbc0tLY7oJKpQIA0ESAVg+s5kYitEyQK6QxoFBAUYKRHv2ndSVak/aSy+WQy+UWz8owDPz9/QGgRVKVHzqwLl++TK5fv+5UpWCqNcRisdNHxazFOgCg5YUooLKysvD+++/jqaeewtSpU3HlyhWOdKTvbQ10g7+/P3c0jGpqmhff3Axcm1ryYT9kWloaDAZDs0psU2A1N9edDywKEKoJr1y5gh9++AFbt25FbW0tACAjIwOHDx/GihUrsGDBAgQGBnLfQYunubMDr1QqUVJSAp1Ox3FZAKDValunxrpx4wY5d+4cSUxMJP/+97/BsmyztA0FlisG22AwwGg0cpu158+fx8yZMzF8+HB88sknXLkgqsH0ej3ee+89REZGYtmyZbhz5w6nwYxGo1ubSKFQCKVSCZZluWRJAKirq2s9GisvL498+OGHOHjwILp3796oinZmIvimsLmnc1iWBcuySEpKwurVq3H06FFOe9EJsK5BJRAIUF5ejg0bNuC7777DnDlzsGLFCgQEBAAAVzfUHTUYy7IICAjgqgPS+20VwNq5cyfp1asXqqurMXToUCxYsAB+fn4ghKC2thbp6en417/+xZ1edhRc1HlvjnagxcyKi4uxZs0afPXVVxx9QU9Z2xpwWvKRAqykpASffvop9u3bh0WLFmHRokXw9PTkfsMdMyjowuQn/7k9sHbs2EH+9Kc/oWfPnvi///s/xMTE2HzfjBkzMGXKFKceSiQSNWuyTCYTfHx8cP78eSxbtgwZGRkWgLLnnqwBlpubi+XLl+O7777D66+/jtmzZ3MAo6b2YW56Wy86vtNOTXtwcLBdlMsj97FSU1PJvHnz8MQTTyAhIQExMTHcBNDLaDTCaDRiwoQJ2Lx5M1e8wllT6AyovL29ceTIEcycORMZGRmcz+cMjcAHmFAoRHp6Ol555RVERUXh888/x927d7lDDc09UWTPvRiNRpv9gagPKRQKUVxcjCtXrjhdk+yha6yVK1fCYDDghx9+gFqthtFoBMuyDRxtOgDz58/HwYMHER8f71ChfKoJnAGVQqFAYmIi5s2bx1VVdoWPQQFGAXTr1i0sWrQIgYGBiI2NxZ///Gf06dPHpQdjaXVlPoD4i1Sr1UKr1UKn00Gn06GmpgZnzpzBpk2bkJOTwxXadesT4FevXiUAyNy5cwkhhBiNRvIgMZlMhBBC8vPziUqlsqtBOH39zTffJFVVVSQrK4vcvXvXris3N5cUFBSQtLQ0i/a/eEid5wGQsLAwsmrVKmI2m4nZbCbOitlstjm++fn55MsvvyRLly4lkydPJr179yZBQUFEKpU22u2VYRjSo0cPQo/cl5WVveJWwFq8eDFhGIZcvnyZmEymJoHFB9+qVasatKB9ELDef/99UllZSbKzs+0GVnZ2NtFoNGT+/Pl2/RZasI1vZmamxeJyBFD19fUWi/PQoUPk7bffJk8++STx9/e3636se1wDIEFBQWTo0KHk6NGjxK1M4alTpxAREYEBAwY4xCMRQvD666/j66+/RlFRkV1+iLe3t0OMt9lshoeHB3777Td8++23XIlJaz+EmhZ7/CB7+wzyN7opfZGQkICIiAiH/C26G8CyLPLz87F7927s2rULly9fbsBV8Wu9W+e627pfoVCIoqIi1NbWonfv3u7lvOfm5mLMmDEP7BpqnU1AB8Df3x8vvvhik44kHRwfHx+HOCy6fbFnzx4YDAbO56P3SoMKa+f9Qd/P929olNXU/dCJPnTokEPRIQVVXV0dPvnkEwwcOBBLly7F5cuXOYec33eaPgtdJE0BmI5lx44dERwczLiNxkpKSiKDBg3iEvRtAYsODnWi+Q49IQRPP/00PvnkE+5k84MGw9/f3+7VTot+5OTk4F//+hcIIdzemEwmQ3BwMLp06YLAwECEhoYiODgYAQEByMnJwV//+tcGbDrVVEFBQWAYBvn5+RZBh3UlPesxYBgGZ8+eRWZmJnr06NFgLGwFHEKhEGlpaXjppZe4I3P0M66sEm3daeORA4vm89C9M1s3LRAIcO3aNfj7+6NDhw4c0KhZGjJkCAYPHoxz5841eqyL/pu/v7/dA2o2myGXy3H27Fl07twZ0dHRGDZsGIKDg6FUKrmLikajgVgsRnJyMgdAOol00ZjNZrzwwgt46aWXkJKSgkuXLiE+Ph6ZmZkW90UbTdGFRqmVyspKHDp0qNEdCf7zCoVCnD9/Hk8//TTX49B6N8BV4nalnL755hsCgBw+fJgQQiwcTOqgb9++nfTr14889dRT5IcffrB4jf7dsmVLk461UCgkKSkppLi4mOTm5trtvGdlZZHy8vJGnWKDwUCqqqpIdnY2ycnJIfn5+WTlypVEKpU2uIcJEyaQ1NRUUlJSQkpLS0lVVRUpLCwku3btIq+//jrp3r27TaeZYRguWpw4cSL3243dk9lsJjk5OSQ4OJgAICzLWjjgrgow6HjHxsYSt9JYer2eW6G2Vlx5eTk2b96M9evXQyQSYeHChVAoFJg8ebKF2ezXr1+jppSaRx8fH6dOQAuFQq65uLUPRTvQ85+BEIJly5ZhwoQJOHjwIMrLyyGRSDBs2DCMHTsWJpMJtbW1YBgGNTU1EAqFGD9+PGJiYrB69WpcvHgRBw4cwOXLl3H58mWLZzKbzTh27BiysrLQpUsXCzfBeh9z7dq1KCws5Bh8Vzcmtx4jtwJWY44obWyUlpYGkUiEoKAgSKVSfPTRR1ixYgX69+/PpccCQI8ePdCtWzfcvHmzQSMBvqMvkUgcjgqlUimUSuUDgwO6IU39PI1Ggx49emDAgAHcxnJ9fT2qq6ttToRGowEhBB4eHpg4cSImTpwInU6H3NxcnDp1Cp9++inu3LmD/v37w2Qy4fz58zaBxV+QaWlp6Ny5M+RyOfLy8lBVVYWuXbvCbDajsLDQZmYCf3vK3nHiJ/65TVRIK5pQzWUNtPv37yMoKAhisRhlZWXo27cvpkyZgiVLlnDOsNFohK+vL5544gmb0SH9TpVKBalUarePQeuLBgQENLl1wTAM52fQya2rq8P9+/dRUVGBkpISLpPU1mJiWZbTfjQ6k8lk6NGjBxYtWoS4uDgAwK5du5CUlISZM2fa1PT0+z08PLB3714kJibi4sWLiIiIgFqtxvHjx7Ft2zZ4enpabCZTQNGdDQoqGjk2FeUOHz7cvYDl6+sLAI0eJaKtOYRCIViWRWlpKf70pz/h3r17OHnypIV2GjlyZKN8CwAolUpOYzU1UNR0NqWp+CKXy7k66Xz+id57Y+aCbunI5XJ4eXlx7yeEQK/Xcy1KAHCdWGk+VGMikUgQHBwMlUoFhmGQlZWF0aNHQ6VSQaVScdtg/PoMJpMJzz77LFavXs0tUkqp8Deg+d1d6W+NGTPGvYBFo0Fa9tGe0FYkEuHFF1/Exx9/bGFW6KppDFh00uwhX/39/Z0qsS2Xy6FSqeDt7c35cw+66CFab29v+Pv7NzjSTtN8KioqwLIs5HK53ad+6uvrYTabkZmZifLycnTr1g11dXVQq9X47LPPEBUVxUWJCoUCs2bN4lyNw4cP4+jRo3j77bcxduxYTpPyu7pS0K1atQoREREuS71wiY8VFhaWLJFIBtDexdYTKZVKUVdXZ5H+W1NTgz59+qBz584Wn1EqlfDy8kJVVZVNPsvb27vJKjNmsxl+fn7N6jBBgaJQKFBfXw+DwcBNMh80LMtCLBZDIpHY1IqUajGZTMjNzUV4eLhDYKeZCXxKh2VZVFVVYdy4cRg6dChu3rwJg8EAPz8/REREQKfToaioCBKJBFFRUXjyySdRX1+PgoICHD58GPHx8bh69Sq0Wi1kMhneeustvPvuuy7N53EJsFQq1cDQ0FCSmppqkxH38fFBZWUll5fEd8Z79OjRQCP5+/s3ABb96+vr67KDFPZuO0kkEqczAOh4aDQa3LhxAxMnToREImmSGLUWGjBQUPKj0aioKAgEAi6w4Pt5Wq3WIjjq27cvVqxYgeTkZEyaNAm9evXC2rVrXZ4k5rItnZCQEKSkpFg4tvSvn58fysrKYDAYGoCOpqzwS0AGBQU1So4GBQXZdVDV3XLPS0tLUVNTg65duz7Q1DcWcRcXF3PBCx0z6gdWVVWhsrKSSzfmjz/fcddoNJyvNWDAAIjFYvj4+LTMgnTVFw0YMAD37t3jmizyB06tVkMmk3EtdfmTbh1msyyLTp06WbzGr5ASHh5uE6DuKvRZCwoKwDAMoqKimtwTtQWse/fucQvYw8OD2xekkSB1ypviqSjI6urqUFNTAz8/P/cG1uTJk0EIwbFjx7gwn0Z7wcHBCA4ORnFxcQP1z6cN6H936NDBpq/m6emJLl26wGAw2EUduJOcOHEChBBERkY6dX8ajQYsy0Imk0EsFkOtVkOhUHBj/KCsDMqT8RMkdTod9Hq9+2usvn37wsvLC7/99ptFlEcfKjg4GDk5ORblofncF391N9aBq2PHjlAoFHZxWO4CLHofR44cgaenJ6eNHb2/mpoaC19PLBbD19cXarUavr6+8PDwgEgkavC9DMNwPB6fWC4vL4dOp+OaabpaXJaPFRgYyEycOJGcPHkSer2eAxB90CFDhuDUqVMQiUQcI88wDLfRy/fNaE0BCiAaVUVFRXHc0IMmxl0q9dFFlZ2djYyMDEydOpUrZuKoKaTpPtblw/mdVvlpMnSMqKm0lsrKShBCWgxYLs2ij46ORklJCVc/nD+AgwYNws2bN1FaWmrRlYoy1PxBpLyYtZPerVs3uwrausuRK3qfv//+O3Q6HSZPnuyQ424d5FBH/EERLCVmRSJRo+cN+GS2s+cHHiqwpk2bBgD4xz/+0UDdd+7cGQzDICMjg6shQLdy+OYQ+E9aDH9l0oloLC3HFrDcoWgtDTouXrwIiUSCIUOGOOS4t0SUaw2sluom61JghYeHM8888wxOnz6N0tJSTrsYjUaIRCLExsYiMTERUqmU00YmkwkGg8Hie3x9fbntDjo5np6eCA0NtbtegzsAi4b+e/bsQadOndCpUyeOMHXmu1wJsJqaGgBosT5CLrcXzz//PCorK/HTTz9xA0EneebMmbhx4wY0Go2Fc2+9ee3l5WUBLBopdu/evcnez1QTPmpgUS17+fJlZGdnIzY2tlkpL44cprVHaCn0lmqq7nJgTZs2jVGpVHj//fdRU1NjcVAzIiICcrkchw4d4qI7gUAA2kiAAsbDw4Pb8af/1rt3b/j6+tqlsdxBW1EAHT58GAAwe/bsZn2fWCy2yBx1VnPRz9HF3NRGuNsACwA++OADFBQUcIcGaAoHIQRvvPEGDh8+bHFKpra21gIwtM8eXyZMmGAXfwXALRovUXD/+uuvCAsLQ58+fZyiGSgQJBIJd4rclb5Wi7kBLfGl06ZNG6dSqbB69Wpum4ESedHR0QgLC8PXX38NpVLJgY7afFvRkFQqRXh4uF2D6syR/ZaIBhmGQVlZGRISEjB8+HCufLiz0apUKoXRaGzgj7qKZ2sVwPLz8zuxevVqZGZm4quvvuJARZ35Dz/8EIcPH8aFCxcQGBiI+vp6C2BZ81Dh4eEO9SZ0F/9q//79MJlMiI2NbbaGoOXHXQUs/ompVgMsAPjLX/7CREZGYv369SgsLORAZTabERYWhi1btmDNmjU4cuQIfH19Gxw94gOof//+CAkJgV6vbxJY7sBh0Xvcs2cPRCIRpkyZ4vR9UUDS8aHAchaodNGlp6eDZVm7KRy3ARYAfPbZZygqKsLixYs5B55mPY4cORI7duzA999/j/nz52Pbtm1c/jafWWcYBk8//bTdG8+POiKkdEJlZSWXmuLr6+sSjcUHVnPuzWAw4Oeff0avXr3Qt29fptUBKyYmhlm4cCF++uknHDx4kAMV/Tt48GAkJCRg+fLl6Nmzp03ghIaGon///hYV6NxZY1EzmJaWhpKSEq4+WHPbs1Ai05pMdkbu3buHwsJCl6YiP1RgAcB7772XHBAQgBUrVlgk+lFeRiKRIC4uDs8++yy3wcr3sZ566il4e3vbNTFUIz5KjUXvce/evdz9832a5prC5gCL+lNnz54FIQSxsbGtF1gqlWrg8uXLkZqaiv3793NsOx1sfmE2fuEKuvJjY2PtPu5FVf2j1FiUXtmzZw9CQ0Mdzr9qTFwBLAr6X375BQDQq1ev1gssAJgzZ05FQEAAVq1aBa1W26DNmbWWEYlE0Gq16NixI8aPH2/B1LtzREi5uaysLBQVFeGPf/yjhXlsjlAKxVmClGaUVFRU4OTJkxg+fDg6derEtGpgqdVqv1WrViEzMxOHDx/m8rNtaRyz2Yzi4mJotVqMGDHC4WZMj5Icpfd59epVmM1mjB071uVkpLMgpfdw8+ZN3L9/n8u0aNXAAoAlS5Ywfn5+WLFiBcrLyyEWiy0quVBQCQQCfPrpp6ivr+eyUh2ZmJbaonDE1CQlJUEoFHInkFoCvM6C6/z58wCAcePGtQ1gAcDGjRtx+/ZtxMXF4erVq5x6pzUVWJZFcnIyNm3ahFGjRmHsDEse7QAAETZJREFU2LHcfqO9E/uoTCENHIxGI3766Sd07doVYWFhTmczNGUKnQE9wzDYt28fvL29MWDAAKbNAOuFF15gNm3ahKSkJAwcOBCbNm3ijiqxLIvTp09j0qRJEIvFWLNmDeeL2RumP8y2I1TD0v07WuyspKQEWVlZ6N69u8vasvB9R2eARS3B7du3kZyczB31bzPAAoDFixczly9fxoABA/Daa69hwoQJePPNNzFt2jRER0ejpqYGX331Ffr27Yva2lqHVntLcVj8yJWaIvpbtJAIPe1MT+OMGjWKC0pc0S2MgtOZ76EJAOfOnYNer8eMGTNafJ4fyW5tVFQUAwArV64kH374IY4ePQoA+OMf/4hXX30VERERDkWCdMBdra0ooGyl+Go0Gty9exe5ubkoLS1FVVUVSkpKkJSUBEIIvvvuO6hUKkyfPp3LeXL0kKot59tZbccwDE6ePAlvb2+MHDnyozYJLCoffvghk5CQQJYsWYJr164hJCQEffv2RVlZmdNZlq4AFzVzNH8c+E/e+q+//orTp08jPz8fJSUlKC0t5U4oW8u1a9cwZ84crF+/Hn/5y18wb948LrCwt1sYNbV8bs6Z56OHVg4cOID+/ftDqVSuaNPAAoDo6GimsLCQLFiwABs2bEBxcTE2bNjA1UlwpICtK8hRfq/C/Px8/POf/8Tx48eRkJDQ6KTxi7VRcpc6y2lpaVi0aBG+//57LFmyBLNmzbLInuVrIv7JGvosVNuVlpYCAEe/2Bsd0iYOBw4cQFVVFZ555hmcOXMGj5XMnTuXACAvvfQSuX//PsnNzbW7HGROTg65f/8+aY7QkpXV1dXkgw8+sKibzjAMEQqFRCgUNqiVDgcaCYwfP57s2bOH1NTUNHkvly9fJtu3bycvvvgi8fDwIADI1q1bG9yvPc80d+5cIhaLye3btx9K7QG3O6c+Z84c8s9//hN//etfsXTpUlRWVtrll9Ba7vxCtY4I9X+uXbuGuXPn4sqVK82Oxqz9HL6GCgkJQWxsLCZOnMgVezMYDMjJycGpU6dw5coVlJSUWDSppMXYFixYgHfeeQd+fn4PNKtUA+r1enTp0gW9evXCiRMnGDyuMnr0aAKAfPvtt6SiosKu1iY5OTmktLS0WZpq3759RKFQcIVkm9JGcLKQrCPfKxQKuaK2/Ktbt24kPj7+gdqLdr44d+4cAUDWrVtH8DhLYWEh6dChAwkICCBXrlwhRUVFJCcnp1FQ5eXlkZycHFJWVuYwqGiF53379nEVklu6HQq/ejLLspyJZVmW+39qam19lg+0efPmkcrKSpvgov8/e/ZsAoDcuHHj8QYWABw5coQIBAISGxtLysrKWgRYdOB/++034unp+VB77MCFTaCioqJIcnKyxTPRMt/l5eUkICCAREdHP1RQCdwVWBMmTGAWL16MY8eOYe/evfDy8mrUz7EuzmZv9CcUClFYWIgZM2ZwRcxaKgfc1ULPGIpEIly5cgWjR4/Gzz//zD0DjRpTUlJQUlKC559/Hu3yXykrK3slPDycBAQEkPT0dFJQUNCo5nIkKqRt2YxGI3nmmWdalabCAxoAsCxLduzYQQghxGAwEEIIefbZZwnLsuTOnTvtZpAve/fuJQDIwoULiUajadSRz83NJcXFxXb1AaTm4v3337fo+NCaL37ni59//pkQQsidO3eISCRyaceJNiVjxowhAEhCQgK5f/++Ta1FG102xe3Q18+cOUPEYnGjTnJrBpePjw/Jzc0lO3fuJADIsWPHHjqwWgWnce3aNUKbDnz33XfQaDQ2GXaGYaBWqxtN9qO5XbW1tRg8eDAyMzMbdMBo7UKfZ/LkyaipqUFGRgYyMzPDfX19s9pVlA157rnnCACyZ8+eRqPEnJwcotPpmtRW8+bNa/V+VVN0Bv3vhQsXPhIz2GpY2Ly8PBIZGYlevXohPj6ey523jpQ8PT1t9oShzPqePXswc+bMFtFU/PuxrhzdWPTaUjUUaBnx69evo2vXrg99ngWtBVgdO3ZkFixYgMTEROzZs8dmLVLahdS6xgMFVWZmJv785z87nQHBL2/Nr1TMz5Xid6uglAA/l8u6nCO9b35FY1cITflxxTnENq2xAKC8vDymX79+x8ViMU6dOsXVm+JPhtlshq+vr0WzJTrBsbGxOHPmTJN8Fb9PNH+iHqThBAIBxGIxhEIhfH194e/vD4VCAZlMxu0T6vV6VFdXo7S0FGVlZVzHC1vfxe9R7YzQZ1y4cCE+//zzhz7PbGsClp+f34nNmzfj1Vdfxfbt2/HGG2+grKzMoroMwzCoqqqCXC7nupGyLIs33ngDZ86cAcuyDWqeWjccbyzjUyqVIiIiAqGhoVCpVFAqlQgICEDnzp0RFhaGkJAQyGQyrg2Kde11+t20fUp5eTkyMjKQlpaG3Nxc5OTkIDExEWVlZRYAaQ7AkpKS2jWWvRIZGUnu3r2Ls2fPIjAwEHV1dQ0mUCwWw8/PD2KxGDt37sRzzz1n0UDzQenCfn5+CAwMhFKpRIcOHTBkyBAMGjQIAQEBXH31FvQlceXKFezcuRPJycnIyspqEPE5Eh2q1WokJiaic+fOj29Wg71y4sQJAoA8//zzpKKigmRnZzeIEO/cuUNqampIcnIytw9ofYnFYuLv70/Cw8PJ9OnTyebNm8mBAwdIZmYmqa2tbZK5r6+vJ/X19cRoNBKTycS12+Vfttrx8i/6PUajscH7S0tLyc6dO8nAgQMbcFVwYLP7woUL7TyWvTJz5kzy448/4scff0RMTEyDuqYSiQRZWVl49tlnUVJSArlcjoiICERFRaFjx46IiIhA165dERISApVKZbNYm7UJstUnyJVi7dTzn+fgwYNYt24dLl68aLf2omZ/3759mDZtWrvGskfy8/OJQqEgkZGRJCsri+Tn53PZprm5uaSoqIgcP36cbN26lZw4cYLk5OQ0qYWoBqLa51ELvScqdXV1ZMuWLSQoKMguHo6+vmbNmvYtHUdk27ZtBAB5+eWXSVVVlcU+IgVXWVkZuXfvHjdBRqORGAwGC/Nl7yQ/SrDxt6qysrLIpEmTmkwcpMD6wx/+0A4sR2Xq1KkEANm+fTuprKwkd+7csQBXTk4Oyc7OJuXl5U6BQ6/XN+orPUoNVl9fT95880279g6feOKJdmA5KgUFBSQsLIz4+PiQCxcukJKSEgvNRZMAS0pKHJ5EQgiprKwkly5dInfv3iVardYtNJnJZOLSjj/77DPi5eXVIJWan2kaEhLS7rw7I6dPnyYxMTHo1q0b9u3bB39/f2i1Ws75pT2o1Wq1Q8fD6GGE3NxcpKSkwNvbm+ukpVKpGvSh4dMXLX3Unzr5AoEAY8aMQUJCAsfcU76Myvbt2/HSSy8x7cByQr7//nvy/PPPY/jw4fjmm2/g5eWF2tpai2gvMDDQ4TJHFFy3bt1CZmYmR7qKRCL4+/tzrYZ9fHwabYjUHLA1BlZ6Oufo0aOYMmUKevbsievXr3OvSyQSDBs2DEuXLkVcXBzTrrGaIevXrycrVqzAyJEjsW3bNiiVSlRXV3Ot6AICApzqHUPBdfXqVRQWFnKt8SiDLxAIIJf/p/O9l5cXPD094eXl1SiQ7Nl4buyz9EAt/Tto0CDcuXMHv//+O/79738jOTkZvXr1QlxcHPr06fPI5rfNcRt///vfybvvvouBAwdi69atCA8PR2VlJRiGgY+PT6NNNu0Rk8mES5cuoaKiwoLF5+9HCgQCiEQiiMVieHt7Q6VScV1RxWKxQxrTYDBAr9fDYDCguLgYZWVl6NevHxQKBRiGwa5duzB79mysXbsWq1atcqu5bJOk2ZYtW8iiRYugVCqxZcsWjB8/HpWVlZDJZAgICGjWd2u1Wly6dAk6na5Bf2uqZWgGA/0rFAotgEXLNonFYrAsa9Elje4j0nZ7BoMBtbW1kMvl6N27N9cktLq6Gk888QSEQiFSUlLG+fn5nWgH1kOQEydOkNmzZ6OkpARLlizB8uXLuf1DZx1rahIrKipw6dKlRivcWOdl8VNprDugNvY7/M3n0NBQdO/eHRKJhEsBWrlyJdatW4fdu3dj1qxZbjePbZrmz87OJq+99hri4+MRFxeHf/zjH1zPwOaCq7CwECkpKWBZ1qJYr62//N/iFy5pzNdiGAYGgwFSqRTdu3dHSEgIgP9f4OP69evo168fRo0ahYSEBLecw8di/2jp0qVkw4YNGDFiBPbv3w9fX1+H+jI3Bq7bt29zefP8CjH8i5+OQx1+g8HApfPwc6/o3/r6egQGBqJXr16Qy+UNQDpp0iQcOXIE6enp6NmzZzuwHqWsW7eOvPPOO4iLi+MOdjanKTmd7NLSUovSR9b9mK0pAr1ej5qaGmg0Gq5gm9lshkgkQn19PViWRbdu3bjCuPze2UKhENu2bcOCBQuwbNkyfPzxx+0by+4g7733HgFA5s6dy6WsPEoxmUyktLSUXLhwgcTHx5OLFy8SjUbTgNGne5p5eXlEpVKRyMjI9i0ad5P58+cTAOSjjz7i9tyasyXTVA7Wg97P32AuLi5uUHfBegN6ypQpBAA5depUO7DcUf5bIIMcO3bMYiIfxb6frQ1uW6DaunUrAUDeeuutdlC5qxQUFJCAgACiVqtJUlISqa6u5jZ1H9Xmsq3foveUlpZGxGIx6du3L6moqOjSPoNuLMePHycMw5C+ffuSo0ePkpMnT5IbN26QioqKRw4y/m/qdDry5JNPErFYTFJSUtq1VWuQ1atXEwBk+vTp5OTJk2TPnj3kl19+IWfOnCGpqamkurr6keVi0WoxixcvJgDI559/3qpA9diHq5MmTSIHDx7E3/72N0RHR3P7imazGSzLwt/fH76+vggKCoKPj49NyoGSmq4SSoR+//33eOGFFzBr1izs3r2baQdWK5K8vDwyYsQIlJaW4n//938RFhbG5XLRvCYKMl9fX6jVanh7e0OpVDYgWPmt8pzlxejnz549i9jYWHTp0gXp6emtbp7aCTYAFy9eJEOHDkVoaCg2bNgAhUIBvV7f4Pg8BZlQKOQqNAcGBsLDwwNyubxRJv9BaTLWIKyvr0diYiKmT5+O6upq/Prrrxg0aFA7sFqr0ETBQYMG4W9/+xsEAoFFq2E+CPggo0frPT094e3tzSX9Ufbdnm0jo9GIqqoqFBQUoKCgAG+//TauX7+OH3/8ETNnzmyVc9QOLJ6sXbuWrFq1CsOGDcPKlSu5zWBb7Uas6zoYjUaLNikSiQRisRgymQxSqRQSicQiw9RkMqGurg61tbWora2FVquFWCzGxo0bcezYMaxbtw7vvPNOq52fdmBZyfLly8lHH32EoUOHYtmyZfDx8YFer4fJZOIad9oqGmLdnYseJuVXmLEWvqn19fXF1q1bsWvXLsyfPx/btm1r1XPTDiwbsmrVKrJ27Vp0794ds2fPRlhYGJRKJZe5aTAYuP6E/BwrWyelrf/yAUY/6+3tjR9++AFffPEFpkyZgvj4+FY/L+3AakQ2bdpE3nrrLa7MkL+/PwYNGoROnTohNDSUKxpCnXbqk1HA8RP7rJ11mmIjEokgk8nw008/YePGjRg2bBjOnz/fJuakHVgPkLt375ITJ07g+PHjuHnzJlJTUy0KmUmlUnTp0gUDBgxAp06dOM7Lw8ODS0WmBdX4Tr/BYIBOp+MyUWnjz1OnTs339/f/oh1Yj5nk5uaSe/fuITc3F6dPn8aFCxdQXFyMoqIiC79JoVDA09MTHh4ekEqlEIlEXE4VzWGvqKiARqMBAAwePBjx8fEVarXar62MVTuwmikVFRVd0tPT7+Tl5aGwsBDFxcXIy8tDdnY2ioqKUFZWhpqaGg50Pj4+6NChA2g91Z49e2LGjBltbh7+HxWCV2vYK/SrAAAAAElFTkSuQmCC;" vertex="1" parent="1">
          <mxGeometry x="517" y="516" width="40" height="40" as="geometry" />
        </mxCell>
        <mxCell id="V3Jk48kscWsiEnofZRHU-35" value="" style="sketch=0;pointerEvents=1;shadow=0;dashed=0;html=1;strokeColor=none;fillColor=#505050;labelPosition=center;verticalLabelPosition=bottom;verticalAlign=top;outlineConnect=0;align=center;shape=mxgraph.office.servers.server_generic;" vertex="1" parent="1">
          <mxGeometry x="480" y="510" width="27" height="52" as="geometry" />
        </mxCell>
        <mxCell id="V3Jk48kscWsiEnofZRHU-36" value="" style="sketch=0;pointerEvents=1;shadow=0;dashed=0;html=1;strokeColor=none;fillColor=#505050;labelPosition=center;verticalLabelPosition=bottom;verticalAlign=top;outlineConnect=0;align=center;shape=mxgraph.office.servers.server_generic;" vertex="1" parent="1">
          <mxGeometry x="480" y="670" width="27" height="52" as="geometry" />
        </mxCell>
        <mxCell id="V3Jk48kscWsiEnofZRHU-37" value="" style="sketch=0;pointerEvents=1;shadow=0;dashed=0;html=1;strokeColor=none;fillColor=#505050;labelPosition=center;verticalLabelPosition=bottom;outlineConnect=0;verticalAlign=top;align=center;shape=mxgraph.office.clouds.cloud;" vertex="1" parent="1">
          <mxGeometry x="270" y="586" width="100" height="60" as="geometry" />
        </mxCell>
        <mxCell id="V3Jk48kscWsiEnofZRHU-38" value="" style="endArrow=classic;html=1;rounded=0;startArrow=classic;startFill=1;" edge="1" parent="1" source="V3Jk48kscWsiEnofZRHU-31" target="V3Jk48kscWsiEnofZRHU-37">
          <mxGeometry width="50" height="50" relative="1" as="geometry">
            <mxPoint x="230" y="740" as="sourcePoint" />
            <mxPoint x="280" y="690" as="targetPoint" />
          </mxGeometry>
        </mxCell>
        <mxCell id="V3Jk48kscWsiEnofZRHU-39" value="" style="endArrow=classic;html=1;rounded=0;startArrow=classic;startFill=1;" edge="1" parent="1" source="V3Jk48kscWsiEnofZRHU-35" target="V3Jk48kscWsiEnofZRHU-37">
          <mxGeometry width="50" height="50" relative="1" as="geometry">
            <mxPoint x="640" y="600" as="sourcePoint" />
            <mxPoint x="690" y="550" as="targetPoint" />
          </mxGeometry>
        </mxCell>
        <mxCell id="V3Jk48kscWsiEnofZRHU-40" value="" style="endArrow=classic;html=1;rounded=0;startArrow=classic;startFill=1;endSize=6;" edge="1" parent="1" source="V3Jk48kscWsiEnofZRHU-37" target="V3Jk48kscWsiEnofZRHU-36">
          <mxGeometry width="50" height="50" relative="1" as="geometry">
            <mxPoint x="640" y="680" as="sourcePoint" />
            <mxPoint x="690" y="630" as="targetPoint" />
          </mxGeometry>
        </mxCell>
        <mxCell id="V3Jk48kscWsiEnofZRHU-41" value="" style="sketch=0;pointerEvents=1;shadow=0;dashed=0;html=1;strokeColor=none;fillColor=#505050;labelPosition=center;verticalLabelPosition=bottom;verticalAlign=top;outlineConnect=0;align=center;shape=mxgraph.office.servers.server_generic;" vertex="1" parent="1">
          <mxGeometry x="480" y="590" width="27" height="52" as="geometry" />
        </mxCell>
        <mxCell id="V3Jk48kscWsiEnofZRHU-42" value="" style="endArrow=classic;startArrow=classic;html=1;rounded=0;" edge="1" parent="1" source="V3Jk48kscWsiEnofZRHU-37" target="V3Jk48kscWsiEnofZRHU-41">
          <mxGeometry width="50" height="50" relative="1" as="geometry">
            <mxPoint x="420" y="660" as="sourcePoint" />
            <mxPoint x="470" y="610" as="targetPoint" />
          </mxGeometry>
        </mxCell>
        <mxCell id="V3Jk48kscWsiEnofZRHU-43" value="" style="shape=image;verticalLabelPosition=bottom;labelBackgroundColor=default;verticalAlign=top;aspect=fixed;imageAspect=0;image=data:image/png,iVBORw0KGgoAAAANSUhEUgAAAJYAAACWCAYAAAA8AXHiAAAD9ElEQVR42u3dv47jVBiG8fccJ5mZOOvAthSAQLNoBUJampUQdBTcAgWiAwmBQNwBd0FFz58CCjTabZDgLhAFBRSUq0wcOz7fofDOiIYCNmjOFz8/afrx8RPHznw5E87v3c8CDiyyBCAsEBYICyAsEBYICyAsEBYICyAsEBYICyAsEBYICyAsEBYICyAsEBYICyAsEBYICyAsEBYIC/jPZsUWH6N2basX7r6kdz56X/t+rxDCpE9WNtNZvdSDb77TTz880HJVy8wI698vZNbJcqnn75yr63aKEw8rDabVutH69lNjUAUvx8zDq7Rrd+q7bvJXLDNT17YahoG3wkMIMYw/Ew8r5KAQo4t14OYdhAXCAmEBhAXCAmEBhAXCAmEBhIXizaZ0sDln979/zlnKhFXOpTlGxSq6OCn/xKJpvpiPx0FYNy+EoHbbqt1sFKLfd39Lpna7VXu5LX7C4ejDspRUN41+vnior7/4UnXTyFJy/SIZ9nudLc9kyQjrZk+GNOwHtdtW1XzuOqyruLhiFXQyqqpSVVXyPi7o4SFkck+F109W+H8fllgCEBYIC4QFEBYIC4QFEBYIC4QFEBYIC5PEH6Ed8rCN0bTGZmaPx2a8zs1kSWHc6bD0F8fRhxVjVLtt9dqbr+vOqy8rxEpeB98tmZarWhdffasfv79gD9IbvlQpm2m1vqX17aelnOV10s8GU71uVDe32IO0nJOSlAbfI8mWTPOukzk4juncvIfgfiT5etadPUgxVYQFwgJhgbAAwgJhgbAAwgJhgbCAQ3Lxt8Jj2iFmKv9zcebhRMwXC+Wc3Z+UbKbkfNO3owgrhKB93+vP3//Qvu9dh2U56/TsVKummcT+XMWGZWZanJ7ot19+1ecffOL7RjZGXW42euPtt/TeZx/rcrNRjJGwbvgGS8nM9SLnnJWGpOz8OI7u5t37vZWnAT0+bgBhgbAAwgJhgbAAwgJhgbAAwgJhgbAAwgJhgbAAwgJhYQKKnSCNMWq3bfXiK3f17qcfjl+m8LrZYxhn+Jd1rd1ud/Tz7kWHJY2z4ovTEz3z3LPqu879iLKZKQ0DV6wi4rKsvuuOIiyJL6wWdzKuv5AAbt5BWABhgbBAWABhgbBAWABhgbBAWMAhsGuyI9fr4GAt2DXZEUum+WKhWFWE9aRRXe2a3DvfNflQYS0fPdJ2syl+LcL5vfu59Lhm85l4J7xaDykNSVb4RrnlD/rlrH7XSWIW6/GKSA5m03wM+lXVuKCTjyuPD/LcvB/ssvW3heWK5QGfY4GwQFggLICwQFggLICwQFggLICwQFggLICwQFggLICwQFggLICwQFggLICwQFggLOCJ/AU6RkjbVUfhEAAAAABJRU5ErkJggg==;" vertex="1" parent="1">
          <mxGeometry x="520" y="596" width="40" height="40" as="geometry" />
        </mxCell>
        <mxCell id="V3Jk48kscWsiEnofZRHU-49" value="" style="html=1;verticalLabelPosition=bottom;align=center;labelBackgroundColor=#ffffff;verticalAlign=top;strokeWidth=2;strokeColor=#6c8ebf;shadow=0;dashed=0;shape=mxgraph.ios7.icons.flag;fillColor=#dae8fc;" vertex="1" parent="1">
          <mxGeometry x="570" y="670" width="20" height="24" as="geometry" />
        </mxCell>
        <mxCell id="V3Jk48kscWsiEnofZRHU-50" value="" style="html=1;verticalLabelPosition=bottom;align=center;labelBackgroundColor=#ffffff;verticalAlign=top;strokeWidth=2;strokeColor=#6c8ebf;shadow=0;dashed=0;shape=mxgraph.ios7.icons.flag;fillColor=#dae8fc;" vertex="1" parent="1">
          <mxGeometry x="570" y="694" width="20" height="24" as="geometry" />
        </mxCell>
        <mxCell id="V3Jk48kscWsiEnofZRHU-54" value="" style="html=1;verticalLabelPosition=bottom;align=center;labelBackgroundColor=#ffffff;verticalAlign=top;strokeWidth=2;strokeColor=#6c8ebf;shadow=0;dashed=0;shape=mxgraph.ios7.icons.flag;fillColor=#dae8fc;" vertex="1" parent="1">
          <mxGeometry x="600" y="670" width="20" height="24" as="geometry" />
        </mxCell>
        <mxCell id="V3Jk48kscWsiEnofZRHU-55" value="" style="html=1;verticalLabelPosition=bottom;align=center;labelBackgroundColor=#ffffff;verticalAlign=top;strokeWidth=2;strokeColor=#6c8ebf;shadow=0;dashed=0;shape=mxgraph.ios7.icons.flag;fillColor=#dae8fc;" vertex="1" parent="1">
          <mxGeometry x="600" y="694" width="20" height="24" as="geometry" />
        </mxCell>
        <mxCell id="V3Jk48kscWsiEnofZRHU-56" value="" style="html=1;verticalLabelPosition=bottom;align=center;labelBackgroundColor=#ffffff;verticalAlign=top;strokeWidth=2;strokeColor=#6c8ebf;shadow=0;dashed=0;shape=mxgraph.ios7.icons.flag;fillColor=#dae8fc;" vertex="1" parent="1">
          <mxGeometry x="570" y="592" width="20" height="24" as="geometry" />
        </mxCell>
        <mxCell id="V3Jk48kscWsiEnofZRHU-57" value="" style="html=1;verticalLabelPosition=bottom;align=center;labelBackgroundColor=#ffffff;verticalAlign=top;strokeWidth=2;strokeColor=#6c8ebf;shadow=0;dashed=0;shape=mxgraph.ios7.icons.flag;fillColor=#dae8fc;" vertex="1" parent="1">
          <mxGeometry x="570" y="616" width="20" height="24" as="geometry" />
        </mxCell>
        <mxCell id="V3Jk48kscWsiEnofZRHU-58" value="" style="html=1;verticalLabelPosition=bottom;align=center;labelBackgroundColor=#ffffff;verticalAlign=top;strokeWidth=2;strokeColor=#6c8ebf;shadow=0;dashed=0;shape=mxgraph.ios7.icons.flag;fillColor=#dae8fc;" vertex="1" parent="1">
          <mxGeometry x="600" y="592" width="20" height="24" as="geometry" />
        </mxCell>
        <mxCell id="V3Jk48kscWsiEnofZRHU-59" value="" style="html=1;verticalLabelPosition=bottom;align=center;labelBackgroundColor=#ffffff;verticalAlign=top;strokeWidth=2;strokeColor=#6c8ebf;shadow=0;dashed=0;shape=mxgraph.ios7.icons.flag;fillColor=#dae8fc;" vertex="1" parent="1">
          <mxGeometry x="600" y="616" width="20" height="24" as="geometry" />
        </mxCell>
        <mxCell id="V3Jk48kscWsiEnofZRHU-60" value="" style="html=1;verticalLabelPosition=bottom;align=center;labelBackgroundColor=#ffffff;verticalAlign=top;strokeWidth=2;strokeColor=#6c8ebf;shadow=0;dashed=0;shape=mxgraph.ios7.icons.flag;fillColor=#dae8fc;" vertex="1" parent="1">
          <mxGeometry x="570" y="512" width="20" height="24" as="geometry" />
        </mxCell>
        <mxCell id="V3Jk48kscWsiEnofZRHU-61" value="" style="html=1;verticalLabelPosition=bottom;align=center;labelBackgroundColor=#ffffff;verticalAlign=top;strokeWidth=2;strokeColor=#6c8ebf;shadow=0;dashed=0;shape=mxgraph.ios7.icons.flag;fillColor=#dae8fc;" vertex="1" parent="1">
          <mxGeometry x="570" y="536" width="20" height="24" as="geometry" />
        </mxCell>
        <mxCell id="V3Jk48kscWsiEnofZRHU-62" value="" style="html=1;verticalLabelPosition=bottom;align=center;labelBackgroundColor=#ffffff;verticalAlign=top;strokeWidth=2;strokeColor=#6c8ebf;shadow=0;dashed=0;shape=mxgraph.ios7.icons.flag;fillColor=#dae8fc;" vertex="1" parent="1">
          <mxGeometry x="600" y="512" width="20" height="24" as="geometry" />
        </mxCell>
        <mxCell id="V3Jk48kscWsiEnofZRHU-63" value="" style="html=1;verticalLabelPosition=bottom;align=center;labelBackgroundColor=#ffffff;verticalAlign=top;strokeWidth=2;strokeColor=#6c8ebf;shadow=0;dashed=0;shape=mxgraph.ios7.icons.flag;fillColor=#dae8fc;" vertex="1" parent="1">
          <mxGeometry x="600" y="536" width="20" height="24" as="geometry" />
        </mxCell>
        <mxCell id="V3Jk48kscWsiEnofZRHU-64" value="" style="html=1;verticalLabelPosition=bottom;align=center;labelBackgroundColor=#ffffff;verticalAlign=top;strokeWidth=2;strokeColor=#6c8ebf;shadow=0;dashed=0;shape=mxgraph.ios7.icons.flag;fillColor=#dae8fc;" vertex="1" parent="1">
          <mxGeometry x="60" y="592" width="20" height="24" as="geometry" />
        </mxCell>
        <mxCell id="V3Jk48kscWsiEnofZRHU-65" value="" style="html=1;verticalLabelPosition=bottom;align=center;labelBackgroundColor=#ffffff;verticalAlign=top;strokeWidth=2;strokeColor=#6c8ebf;shadow=0;dashed=0;shape=mxgraph.ios7.icons.flag;fillColor=#dae8fc;" vertex="1" parent="1">
          <mxGeometry x="60" y="616" width="20" height="24" as="geometry" />
        </mxCell>
        <mxCell id="V3Jk48kscWsiEnofZRHU-66" value="" style="html=1;verticalLabelPosition=bottom;align=center;labelBackgroundColor=#ffffff;verticalAlign=top;strokeWidth=2;strokeColor=#6c8ebf;shadow=0;dashed=0;shape=mxgraph.ios7.icons.flag;fillColor=#dae8fc;" vertex="1" parent="1">
          <mxGeometry x="90" y="592" width="20" height="24" as="geometry" />
        </mxCell>
        <mxCell id="V3Jk48kscWsiEnofZRHU-67" value="" style="html=1;verticalLabelPosition=bottom;align=center;labelBackgroundColor=#ffffff;verticalAlign=top;strokeWidth=2;strokeColor=#6c8ebf;shadow=0;dashed=0;shape=mxgraph.ios7.icons.flag;fillColor=#dae8fc;" vertex="1" parent="1">
          <mxGeometry x="90" y="616" width="20" height="24" as="geometry" />
        </mxCell>
        <mxCell id="V3Jk48kscWsiEnofZRHU-68" value="" style="rounded=0;whiteSpace=wrap;html=1;fillColor=none;strokeColor=none;" vertex="1" parent="1">
          <mxGeometry x="40" y="840" width="600" height="360" as="geometry" />
        </mxCell>
        <mxCell id="V3Jk48kscWsiEnofZRHU-69" value="" style="sketch=0;pointerEvents=1;shadow=0;dashed=0;html=1;strokeColor=none;fillColor=#505050;labelPosition=center;verticalLabelPosition=bottom;verticalAlign=top;outlineConnect=0;align=center;shape=mxgraph.office.servers.server_generic;" vertex="1" parent="1">
          <mxGeometry x="173" y="990" width="27" height="52" as="geometry" />
        </mxCell>
        <mxCell id="V3Jk48kscWsiEnofZRHU-70" value="" style="shape=image;verticalLabelPosition=bottom;labelBackgroundColor=default;verticalAlign=top;aspect=fixed;imageAspect=0;image=data:image/png,iVBORw0KGgoAAAANSUhEUgAAAJYAAACWCAYAAAA8AXHiAAAA0GVYSWZJSSoACAAAAAoAAAEEAAEAAACWAAAAAQEEAAEAAACWAAAAAgEDAAMAAACGAAAAEgEDAAEAAAABAAAAGgEFAAEAAACMAAAAGwEFAAEAAACUAAAAKAEDAAEAAAACAAAAMQECAA0AAACcAAAAMgECABQAAACqAAAAaYcEAAEAAAC+AAAAAAAAAAgACAAIAEgAAAABAAAASAAAAAEAAABHSU1QIDIuMTAuMzQAADIwMjM6MTA6MDggMTY6MzE6MzMAAQABoAMAAQAAAAEAAAAAAAAA310CwgAAAYVpQ0NQSUNDIHByb2ZpbGUAAHicfZE9SMNAHMVfW6WltDjYQcQhQ/0Y7KIijlqFIlQItUKrDiaXfkGThiTFxVFwLTj4sVh1cHHW1cFVEAQ/QFxdnBRdpMT/JYUWMR4c9+PdvcfdO8DfrDLV7JkFVM0yMqmkkMuvCsFXhBFCFGMYlZipz4liGp7j6x4+vt4leJb3uT9HVCmYDPAJxLNMNyziDeLpTUvnvE8cY2VJIT4nHjfogsSPXJddfuNcctjPM2NGNjNPHCMWSl0sdzErGyrxFHFcUTXK9+dcVjhvcVardda+J39hpKCtLHOd5hBSWMQSRAiQUUcFVVhI0KqRYiJD+0kP/6DjF8klk6sCRo4F1KBCcvzgf/C7W7M4OeEmRZJA74ttfwwDwV2g1bDt72Pbbp0AgWfgSuv4a01g5pP0RkeLHwF928DFdUeT94DLHWDgSZcMyZECNP3FIvB+Rt+UB/pvgfCa21t7H6cPQJa6St8AB4fASImy1z3eHeru7d8z7f5+AK3ecr4DKaXQAAANeGlUWHRYTUw6Y29tLmFkb2JlLnhtcAAAAAAAPD94cGFja2V0IGJlZ2luPSLvu78iIGlkPSJXNU0wTXBDZWhpSHpyZVN6TlRjemtjOWQiPz4KPHg6eG1wbWV0YSB4bWxuczp4PSJhZG9iZTpuczptZXRhLyIgeDp4bXB0az0iWE1QIENvcmUgNC40LjAtRXhpdjIiPgogPHJkZjpSREYgeG1sbnM6cmRmPSJodHRwOi8vd3d3LnczLm9yZy8xOTk5LzAyLzIyLXJkZi1zeW50YXgtbnMjIj4KICA8cmRmOkRlc2NyaXB0aW9uIHJkZjphYm91dD0iIgogICAgeG1sbnM6eG1wTU09Imh0dHA6Ly9ucy5hZG9iZS5jb20veGFwLzEuMC9tbS8iCiAgICB4bWxuczpzdEV2dD0iaHR0cDovL25zLmFkb2JlLmNvbS94YXAvMS4wL3NUeXBlL1Jlc291cmNlRXZlbnQjIgogICAgeG1sbnM6ZGM9Imh0dHA6Ly9wdXJsLm9yZy9kYy9lbGVtZW50cy8xLjEvIgogICAgeG1sbnM6R0lNUD0iaHR0cDovL3d3dy5naW1wLm9yZy94bXAvIgogICAgeG1sbnM6dGlmZj0iaHR0cDovL25zLmFkb2JlLmNvbS90aWZmLzEuMC8iCiAgICB4bWxuczp4bXA9Imh0dHA6Ly9ucy5hZG9iZS5jb20veGFwLzEuMC8iCiAgIHhtcE1NOkRvY3VtZW50SUQ9ImdpbXA6ZG9jaWQ6Z2ltcDpjMjNmMDk0Yi02NmQ3LTQyY2EtOWVlYi00YTI2ZDdlZTM5NzIiCiAgIHhtcE1NOkluc3RhbmNlSUQ9InhtcC5paWQ6YTA0ZDlkZDMtODhiZi00ZGM4LWI1NjgtNDE1Njg1YjhhMDE1IgogICB4bXBNTTpPcmlnaW5hbERvY3VtZW50SUQ9InhtcC5kaWQ6ZWNjYTkxZDEtODMxNC00NmU4LWFjOTUtMWRiYmZjN2VlNjU1IgogICBkYzpGb3JtYXQ9ImltYWdlL3BuZyIKICAgR0lNUDpBUEk9IjIuMCIKICAgR0lNUDpQbGF0Zm9ybT0iTGludXgiCiAgIEdJTVA6VGltZVN0YW1wPSIxNjk2Nzc1NDk1MTgyNjkzIgogICBHSU1QOlZlcnNpb249IjIuMTAuMzQiCiAgIHRpZmY6T3JpZW50YXRpb249IjEiCiAgIHhtcDpDcmVhdG9yVG9vbD0iR0lNUCAyLjEwIgogICB4bXA6TWV0YWRhdGFEYXRlPSIyMDIzOjEwOjA4VDE2OjMxOjMzKzAyOjAwIgogICB4bXA6TW9kaWZ5RGF0ZT0iMjAyMzoxMDowOFQxNjozMTozMyswMjowMCI+CiAgIDx4bXBNTTpIaXN0b3J5PgogICAgPHJkZjpTZXE+CiAgICAgPHJkZjpsaQogICAgICBzdEV2dDphY3Rpb249InNhdmVkIgogICAgICBzdEV2dDpjaGFuZ2VkPSIvIgogICAgICBzdEV2dDppbnN0YW5jZUlEPSJ4bXAuaWlkOjVkMzhlN2IwLTFmMTktNDY0MS04NzVhLWUzMTIzZGIxZjk1MiIKICAgICAgc3RFdnQ6c29mdHdhcmVBZ2VudD0iR2ltcCAyLjEwIChMaW51eCkiCiAgICAgIHN0RXZ0OndoZW49IjIwMjMtMTAtMDhUMTY6MzE6MzUrMDI6MDAiLz4KICAgIDwvcmRmOlNlcT4KICAgPC94bXBNTTpIaXN0b3J5PgogIDwvcmRmOkRlc2NyaXB0aW9uPgogPC9yZGY6UkRGPgo8L3g6eG1wbWV0YT4KICAgICAgICAgICAgICAgICAgICAgICAgICAgICAgICAgICAgICAgICAgICAgICAgICAgICAgICAgICAgICAgICAgICAgICAgICAgICAgICAgICAgICAgICAgICAgICAgICAgIAogICAgICAgICAgICAgICAgICAgICAgICAgICAgICAgICAgICAgICAgICAgICAgICAgICAgICAgICAgICAgICAgICAgICAgICAgICAgICAgICAgICAgICAgICAgICAgICAgICAgCiAgICAgICAgICAgICAgICAgICAgICAgICAgICAgICAgICAgICAgICAgICAgICAgICAgICAgICAgICAgICAgICAgICAgICAgICAgICAgICAgICAgICAgICAgICAgICAgICAgICAKICAgICAgICAgICAgICAgICAgICAgICAgICAgICAgICAgICAgICAgICAgICAgICAgICAgICAgICAgICAgICAgICAgICAgICAgICAgICAgICAgICAgICAgICAgICAgICAgICAgIAogICAgICAgICAgICAgICAgICAgICAgICAgICAgICAgICAgICAgICAgICAgICAgICAgICAgICAgICAgICAgICAgICAgICAgICAgICAgICAgICAgICAgICAgICAgICAgICAgICAgCiAgICAgICAgICAgICAgICAgICAgICAgICAgICAgICAgICAgICAgICAgICAgICAgICAgICAgICAgICAgICAgICAgICAgICAgICAgICAgICAgICAgICAgICAgICAgICAgICAgICAKICAgICAgICAgICAgICAgICAgICAgICAgICAgICAgICAgICAgICAgICAgICAgICAgICAgICAgICAgICAgICAgICAgICAgICAgICAgICAgICAgICAgICAgICAgICAgICAgICAgIAogICAgICAgICAgICAgICAgICAgICAgICAgICAgICAgICAgICAgICAgICAgICAgICAgICAgICAgICAgICAgICAgICAgICAgICAgICAgICAgICAgICAgICAgICAgICAgICAgICAgCiAgICAgICAgICAgICAgICAgICAgICAgICAgICAgICAgICAgICAgICAgICAgICAgICAgICAgICAgICAgICAgICAgICAgICAgICAgICAgICAgICAgICAgICAgICAgICAgICAgICAKICAgICAgICAgICAgICAgICAgICAgICAgICAgICAgICAgICAgICAgICAgICAgICAgICAgICAgICAgICAgICAgICAgICAgICAgICAgICAgICAgICAgICAgICAgICAgICAgICAgIAogICAgICAgICAgICAgICAgICAgICAgICAgICAgICAgICAgICAgICAgICAgICAgICAgICAgICAgICAgICAgICAgICAgICAgICAgICAgICAgICAgICAgICAgICAgICAgICAgICAgCiAgICAgICAgICAgICAgICAgICAgICAgICAgICAgICAgICAgICAgICAgICAgICAgICAgICAgICAgICAgICAgICAgICAgICAgICAgICAgICAgICAgICAgICAgICAgICAgICAgICAKICAgICAgICAgICAgICAgICAgICAgICAgICAgICAgICAgICAgICAgICAgICAgICAgICAgICAgICAgICAgICAgICAgICAgICAgICAgICAgICAgICAgICAgICAgICAgICAgICAgIAogICAgICAgICAgICAgICAgICAgICAgICAgICAgICAgICAgICAgICAgICAgICAgICAgICAgICAgICAgICAgICAgICAgICAgICAgICAgICAgICAgICAgICAgICAgICAgICAgICAgCiAgICAgICAgICAgICAgICAgICAgICAgICAgICAgICAgICAgICAgICAgICAgICAgICAgICAgICAgICAgICAgICAgICAgICAgICAgICAgICAgICAgICAgICAgICAgICAgICAgICAKICAgICAgICAgICAgICAgICAgICAgICAgICAgICAgICAgICAgICAgICAgICAgICAgICAgICAgICAgICAgICAgICAgICAgICAgICAgICAgICAgICAgICAgICAgICAgICAgICAgIAogICAgICAgICAgICAgICAgICAgICAgICAgICAgICAgICAgICAgICAgICAgICAgICAgICAgICAgICAgICAgICAgICAgICAgICAgICAgICAgICAgICAgICAgICAgICAgICAgICAgCiAgICAgICAgICAgICAgICAgICAgICAgICAgICAgICAgICAgICAgICAgICAgICAgICAgICAgICAgICAgICAgICAgICAgICAgICAgICAgICAgICAgICAgICAgICAgICAgICAgICAKICAgICAgICAgICAgICAgICAgICAgICAgICAgICAgICAgICAgICAgICAgICAgICAgICAgICAgICAgICAgICAgICAgICAgICAgICAgICAgICAgICAgICAgICAgICAgICAgICAgIAogICAgICAgICAgICAgICAgICAgICAgICAgICAgICAgICAgICAgICAgICAgICAgICAgICAgICAgICAgICAgICAgICAgICAgICAgICAgICAgICAgICAgICAgICAgICAgICAgICAgCiAgICAgICAgICAgICAgICAgICAgICAgICAgIAo8P3hwYWNrZXQgZW5kPSJ3Ij8+xteEJAAAAAlwSFlzAAALEwAACxMBAJqcGAAAAAd0SU1FB+cKCA4fIy0y4zIAAAhxSURBVHja7Z1PjtxEFMbfK/eE7GCJ6FlMJGbFDUBCcRRzg74DWYUoOcBcYARZwRmYG8Sj8QgpG3Ys2CFlFtMLNghWISR2sehyx+20u9122a5X9X3SSFGUP66qn7/36rn+MHkoTcREZ+aHCibS9T9zGyd6jGc5zlLe/nykVr8kve35pIs9A0qZRhVTQNRGr7NXd0/pjzfbntsnyNgTmJiJ8vL3fiaKvoyTdxKef56ls+qzN70cAGu0UEeqNiCzZZy8lf2W6PPj68tnlTZFTaEcYNkHiqtvs0thbqjczLiYqDDJEoHyFaZ9kEkCjAEUAAsGLAAlHzB2EKqoTMoBVFvAFhHTRQ6wmssGmok0gDpIN8dZem/bxCZ4sPSqdICwZyk8ugAXTw0UXMo+YC64l5o4lyoAlV2VfclEhSmwhuFY1bcJQI3iXpPMHHlkqJBLBZJ78dhQ/U5f3Pk4/uwNhnwa9xoLLh4JqoiJcriUE3BF1Y/3YsECVGHCxQNDpZCkhxkWGVCFPmPUmomtj5ECVGHqNk70yrF4EHNhQAXnGiIsMqCChoCLARU0BFzKElQRoPIj57L1fZEtQAWngnPZBQtQAS7rYOnVPBVLXvyGi7uuilBdoSIiBlT+6hWd3CWictHgWMn7QknfAg7t1lF8+tqMcSewDv5L5Y4QuBXyLWtgIVkHXNZDYRlrM6IZujoslbWtQ/ItPuAfh1vBtVq7FgMqaAi4VAuozGL8M4WuDT4kqrYhsQ0szETFMn6Zo2vD1jJO8rYlCG7jVss4Qc0KWmuepeVxlrqrY7GPJ/pC/WSY4E6OVe6ghVtBO1yr8XwI1YJMCDqYDYXygkjdTP0AlYWBWxkSUUWfX714PzN58E2YoWezD04EOJrbblXt0K1TYE9Bk9LupqKp8461fPDNzk72yc32wSSpnbNNt9LMxMXy6wffag8GxvUBaAuSy7q9//B7vr58sjMU6gVFfOHWAR62Ot8VyGy0x7UXZttBI5uh8MK9VaH7QqHzbqb1+TxLnwYwvyi2OpbDJYab+dWLk6HhlRTilvcfPiKlfnTQtdZJvIRyw+BT695uNrYrOQZVY/JeJu1YHboJ2j7AKkA+Db3PNNGMidZ3RJqq6eoom1Pp9/1B0+XChp2yEo/Fe9Aw0dpk8IWmRYTugHqGw3XyrkrrWsZ/v0PXQD3DYV4Cpsizm+whJ8SKsFUesq9CMZHWRHectthAl8pI7AtNdIeJtMmvElxBAtnKs96sZ4V4U9EHg5QbIChosEJ2LWltV69O6C46GG22qds40eroXvIaHY222tZMeof7sLzXx5dn5ssA+AKYL2488+0NlwqYb+Hdu4V91QFyHTKfc0WvV4y6CFkoE49gliJPCVmIJZIg17jXB9o2aPj8hM0T1twMMG3K/ftwalurcNoM0TJOzonZ6Z1B7jtWrQNDOtKo0T0dh0p8KJR2CEhnkBAK3elwKZD5mtM5DxZOm5H50njrWC4NTIjljCDLDUPnZr6uuIBjje0GWj+fZ+njMfvEdddCgXQHxAecNgOoasJmCghgQWvdACxoCJ0ALAihEIIAFgSwoADBOs5SHLwGWdVxljIcC0IohAAWBLCI5ln6EboCsgqWXl1L8R+6ArKVuGsinhnXyn1s5ND7B6U/z5CGNaM919z7CtpYgxrodjU9K6+omGefzEK6nWIo9wh54+o8SyOi1RU65lo5UkwX+S0lzkIw+OWSPdxsTJhcBnd1J9PqPh2sIO0xeNhWv6fc8D4cpkfoEqhjGDyqsrQukBoLww1gUNcw+E5XeELlHRouFFYSL3Z1tQPyGXf7oCyKcuUmuU3HWsDBoP4m9SFYF7ogIuI8f4R+glpJ6x9MxMsbwWJirYnU/JernxAK0PZWYfD68onekqt7Hfpc/hbn+/kOasu0sdAOL1nGJU3OJe2Kt1z/jGQd6p5ekebWjgXXQlvbuhURMzdcVq92E0ksvcMl5zIuv0D72GgEy5DILm8PW8bJua+TCpfbZphodKs2OZZ22bUkHEvtW9v+/eufTw0TupNjGdfSzrtWi3DhUjhs5VYOh8DPf/v1T+NWO8Fqsx5LayJF2VfRMn6ZuwzXnkG7IceP/3F9UjLP0sgUQ/cuZ99bbijJZDorJCe786sXk0O1C3wRR2ybnIpbgNU6xJWFMAmH4dbv33FhAJugknAvTpmwNxVD+4LFRMTXROo0Tt5Knn25cs67mNszsrTczaW55a6ug5JyUa61Z2DHGtQp/++p3OpgsFZwLSKmi1waXGMPsg9AdYWqE1iSnWvXwNsa9A/+3Th5TsyPJfZRV6j6gMVExMs48WJrfu9LJuuXdQpJyNuUFw7Jq3qDVcLFRFqya/V1sWrh2Kd+qLgVc8cjGHpV1H0IiZDdEGgFLMAFqJrUe6GfWbsV4ZBcb6CK+kJlxbHgXHCqQcECXIBqMLAAF6AaDCzABaisJO87EnrceiEAqtVyO/sabPsX4HIdqkXERAUT64HGf1iZ6WuOsOhcSWHQz3GjuAngCguqQUNhjd58HRa1PscQT5qo5yON+XiqzkDgXuMBVe9778AyDVxvdgRcY838ui19EQVWPe+Ce9nXPEsVr+oIEU90nc1kp82s8q4zpR3fECs89OUTju/0Qu4lN5dyzrFqdBfaXHFnOugGqBycS7ErUDnjWMi9+rrUaueUS8/mZG5TnTkCsN1hb4oZn1iwAJhcoESABcCISOvnx9eX30kBShRYTYD5DFm1BCMJKJFg1QDbqNNootlSyGElO9zp/Pj68ll1IkNEBQu8Xll8YdK8zVyDLFrGiYgr8uZZOtt89kVEdKFdKRsEC9YWyKg+KK6Fy/qXhhImaeEuGLA2Q+WZ+dkeSsaCbdvnqjKU04FnTknS/4Osaxsssl71AAAAAElFTkSuQmCC;" vertex="1" parent="1">
          <mxGeometry x="120" y="996" width="40" height="40" as="geometry" />
        </mxCell>
        <mxCell id="V3Jk48kscWsiEnofZRHU-71" value="" style="shape=image;verticalLabelPosition=bottom;labelBackgroundColor=default;verticalAlign=top;aspect=fixed;imageAspect=0;image=data:image/png,iVBORw0KGgoAAAANSUhEUgAAAJYAAACWCAYAAAA8AXHiAAAQ4UlEQVR42u2de1SU9brHP3NBEAUlQ1IREDXdopiogZdirdKNprnzmqc0lTLt4uWclmxZtk0z107THaiRu86Gji5Nbeva3lbGUUtENNtb2js9goZiSkMKG8dEQME5f7yv4wwMOjMMyMw8n7WeBXN533fm+X3n+V3e3+/5afBeNEAXoCsQbmHtahmAH9BS/b8CqARMwL+BUgu7ABSqfwvU/03e6lxvQAv8BhgEDASigSggoJGv+ytwEvgB+A7IAU57g9g8WVg9gBHAb4HBQNtm8rnKVIFlAvuAMwjNPioNAVKBc2pUcAcrAFLUz66RYmw+9AH+BFx0IzHVZz+p36W3FOuDwR9IBI56gJjqsxxghvpdhUYmBFgClHiwoGqbUa3eQ6X4XU8X4C8W3XxvtErgUyBC5NBwOqu/Vm8WVG27CWwAIkUejtNKrfIqREj1WpX6owsUudg3rpYIGEQ4dtvPaiNfhirqoRtwQITitGWj3F0QVPTA29KOcolVAItUn3o1EeovTUThWjsOdPdWUc1AuUkrQmgcuwZM8yZB+arjMVL4TWMbvGH0vjPwrRR2k9sJdZDZIxkMXJFCfmB2GWU+mkcxHrghhdssbgv9h6eI6i3gthRqs7EaYL67i+r3UpDN1t53V1G9K4XX7G2lu90K+qMUmtvYh+4iqiVSWG5nf3CHhroUlHtas23QT1R7HFJI7mm3m+NQxECgXArHI2ZHDHaFIFzRIwgH/g48jOAJXAEGoCxFcxptAz+EH/BXEZVHEQzs5G6uigcirI9UdQuexWPAnx/UxWdIm8Tj7aWmbmNFAt/T+NlahAfLdSAGONsUVaEe2CSi8gpaq2Xt4+iBOicultyQECm4HZ3UYYjsxqwKHwX+qfYGBe+hCuiHkjTO5VWhFvhvEZVX4gt87EggckRY04EnxMdeS7wjTSB7FRgA5AMdxL9ezS9qc+iaqxrv76Lk8xSkl2gCDroiYoWp0UraVgIoCzK6A5caGrE+AGLFn4KKHmUB7N6GRKwINVq1EH8KFtwCeqJkp3aqV/gHEZVgAx+UgXKnIlYIypYd0rYSbFGFsmzf4GjEmieiEu6BL/CGoxGrFcoMwofEf8I9+DdKopcb9kas50VUgh08pGrF7qpwpvhMsJNX7K0K+wD/En8JDtAbOHW/iDVD/CQ4yPT7RSyNOsQQJr4SHOAiyjJAU30Ra4iISnCCzkCc5RO184FPdOXVwsLCeOSRRxw+7urVq5w54/qNRx977DFatHD8RsK5c+coKSlRHKbX8+KLLzp1/b1795rP44FMQtnmz6awRrvySh07diQ6OtrxuHrxYqMIKyoqilatWjl8nNFoNAvCx8eHCRMmOHX9Y8eOebKwfgf8p62qsAeyo5TgPF1Qtq2pI6yR4huhgYywJazh4hehgfy2trA0eGAOcKHJGXpHU3eEFQUEiV+EBhKkttXNwhosPhFcxGBLYfUXfwguYoClsKLFH4KL6HNHWBq1jSUIrqA3oNGirMSRlESCq2gDdNZiMVoqCC6i652IJQiuJEKPMo/GKyguLqZlS8eTAd+4cUOk4hjhepS5NF7BgQMHpMibSFhalLzeguBKHtYiyf+FRhCWHmjX3D9l//79efhhx/VfWFhIfn6++XF8fDx+fo4v7j558iRFRUUu/U6dOnUiMTHRqWNXrFjBzZs3AWVW7LPPPuvwOYxGI2vWrGmsImunxw3GsEJCQggNDXXKeZaEhoY6NYO0sLDQ5d+pdevWPP74404dq9PdzT4VHBzs1HkaeSZrGy3KGnxBcCUttEiaIkGEJbgJvlrxgdAYaIGb4gbBxVSJsITG4KYWJeWfILg8Yl0TPwguxqgFSsQPgosp0QKl4gfBxZRKxBIaTVg/iR8EF3NBD1xorLMXFxdb3TC1l7KyMqvHhYWFdW4o23t9S/Lz8/H19W3Q56murmbPnj1O+cPyPGVlZU6fp7q62vz/Tz/95NR5rl+/3qjC0qAkA8mUH5ngQp7SAj+KHwQXU6BBWbB6FQgUfwguwAgE6VEy3Z6iGacxio+Pp0MHx3cNzsvL4/vvvzc/XrRoEeHh4Zw+fZoPP/zQ5jFRUVHMmzcPgNWrV1vNQL0f/fv3Z9u2bQC88MILfPvtt3YdFxYWxty5c3nyyScJCAjAYDBw4MAB0tPTMRgM7iask4DpTg7SfzVnYbVq1YrAQMcDau1pyOPHj6dfv34cPHiwXmGFhYUxc6ayMceWLVscEpafnx+RkUq2TXuXmQ0dOpS9e/eSn5/Ptm3b+OWXX+jWrRtTpkwhOTmZ5ORk1q5d607C+gHuJrf9h0Twpkev17Np0yZ27drFSy+9hMlkTpPOu+++y5tvvsmsWbNIT0+nvLzcXb7Wd5bCypFivjc6nY5BgwYRERFBSUkJWVlZ3Lhxgw4dOtCyZUsqKyttHte9e3diYmKorq7m6NGj/Pzzz1ZVZ1hYGMuWLbMSFUBNTQ2pqamkpaVx69Ytq9d8fHwYMmQIoaGhlJaWcvjw4XsOH0RGRhITE4OPjw8nTpxwKAo7wRFLYf0fyhZhsuOXDeLi4tiwYQPdu3e/20I1Gpk7dy5Tpkxh+PDhHDp0iEWLFplfDwgIYOvWrUyaNMlKLGlpabz11lvcunXLXF3ea6yvtqjGjRvH2rVrCQoK4uzZs7Rt25agoCCSkpJYv3691XtDQ0P55JNPSEhIIC8vj5qaGnr16sWhQ4d45ZVXOH/+vKtdVQqcgbv5sUxYJH8X7tKjRw8yMzPNoioqKiInJweTyURGRgYxMTE2j1u3bh2TJk3iwoULHD9+nIqKCnQ6HXPmzOHjjz9W6ozvvqO0tJSNGzfSs2fP+36WyZMn8/nnn5OamkpgYCB9+/YlPDyc6dOns3z5cmbMuLsNUseOHcnJyUGv19O1a1eioqKIjo6mc+fOGI1G4uPjGytamSyFBfC/3iKWoUOHUlxcbNM2bdpk9d6lS5cSEKCskEtKSqJz587mamjLli20a2d7WWZoaCiJiYlEREQQGxtLZGQkR44cAeDll1+mX79+lJeXM378eIKDgzl16hRff/01CxYsICqqbrqyNm3akJaWxttvv83KlSutRt937NjB66+/zsqVK80dltTUVC5fvszo0aOtlq8ZDAbGjRvHZ5991hiuNWvIUlj7vEVYLVq0ICQkxKYFBd3N8avRaHjmmWcAOHz4MB988IG5LVReXs6rr75a762mzZs3k5GRYX5cXFzM1KlTzVXbxInK7jKHDh3i0UcfZebMmVy7do133nmHkydPUlBQwKxZs9DrldbK2LFj0el0pKSk2Lzetm3bMJlMPPXUUwQHBzN27FiWLl1qXtjaRJg1ZLnlST7KdvcevztFfn5+vauAe/XqxRtvvGEePrgTrU6cOFHnveXl5Zw+fZq4uLg6r2Vm1r1Ldv78ec6cOUNUVJRV1VdVVUV6ejrp6en4+vryxBNPMG3aNNatW8f48eMZOXIk0dHRGI1Gli1bVu/3qqyspG/fvlRVVaHT6cjKympKt57D4i5O7b10dqNsMu7RFBUVkZaWZvO1kSNHmoVVWVlJVVUVvr6+dOnSpc57tVotERER9RayLSoqKsw9O1tUVVWxf/9+9u/fz9atW9m9ezfjxo1Dp9Oh0WisImptvvzyS/Lz883nbuJotdNqKKXWi194g7DsxWQykZWVxfDhwxk1ahTDhg1j//795tcXLlxY7+5msbGxfPHFF1bPtW3bll69epmj1/3Ys2cP586do3fv3uTn56PX65k9e3adoYna3BF7v379yMlpspGkrVY/ulov5iDzs6x47733qKmpQafTsW/fPnbu3ElKSgo5OTksX77cqhFtyWuvvWbVY9Tr9aSkpODv7w8oW8xFR0czaFD9Nzz8/PwIDg7GYDCwY8cO2rRpw+TJk+/7mQsLCzly5AgLFixoKjddBI7fS1gm4K8ip7tkZWUxc+ZM83DBmDFjmDdvHnFxcaSkpPDNN9/U3/c+coQtW7awZs0acnNzmTZtmvmcmZmZTJ06lYMHD7J48eI6t6wCAwPJyMigurqa7du3U1xczOLFi/noo49ISEioUyXPmDGDhQsXmp+bM2cOCQkJrFixwqra1Wq1JCUlMWLECFe6aQsWu6vaqgoBMoD/EklZOCQjg8zMTCZNmkRkZCRXrlxhz549nDhxwtyor92mmjt3LklJSTz//PNWzx87doyJEydiMplISkri7NmzLFmyhOTkZI4ePcqlS5do3749AwcOpLKykjFjxnDlyhUAVq1ahV6vZ+fOnWRnZ3Pq1CmCgoKIj4/H19eX+fPnm6+Tm5tLQkICmzdvZvLkyWRmZlJdXc3TTz9NYGAg06dPd6WL/qf2E5p63niUWluxPkjCwsJo3bq1w8eVlJRw+fJl8+PRo0fTrl07DAaDzV4bKHmrhg0bBsBXX31FcXExnTp1wmAwcPv27TrtqOzsbPR6PatWrWL16tWMGTPG3D4qKytjwoQJDBgwgOrqag4fPsyuXbvqnKdFixbEx8cTGxtLSEgI169fJzc3l927d5sb+7X9MXHiRLp27YrRaOT48ePs27fP5nv9/f157rnnGDhwIFqtltzcXLZv386vv/7qykHRofYKKxH4i8QqhezsbFq2bMnGjRvJy8vD39+fuLg4Zs+eTUBAABUVFfTp04eCggJvdE+iWsvZhT/KfR+Tt1v79u1Nly5dMtXH1atXTaNGjfJW/5SoWqlDfXc/b6HMKH3S26NVeXk569evp6CggIqKCqqrq7l27Ro//PAD6enpJCYmkpub663uWU096yU09zioPcoKHj8EoS5VKJtPFNt68V75sS4Dm8R/Qj1sqE9U94tYoOxacQbJ+ifUbSr1AOq9fXC/jH4XHGnxC17Dp/cSlT0RC5QtUc5IW0tQqQC6A/dMfG/P+vdrQCvgCfGpALwP7LrfmzR2nqy1GrU6iF+9miK1bXXfJUP2Zuy4ibLY4nfiW6/mTeDvrj6pBjiAjMZ7q33jQA1n/xtVHgX+KQ15r6MKeAzIs/cAR5NX3Ukr+ZT42qtYDPzN0erNUfRAFs0414PgUr4DhqAMijaqsEBZyZOLpD7ydK4DMcBZRw/UOXnBMsAAPCe+92heVhvtTc6n0lvyWFv/IBXti7I6QwrCs+xbGrhBqsYF4gpXG3jBUnN4BJeBAShLupzGFfsVXgBGATekTNyeCrXdfLE5fagJQI1UI25rNcC45qr4+VJAbmtz3WGUVgrKvWyRu9TVf5TCchv70N0agkul0Jq9rXDXXsbvpfCarb3v7l3Y+dJbbHa9vzmeMj4yFmU6qxTsg7UK4HlPG3wbpI7qSgE/GPsFiPXUkd1QlBRJUtBNa/9AWQ7v0fgCqVLYTWYbgJZ4ES+h7G0nhd84ZgSmeOtNz3CUac4iBNdPe+nm7XfU9UCy2mMRUTTMbqi+1COY6YqyF4sIxDnLAnqKjGyjAaahLOUWsdhnRcBUXDNp0+PxB5aooV3EY9uq1N51gMjFuXGvVGl/WdlN4M9AJ5FHw4lAWRFU6cWCqlQFFS5ycD3t1SqyxIsEdVWN2hKhmqgNNoO7W8V6oh1Rv6O/FPeDIQpYhbJayN3FVAisBHpJsTavoYpBKFNtf3QjMZ0F/oSyd5HGkwrDU+kGjAASgMHAQ83kc5Wi7Av5lWo/euqv3FuiWU9VYAOBPmoV2qaRr2sETqp2HGXKUB619vYTYXnmMEak2oUPVx+3q2ValA0UWqnHlKtjSbfV6GNphWpbrxBl8+0L3urY/wexPJFwuq+QOQAAAABJRU5ErkJggg==;" vertex="1" parent="1">
          <mxGeometry x="517" y="1076" width="40" height="40" as="geometry" />
        </mxCell>
        <mxCell id="V3Jk48kscWsiEnofZRHU-72" value="" style="shape=image;verticalLabelPosition=bottom;labelBackgroundColor=default;verticalAlign=top;aspect=fixed;imageAspect=0;image=data:image/png,iVBORw0KGgoAAAANSUhEUgAAAJYAAACWCAYAAAA8AXHiAAAA0GVYSWZJSSoACAAAAAoAAAEEAAEAAACWAAAAAQEEAAEAAACWAAAAAgEDAAMAAACGAAAAEgEDAAEAAAABAAAAGgEFAAEAAACMAAAAGwEFAAEAAACUAAAAKAEDAAEAAAACAAAAMQECAA0AAACcAAAAMgECABQAAACqAAAAaYcEAAEAAAC+AAAAAAAAAAgACAAIAEgAAAABAAAASAAAAAEAAABHSU1QIDIuMTAuMzQAADIwMjM6MTA6MDggMTY6Mzc6MjcAAQABoAMAAQAAAAEAAAAAAAAA46AYfwAAAYVpQ0NQSUNDIHByb2ZpbGUAAHicfZE9SMNAHMVfW6WltDjYQcQhQ/0Y7KIijlqFIlQItUKrDiaXfkGThiTFxVFwLTj4sVh1cHHW1cFVEAQ/QFxdnBRdpMT/JYUWMR4c9+PdvcfdO8DfrDLV7JkFVM0yMqmkkMuvCsFXhBFCFGMYlZipz4liGp7j6x4+vt4leJb3uT9HVCmYDPAJxLNMNyziDeLpTUvnvE8cY2VJIT4nHjfogsSPXJddfuNcctjPM2NGNjNPHCMWSl0sdzErGyrxFHFcUTXK9+dcVjhvcVardda+J39hpKCtLHOd5hBSWMQSRAiQUUcFVVhI0KqRYiJD+0kP/6DjF8klk6sCRo4F1KBCcvzgf/C7W7M4OeEmRZJA74ttfwwDwV2g1bDt72Pbbp0AgWfgSuv4a01g5pP0RkeLHwF928DFdUeT94DLHWDgSZcMyZECNP3FIvB+Rt+UB/pvgfCa21t7H6cPQJa6St8AB4fASImy1z3eHeru7d8z7f5+AK3ecr4DKaXQAAANeGlUWHRYTUw6Y29tLmFkb2JlLnhtcAAAAAAAPD94cGFja2V0IGJlZ2luPSLvu78iIGlkPSJXNU0wTXBDZWhpSHpyZVN6TlRjemtjOWQiPz4KPHg6eG1wbWV0YSB4bWxuczp4PSJhZG9iZTpuczptZXRhLyIgeDp4bXB0az0iWE1QIENvcmUgNC40LjAtRXhpdjIiPgogPHJkZjpSREYgeG1sbnM6cmRmPSJodHRwOi8vd3d3LnczLm9yZy8xOTk5LzAyLzIyLXJkZi1zeW50YXgtbnMjIj4KICA8cmRmOkRlc2NyaXB0aW9uIHJkZjphYm91dD0iIgogICAgeG1sbnM6eG1wTU09Imh0dHA6Ly9ucy5hZG9iZS5jb20veGFwLzEuMC9tbS8iCiAgICB4bWxuczpzdEV2dD0iaHR0cDovL25zLmFkb2JlLmNvbS94YXAvMS4wL3NUeXBlL1Jlc291cmNlRXZlbnQjIgogICAgeG1sbnM6ZGM9Imh0dHA6Ly9wdXJsLm9yZy9kYy9lbGVtZW50cy8xLjEvIgogICAgeG1sbnM6R0lNUD0iaHR0cDovL3d3dy5naW1wLm9yZy94bXAvIgogICAgeG1sbnM6dGlmZj0iaHR0cDovL25zLmFkb2JlLmNvbS90aWZmLzEuMC8iCiAgICB4bWxuczp4bXA9Imh0dHA6Ly9ucy5hZG9iZS5jb20veGFwLzEuMC8iCiAgIHhtcE1NOkRvY3VtZW50SUQ9ImdpbXA6ZG9jaWQ6Z2ltcDpmNTljMmMyNi02ZDJlLTRmOWItYmNiZC1mYmUyZTdhZWJjYTgiCiAgIHhtcE1NOkluc3RhbmNlSUQ9InhtcC5paWQ6NWMyYzY5OWYtNDFjNy00MTU1LTk4NWYtZjI1NzU0NjIyZjU2IgogICB4bXBNTTpPcmlnaW5hbERvY3VtZW50SUQ9InhtcC5kaWQ6YWZiZDQyNTUtYjhhMi00MTJmLTk0MTktZDk1NmI0MWQxY2QxIgogICBkYzpGb3JtYXQ9ImltYWdlL3BuZyIKICAgR0lNUDpBUEk9IjIuMCIKICAgR0lNUDpQbGF0Zm9ybT0iTGludXgiCiAgIEdJTVA6VGltZVN0YW1wPSIxNjk2Nzc1ODQ4ODUxODM2IgogICBHSU1QOlZlcnNpb249IjIuMTAuMzQiCiAgIHRpZmY6T3JpZW50YXRpb249IjEiCiAgIHhtcDpDcmVhdG9yVG9vbD0iR0lNUCAyLjEwIgogICB4bXA6TWV0YWRhdGFEYXRlPSIyMDIzOjEwOjA4VDE2OjM3OjI3KzAyOjAwIgogICB4bXA6TW9kaWZ5RGF0ZT0iMjAyMzoxMDowOFQxNjozNzoyNyswMjowMCI+CiAgIDx4bXBNTTpIaXN0b3J5PgogICAgPHJkZjpTZXE+CiAgICAgPHJkZjpsaQogICAgICBzdEV2dDphY3Rpb249InNhdmVkIgogICAgICBzdEV2dDpjaGFuZ2VkPSIvIgogICAgICBzdEV2dDppbnN0YW5jZUlEPSJ4bXAuaWlkOmI0YjUzOWNiLTg2ZTYtNGViMC04NDY0LWNjNzQyM2ZiNTE0ZiIKICAgICAgc3RFdnQ6c29mdHdhcmVBZ2VudD0iR2ltcCAyLjEwIChMaW51eCkiCiAgICAgIHN0RXZ0OndoZW49IjIwMjMtMTAtMDhUMTY6Mzc6MjgrMDI6MDAiLz4KICAgIDwvcmRmOlNlcT4KICAgPC94bXBNTTpIaXN0b3J5PgogIDwvcmRmOkRlc2NyaXB0aW9uPgogPC9yZGY6UkRGPgo8L3g6eG1wbWV0YT4KICAgICAgICAgICAgICAgICAgICAgICAgICAgICAgICAgICAgICAgICAgICAgICAgICAgICAgICAgICAgICAgICAgICAgICAgICAgICAgICAgICAgICAgICAgICAgICAgICAgIAogICAgICAgICAgICAgICAgICAgICAgICAgICAgICAgICAgICAgICAgICAgICAgICAgICAgICAgICAgICAgICAgICAgICAgICAgICAgICAgICAgICAgICAgICAgICAgICAgICAgCiAgICAgICAgICAgICAgICAgICAgICAgICAgICAgICAgICAgICAgICAgICAgICAgICAgICAgICAgICAgICAgICAgICAgICAgICAgICAgICAgICAgICAgICAgICAgICAgICAgICAKICAgICAgICAgICAgICAgICAgICAgICAgICAgICAgICAgICAgICAgICAgICAgICAgICAgICAgICAgICAgICAgICAgICAgICAgICAgICAgICAgICAgICAgICAgICAgICAgICAgIAogICAgICAgICAgICAgICAgICAgICAgICAgICAgICAgICAgICAgICAgICAgICAgICAgICAgICAgICAgICAgICAgICAgICAgICAgICAgICAgICAgICAgICAgICAgICAgICAgICAgCiAgICAgICAgICAgICAgICAgICAgICAgICAgICAgICAgICAgICAgICAgICAgICAgICAgICAgICAgICAgICAgICAgICAgICAgICAgICAgICAgICAgICAgICAgICAgICAgICAgICAKICAgICAgICAgICAgICAgICAgICAgICAgICAgICAgICAgICAgICAgICAgICAgICAgICAgICAgICAgICAgICAgICAgICAgICAgICAgICAgICAgICAgICAgICAgICAgICAgICAgIAogICAgICAgICAgICAgICAgICAgICAgICAgICAgICAgICAgICAgICAgICAgICAgICAgICAgICAgICAgICAgICAgICAgICAgICAgICAgICAgICAgICAgICAgICAgICAgICAgICAgCiAgICAgICAgICAgICAgICAgICAgICAgICAgICAgICAgICAgICAgICAgICAgICAgICAgICAgICAgICAgICAgICAgICAgICAgICAgICAgICAgICAgICAgICAgICAgICAgICAgICAKICAgICAgICAgICAgICAgICAgICAgICAgICAgICAgICAgICAgICAgICAgICAgICAgICAgICAgICAgICAgICAgICAgICAgICAgICAgICAgICAgICAgICAgICAgICAgICAgICAgIAogICAgICAgICAgICAgICAgICAgICAgICAgICAgICAgICAgICAgICAgICAgICAgICAgICAgICAgICAgICAgICAgICAgICAgICAgICAgICAgICAgICAgICAgICAgICAgICAgICAgCiAgICAgICAgICAgICAgICAgICAgICAgICAgICAgICAgICAgICAgICAgICAgICAgICAgICAgICAgICAgICAgICAgICAgICAgICAgICAgICAgICAgICAgICAgICAgICAgICAgICAKICAgICAgICAgICAgICAgICAgICAgICAgICAgICAgICAgICAgICAgICAgICAgICAgICAgICAgICAgICAgICAgICAgICAgICAgICAgICAgICAgICAgICAgICAgICAgICAgICAgIAogICAgICAgICAgICAgICAgICAgICAgICAgICAgICAgICAgICAgICAgICAgICAgICAgICAgICAgICAgICAgICAgICAgICAgICAgICAgICAgICAgICAgICAgICAgICAgICAgICAgCiAgICAgICAgICAgICAgICAgICAgICAgICAgICAgICAgICAgICAgICAgICAgICAgICAgICAgICAgICAgICAgICAgICAgICAgICAgICAgICAgICAgICAgICAgICAgICAgICAgICAKICAgICAgICAgICAgICAgICAgICAgICAgICAgICAgICAgICAgICAgICAgICAgICAgICAgICAgICAgICAgICAgICAgICAgICAgICAgICAgICAgICAgICAgICAgICAgICAgICAgIAogICAgICAgICAgICAgICAgICAgICAgICAgICAgICAgICAgICAgICAgICAgICAgICAgICAgICAgICAgICAgICAgICAgICAgICAgICAgICAgICAgICAgICAgICAgICAgICAgICAgCiAgICAgICAgICAgICAgICAgICAgICAgICAgICAgICAgICAgICAgICAgICAgICAgICAgICAgICAgICAgICAgICAgICAgICAgICAgICAgICAgICAgICAgICAgICAgICAgICAgICAKICAgICAgICAgICAgICAgICAgICAgICAgICAgICAgICAgICAgICAgICAgICAgICAgICAgICAgICAgICAgICAgICAgICAgICAgICAgICAgICAgICAgICAgICAgICAgICAgICAgIAogICAgICAgICAgICAgICAgICAgICAgICAgICAgICAgICAgICAgICAgICAgICAgICAgICAgICAgICAgICAgICAgICAgICAgICAgICAgICAgICAgICAgICAgICAgICAgICAgICAgCiAgICAgICAgICAgICAgICAgICAgICAgICAgIAo8P3hwYWNrZXQgZW5kPSJ3Ij8+WkOGNwAAAAlwSFlzAAALEwAACxMBAJqcGAAAAAd0SU1FB+cKCA4lHL79EHYAACAASURBVHja7X15eFNV+v/nJjdrm65p0pbSAoWyVLayiOyFUqCAyrANz4iKOLKMiAsIMjigg4JfUb5+YRBccBlwQMARKvtSkK1SShG6sXWhK3RNl6RJk5zfHzPn/m7SlCZpCmnp+zz3qZLt3nM+510+5z3vy6BdOElPTyc3b97EvXv3cP/+fZSVlSE/Px9FRUUoKSlBZWUlamtrUVdXB5PJBIZhIBKJIJVKoVAo4OPjg4CAAAQGBiI4OBg+Pj5QKpUICAhAaGgonnzySeZxGUvmcQZSSkoKuXXrFuLj45GSkoJ79+6hpKSkRX5LoVBApVJBrVZj1KhReOqppxASEoLQ0NCPlErlivZl3colMzOTvPnmmyQqKoqwLEsANLgEAgERCoVEKBQSgUBABAIBYRiGMAxj8/0AuNf5n6Wfb+xzLMuSrl27kqlTp5Ivv/yS5Ofnk/YZamWye/duMn78eCIWiy0m1xoADwKPsxcfdHzgWb9PLpeTYcOGkZUrV5Lr16+3g8yd5dSpUyQ6OtommFoCRI4CTiAQEJZliUAgsHjNw8ODjBkzhmzevLldk7mbvPvuuw3M26MEkr1AE4lEFv8eEhJCli1bRq5du9YOsEchWVlZ5Pjx42Tbtm0kLi6OA5S1NmgNF1+b8TXtyy+/TFJTU9sB1tJy/vx5snz5chIREUEUCoWFeXuQ49yaLmttK5FIyMKFC0lBQUE7wFwt8fHxZPTo0Q3MRmvWUvZcfA0WHBxMtm7d2g4uV8itW7fIjBkzGgw2jbzagoayx0zyNdjkyZPJ7du32wHmrBw/fpx06tTJwjy4Akh8UPLpAJZlG1ARfN+H/3pL0hUPMpFUg3Xo0IH88ssv7eByVHbs2MGt0saITWdWfUtEinTCHxbI+M/w6aefugW4WsWWzt69e8nMmTNBCAHDMDCbzc49LMNAIBDAbDaDEMvxl8vlUCgUUCqViIyMRNeuXREaGgqZTAaRSASWZbnP1tfXo76+HtXV1cjJyUFGRgYyMjKg0WhQVVUFo9Fo8d0CgQAMw8BkMrXYGAkEAgCA2WzGG2+8gY0bNzLtwHqAXLx4kURHR0Ov1zcbVHwweXp6YuzYsejTpw9CQ0MRFhaG0NBQKJVKDggCgQCEEO7ifxfD/Gfo6GsGgwEFBQXIzs5GTk4Obty4gSNHjiAvL8/m55x9DnsWjslkwsKFC/H5558z7cCyISUlJT+OGjVqRnp6OoRCodMrnmoahUKBOXPmYMiQIRgwYABUKhUkEgmMRiOnhai2sdZoTU0ozXQQiUQQi8UghKC8vBy///47EhISkJSUhIsXL3KfEQqFIIS4HGAMw0AoFMJoNGLFihVYv3490w4sK3nllVfIF198AZZlG5gXR0GlUqnw5ZdfIiYmBlqtlgMSTX/hX86KtXYTi8XcpdVqkZycjN27dyMhIQH5+fkWoHQlwPia6+uvv8a8efOYdmD9V06cOEHi4uJgNpthMpkc0iDWoAoJCcHOnTvRp08flJeXQygUNhtEjgJNKBTCw8ODamIcOHAA33zzDTIyMhr4SK7yuQghkMlkOHfuHKKioph2YAEYOnQouXDhgtMmkIJKrVZj37596NmzJzQaDViWfSTPwweZWCyGp6cnysrKcObMGWzZsgVJSUmcibQVXDRHW/fu3RvXr19/qHMtcNco8MKFC9zAODugPj4+2LFjByIjIx8pqPjmifo/5eXlYFkWU6dOxb59+/DVV1+hT58+nHYWCoXN/k2z2QyWZXH9+nVs2LCBPPYaa8iQISQxMdEpbUVNnEAgwPbt2/HMM8+gtLQUIpHILTWzyWSCUCiEQqFAdXU1duzYgW3btiE3N5fTYM2hKai59/b2RkpKCjp37vxQ5lzobgN94cIF8ve//91pf4Nqq5UrV+Lll19+KKDimzlb1IQ9vpBOp4NQKMTw4cMxdepU6PV6pKamwmg0Nlt7CYVC6HQ6SKVSnD9//r3HElg6nW7NtWvXwLKsw8Ci/sm4cePw8ccfQ6PRuMSkPAhQNPqjRKpYLIZIJIJQKOQcclsRIx90lDcjhECr1UIulyMuLg4jR47EzZs3uQiSUhTOaC2GYZCXl4fbt29Hfvzxx3seK1OYlZVFoqKiUFlZ2YDQtHfwvL29cfjwYXTu3BlarbZFgEUBIpFI4OXlBZlMZlMzmc1m7iKEwGQyQa/Xw2AwwGQyWbxmTbqazWZ4eXmhrq4O3377LT744ANotVoL0rapseAvTGpSt27digULFrT4vLPuBKzExERUVlY65bTTgVy6dCl69eqF0tLSFnHWzWYzByi5XN4AcHyACQQCC60FgPsM3Rqi5CwFHAWNQCBAdXU1BAIBXn31VQwdOhRr1qzBmTNnLEy+rXGg32G9OBmGwc8///z4Oe9PP/00iY+P58g9R/2qyMhIHDp0iFvVrgaUUCiEl5cXFApFi3BgRqMRdXV1MBgMHNCog+/l5QWTyYTNmzdj48aNqK2tbeDYUyAFBwcjNDQUiYmJ3L/RMQoLC8PVq1fDfX19sx4LYGVlZZH+/ftDo9E4bAYpkLZv346pU6eioqLCpSbQbDZDJpPBz8/voVEWZrMZBoMBWq0WBoMBOp0ODMPAz88Pv/76K5YuXYobN25YLCJCCEQiEfbu3Yvu3btj+PDhKC8vb6BNDx06hAkTJrTo3LsNj3Xy5EloNBqHtQ1dif3798e4ceNQVVXlUlARQuDj4wOVSvVQeTCBQACpVAo/Pz+o1WoEBgbCw8MDFRUVGDJkCH755RdMnz6dM4fUr9qyZQtGjBgBlUqF1atXN/CzzGYzx/Y/FsBKS0vjBtQZnua5556Dp6eny1JTKLgDAgLg7e39SMeGYRjIZDIEBAQgJCSEM8lbt27Fhg0bIJVKYTab8T//8z+YMWMGKisrUVVVhVmzZmHixIkwm80WPll6evrj42NFRkaStLQ0hxx3+t7w8HAcP34cYrGY21RuLqgEAgGUSiWkUqnbEquUmti7dy9u3LiBV199FTU1NVwgI5PJkJeXh5iYGI56MRqNGD16NE6fPt32TWF6ejqhq8gZpzsmJgY+Pj6or693iVPt7qCiWz4KhQIAMGvWLCxduhRVVVXc+AkEAtTW1qJr16545513LMa1tLT08TCF+/fv5wbLGWDFxsbCbDa7LFLz9fV1W1DxzT/1mwBAKpVCrVZDKpVydAPLstBoNHjxxRcxevRoLvWoJTNZ3QpYqampDQasKaGOaN++fTF48GAuampuJKZQKLj0ltYkAoEAMpkMarUa/v7+3CKl1wcffAA/P78WTxVyK2BlZWU5bQZHjBjhEjNICIFUKn3kjrorxMPDg1scAoEAWq0Wffr0wWuvvcbtGLR5YOXk5BAaETrCtlN1HhUVBb1e73A0acu0+Pj4PLQV3dLCN+VCoRAVFRV45ZVX0LFjR47batPAys3NRVVVlVNsuVgsRmRkJIxGY7MAYTKZIJfLH8pKflgikUggEok4YtRoNMLT0xN/+MMfkJeXh4yMDNKmgbV//36H/SuqnSIjIxEcHIz6+vpm+ydeXl5oS0K5LwosgUAAvV6PkSNHghCCo0ePtm2NdenSJaeAAAAjR46Et7d3szQW9TncNRGwOSIWi7ntMXqusVu3bvDy8kJ8fHzbBhat+emIGaTvDQ8Pd3hfsTGnva34VtbAoi4GwzDQ6XTo3LkzRo4cidOnT+Pu3bukTQIrNTWVFBUVOQQsuvLEYjHCwsJQV1fXLMedhultUejpbesFGR0dDZPJhFu3brVNjXX37l2nHXeFQoGgoKBm0Qz0xExbNIN8J56OrVAoRG1tLQYOHAgAuHDhQtsE1p07d7gHdpQaoHXVm8O40zSTtixUG9MxMplMUKvV8PDwwNmzZ9smsE6cOAHAuUMTnp6eXPJbc81FWxZ6OJdfUMXb2xu9e/fGtWvX2iawaEToDLDCwsI4nqa5VENbFuv0aMpnDRs2DMXFxTh//jxpU8DKzMwkGo3GKX4GALp27drsFGTK77R1YPE39+nfnj17AgB3frHNAOvmzZvQ6XROf75Tp04uoQha8niYO5lCPtC0Wi26d+8OhmFaLDJ8ZMC6ffu2U6kydJACAwObDayHURjEXbQW/5kNBgM6dOgALy+vtges7OxsC6DYK9Qfk8lkza7M8jiAij4nXbz0v8ViMVQqFW7evNm2gEWLkDkCDhrVsCwLDw8Pl6QhPw5i7UeazWaIxWIolUrcvXu37QDrzp075MqVK82iGmQyWbOphqZOFLdVYFGaRa1Wo6qqqu0AKz093Slik75fLpe7xBQ6C+y2ACwA6NixI3Q6HX7//XfSJoCVnJz8wAduSvjAao4ppLUTHjftRsnS4OBgEEJQUFDQNjTWjRs3mvV5iUQCsVjsEm3TFFhoqcqWrHbc0tLY7oJKpQIA0ESAVg+s5kYitEyQK6QxoFBAUYKRHv2ndSVak/aSy+WQy+UWz8owDPz9/QGgRVKVHzqwLl++TK5fv+5UpWCqNcRisdNHxazFOgCg5YUooLKysvD+++/jqaeewtSpU3HlyhWOdKTvbQ10g7+/P3c0jGpqmhff3Axcm1ryYT9kWloaDAZDs0psU2A1N9edDywKEKoJr1y5gh9++AFbt25FbW0tACAjIwOHDx/GihUrsGDBAgQGBnLfQYunubMDr1QqUVJSAp1Ox3FZAKDValunxrpx4wY5d+4cSUxMJP/+97/BsmyztA0FlisG22AwwGg0cpu158+fx8yZMzF8+HB88sknXLkgqsH0ej3ee+89REZGYtmyZbhz5w6nwYxGo1ubSKFQCKVSCZZluWRJAKirq2s9GisvL498+OGHOHjwILp3796oinZmIvimsLmnc1iWBcuySEpKwurVq3H06FFOe9EJsK5BJRAIUF5ejg0bNuC7777DnDlzsGLFCgQEBAAAVzfUHTUYy7IICAjgqgPS+20VwNq5cyfp1asXqqurMXToUCxYsAB+fn4ghKC2thbp6en417/+xZ1edhRc1HlvjnagxcyKi4uxZs0afPXVVxx9QU9Z2xpwWvKRAqykpASffvop9u3bh0WLFmHRokXw9PTkfsMdMyjowuQn/7k9sHbs2EH+9Kc/oWfPnvi///s/xMTE2HzfjBkzMGXKFKceSiQSNWuyTCYTfHx8cP78eSxbtgwZGRkWgLLnnqwBlpubi+XLl+O7777D66+/jtmzZ3MAo6b2YW56Wy86vtNOTXtwcLBdlMsj97FSU1PJvHnz8MQTTyAhIQExMTHcBNDLaDTCaDRiwoQJ2Lx5M1e8wllT6AyovL29ceTIEcycORMZGRmcz+cMjcAHmFAoRHp6Ol555RVERUXh888/x927d7lDDc09UWTPvRiNRpv9gagPKRQKUVxcjCtXrjhdk+yha6yVK1fCYDDghx9+gFqthtFoBMuyDRxtOgDz58/HwYMHER8f71ChfKoJnAGVQqFAYmIi5s2bx1VVdoWPQQFGAXTr1i0sWrQIgYGBiI2NxZ///Gf06dPHpQdjaXVlPoD4i1Sr1UKr1UKn00Gn06GmpgZnzpzBpk2bkJOTwxXadesT4FevXiUAyNy5cwkhhBiNRvIgMZlMhBBC8vPziUqlsqtBOH39zTffJFVVVSQrK4vcvXvXris3N5cUFBSQtLQ0i/a/eEid5wGQsLAwsmrVKmI2m4nZbCbOitlstjm++fn55MsvvyRLly4lkydPJr179yZBQUFEKpU22u2VYRjSo0cPQo/cl5WVveJWwFq8eDFhGIZcvnyZmEymJoHFB9+qVasatKB9ELDef/99UllZSbKzs+0GVnZ2NtFoNGT+/Pl2/RZasI1vZmamxeJyBFD19fUWi/PQoUPk7bffJk8++STx9/e3636se1wDIEFBQWTo0KHk6NGjxK1M4alTpxAREYEBAwY4xCMRQvD666/j66+/RlFRkV1+iLe3t0OMt9lshoeHB3777Td8++23XIlJaz+EmhZ7/CB7+wzyN7opfZGQkICIiAiH/C26G8CyLPLz87F7927s2rULly9fbsBV8Wu9W+e627pfoVCIoqIi1NbWonfv3u7lvOfm5mLMmDEP7BpqnU1AB8Df3x8vvvhik44kHRwfHx+HOCy6fbFnzx4YDAbO56P3SoMKa+f9Qd/P929olNXU/dCJPnTokEPRIQVVXV0dPvnkEwwcOBBLly7F5cuXOYec33eaPgtdJE0BmI5lx44dERwczLiNxkpKSiKDBg3iEvRtAYsODnWi+Q49IQRPP/00PvnkE+5k84MGw9/f3+7VTot+5OTk4F//+hcIIdzemEwmQ3BwMLp06YLAwECEhoYiODgYAQEByMnJwV//+tcGbDrVVEFBQWAYBvn5+RZBh3UlPesxYBgGZ8+eRWZmJnr06NFgLGwFHEKhEGlpaXjppZe4I3P0M66sEm3daeORA4vm89C9M1s3LRAIcO3aNfj7+6NDhw4c0KhZGjJkCAYPHoxz5841eqyL/pu/v7/dA2o2myGXy3H27Fl07twZ0dHRGDZsGIKDg6FUKrmLikajgVgsRnJyMgdAOol00ZjNZrzwwgt46aWXkJKSgkuXLiE+Ph6ZmZkW90UbTdGFRqmVyspKHDp0qNEdCf7zCoVCnD9/Hk8//TTX49B6N8BV4nalnL755hsCgBw+fJgQQiwcTOqgb9++nfTr14889dRT5IcffrB4jf7dsmVLk461UCgkKSkppLi4mOTm5trtvGdlZZHy8vJGnWKDwUCqqqpIdnY2ycnJIfn5+WTlypVEKpU2uIcJEyaQ1NRUUlJSQkpLS0lVVRUpLCwku3btIq+//jrp3r27TaeZYRguWpw4cSL3243dk9lsJjk5OSQ4OJgAICzLWjjgrgow6HjHxsYSt9JYer2eW6G2Vlx5eTk2b96M9evXQyQSYeHChVAoFJg8ebKF2ezXr1+jppSaRx8fH6dOQAuFQq65uLUPRTvQ85+BEIJly5ZhwoQJOHjwIMrLyyGRSDBs2DCMHTsWJpMJtbW1YBgGNTU1EAqFGD9+PGJiYrB69WpcvHgRBw4cwOXLl3H58mWLZzKbzTh27BiysrLQpUsXCzfBeh9z7dq1KCws5Bh8Vzcmtx4jtwJWY44obWyUlpYGkUiEoKAgSKVSfPTRR1ixYgX69+/PpccCQI8ePdCtWzfcvHmzQSMBvqMvkUgcjgqlUimUSuUDgwO6IU39PI1Ggx49emDAgAHcxnJ9fT2qq6ttToRGowEhBB4eHpg4cSImTpwInU6H3NxcnDp1Cp9++inu3LmD/v37w2Qy4fz58zaBxV+QaWlp6Ny5M+RyOfLy8lBVVYWuXbvCbDajsLDQZmYCf3vK3nHiJ/65TVRIK5pQzWUNtPv37yMoKAhisRhlZWXo27cvpkyZgiVLlnDOsNFohK+vL5544gmb0SH9TpVKBalUarePQeuLBgQENLl1wTAM52fQya2rq8P9+/dRUVGBkpISLpPU1mJiWZbTfjQ6k8lk6NGjBxYtWoS4uDgAwK5du5CUlISZM2fa1PT0+z08PLB3714kJibi4sWLiIiIgFqtxvHjx7Ft2zZ4enpabCZTQNGdDQoqGjk2FeUOHz7cvYDl6+sLAI0eJaKtOYRCIViWRWlpKf70pz/h3r17OHnypIV2GjlyZKN8CwAolUpOYzU1UNR0NqWp+CKXy7k66Xz+id57Y+aCbunI5XJ4eXlx7yeEQK/Xcy1KAHCdWGk+VGMikUgQHBwMlUoFhmGQlZWF0aNHQ6VSQaVScdtg/PoMJpMJzz77LFavXs0tUkqp8Deg+d1d6W+NGTPGvYBFo0Fa9tGe0FYkEuHFF1/Exx9/bGFW6KppDFh00uwhX/39/Z0qsS2Xy6FSqeDt7c35cw+66CFab29v+Pv7NzjSTtN8KioqwLIs5HK53ad+6uvrYTabkZmZifLycnTr1g11dXVQq9X47LPPEBUVxUWJCoUCs2bN4lyNw4cP4+jRo3j77bcxduxYTpPyu7pS0K1atQoREREuS71wiY8VFhaWLJFIBtDexdYTKZVKUVdXZ5H+W1NTgz59+qBz584Wn1EqlfDy8kJVVZVNPsvb27vJKjNmsxl+fn7N6jBBgaJQKFBfXw+DwcBNMh80LMtCLBZDIpHY1IqUajGZTMjNzUV4eLhDYKeZCXxKh2VZVFVVYdy4cRg6dChu3rwJg8EAPz8/REREQKfToaioCBKJBFFRUXjyySdRX1+PgoICHD58GPHx8bh69Sq0Wi1kMhneeustvPvuuy7N53EJsFQq1cDQ0FCSmppqkxH38fFBZWUll5fEd8Z79OjRQCP5+/s3ABb96+vr67KDFPZuO0kkEqczAOh4aDQa3LhxAxMnToREImmSGLUWGjBQUPKj0aioKAgEAi6w4Pt5Wq3WIjjq27cvVqxYgeTkZEyaNAm9evXC2rVrXZ4k5rItnZCQEKSkpFg4tvSvn58fysrKYDAYGoCOpqzwS0AGBQU1So4GBQXZdVDV3XLPS0tLUVNTg65duz7Q1DcWcRcXF3PBCx0z6gdWVVWhsrKSSzfmjz/fcddoNJyvNWDAAIjFYvj4+LTMgnTVFw0YMAD37t3jmizyB06tVkMmk3EtdfmTbh1msyyLTp06WbzGr5ASHh5uE6DuKvRZCwoKwDAMoqKimtwTtQWse/fucQvYw8OD2xekkSB1ypviqSjI6urqUFNTAz8/P/cG1uTJk0EIwbFjx7gwn0Z7wcHBCA4ORnFxcQP1z6cN6H936NDBpq/m6emJLl26wGAw2EUduJOcOHEChBBERkY6dX8ajQYsy0Imk0EsFkOtVkOhUHBj/KCsDMqT8RMkdTod9Hq9+2usvn37wsvLC7/99ptFlEcfKjg4GDk5ORblofncF391N9aBq2PHjlAoFHZxWO4CLHofR44cgaenJ6eNHb2/mpoaC19PLBbD19cXarUavr6+8PDwgEgkavC9DMNwPB6fWC4vL4dOp+OaabpaXJaPFRgYyEycOJGcPHkSer2eAxB90CFDhuDUqVMQiUQcI88wDLfRy/fNaE0BCiAaVUVFRXHc0IMmxl0q9dFFlZ2djYyMDEydOpUrZuKoKaTpPtblw/mdVvlpMnSMqKm0lsrKShBCWgxYLs2ij46ORklJCVc/nD+AgwYNws2bN1FaWmrRlYoy1PxBpLyYtZPerVs3uwrausuRK3qfv//+O3Q6HSZPnuyQ424d5FBH/EERLCVmRSJRo+cN+GS2s+cHHiqwpk2bBgD4xz/+0UDdd+7cGQzDICMjg6shQLdy+OYQ+E9aDH9l0oloLC3HFrDcoWgtDTouXrwIiUSCIUOGOOS4t0SUaw2sluom61JghYeHM8888wxOnz6N0tJSTrsYjUaIRCLExsYiMTERUqmU00YmkwkGg8Hie3x9fbntDjo5np6eCA0NtbtegzsAi4b+e/bsQadOndCpUyeOMHXmu1wJsJqaGgBosT5CLrcXzz//PCorK/HTTz9xA0EneebMmbhx4wY0Go2Fc2+9ee3l5WUBLBopdu/evcnez1QTPmpgUS17+fJlZGdnIzY2tlkpL44cprVHaCn0lmqq7nJgTZs2jVGpVHj//fdRU1NjcVAzIiICcrkchw4d4qI7gUAA2kiAAsbDw4Pb8af/1rt3b/j6+tqlsdxBW1EAHT58GAAwe/bsZn2fWCy2yBx1VnPRz9HF3NRGuNsACwA++OADFBQUcIcGaAoHIQRvvPEGDh8+bHFKpra21gIwtM8eXyZMmGAXfwXALRovUXD/+uuvCAsLQ58+fZyiGSgQJBIJd4rclb5Wi7kBLfGl06ZNG6dSqbB69Wpum4ESedHR0QgLC8PXX38NpVLJgY7afFvRkFQqRXh4uF2D6syR/ZaIBhmGQVlZGRISEjB8+HCufLiz0apUKoXRaGzgj7qKZ2sVwPLz8zuxevVqZGZm4quvvuJARZ35Dz/8EIcPH8aFCxcQGBiI+vp6C2BZ81Dh4eEO9SZ0F/9q//79MJlMiI2NbbaGoOXHXQUs/ompVgMsAPjLX/7CREZGYv369SgsLORAZTabERYWhi1btmDNmjU4cuQIfH19Gxw94gOof//+CAkJgV6vbxJY7sBh0Xvcs2cPRCIRpkyZ4vR9UUDS8aHAchaodNGlp6eDZVm7KRy3ARYAfPbZZygqKsLixYs5B55mPY4cORI7duzA999/j/nz52Pbtm1c/jafWWcYBk8//bTdG8+POiKkdEJlZSWXmuLr6+sSjcUHVnPuzWAw4Oeff0avXr3Qt29fptUBKyYmhlm4cCF++uknHDx4kAMV/Tt48GAkJCRg+fLl6Nmzp03ghIaGon///hYV6NxZY1EzmJaWhpKSEq4+WHPbs1Ai05pMdkbu3buHwsJCl6YiP1RgAcB7772XHBAQgBUrVlgk+lFeRiKRIC4uDs8++yy3wcr3sZ566il4e3vbNTFUIz5KjUXvce/evdz9832a5prC5gCL+lNnz54FIQSxsbGtF1gqlWrg8uXLkZqaiv3793NsOx1sfmE2fuEKuvJjY2PtPu5FVf2j1FiUXtmzZw9CQ0Mdzr9qTFwBLAr6X375BQDQq1ev1gssAJgzZ05FQEAAVq1aBa1W26DNmbWWEYlE0Gq16NixI8aPH2/B1LtzREi5uaysLBQVFeGPf/yjhXlsjlAKxVmClGaUVFRU4OTJkxg+fDg6derEtGpgqdVqv1WrViEzMxOHDx/m8rNtaRyz2Yzi4mJotVqMGDHC4WZMj5Icpfd59epVmM1mjB071uVkpLMgpfdw8+ZN3L9/n8u0aNXAAoAlS5Ywfn5+WLFiBcrLyyEWiy0quVBQCQQCfPrpp6ivr+eyUh2ZmJbaonDE1CQlJUEoFHInkFoCvM6C6/z58wCAcePGtQ1gAcDGjRtx+/ZtxMXF4erVq5x6pzUVWJZFcnIyNm3ahFGjRmHsDEse7QAAETZJREFU2LHcfqO9E/uoTCENHIxGI3766Sd07doVYWFhTmczNGUKnQE9wzDYt28fvL29MWDAAKbNAOuFF15gNm3ahKSkJAwcOBCbNm3ijiqxLIvTp09j0qRJEIvFWLNmDeeL2RumP8y2I1TD0v07WuyspKQEWVlZ6N69u8vasvB9R2eARS3B7du3kZyczB31bzPAAoDFixczly9fxoABA/Daa69hwoQJePPNNzFt2jRER0ejpqYGX331Ffr27Yva2lqHVntLcVj8yJWaIvpbtJAIPe1MT+OMGjWKC0pc0S2MgtOZ76EJAOfOnYNer8eMGTNafJ4fyW5tVFQUAwArV64kH374IY4ePQoA+OMf/4hXX30VERERDkWCdMBdra0ooGyl+Go0Gty9exe5ubkoLS1FVVUVSkpKkJSUBEIIvvvuO6hUKkyfPp3LeXL0kKot59tZbccwDE6ePAlvb2+MHDnyozYJLCoffvghk5CQQJYsWYJr164hJCQEffv2RVlZmdNZlq4AFzVzNH8c+E/e+q+//orTp08jPz8fJSUlKC0t5U4oW8u1a9cwZ84crF+/Hn/5y18wb948LrCwt1sYNbV8bs6Z56OHVg4cOID+/ftDqVSuaNPAAoDo6GimsLCQLFiwABs2bEBxcTE2bNjA1UlwpICtK8hRfq/C/Px8/POf/8Tx48eRkJDQ6KTxi7VRcpc6y2lpaVi0aBG+//57LFmyBLNmzbLInuVrIv7JGvosVNuVlpYCAEe/2Bsd0iYOBw4cQFVVFZ555hmcOXMGj5XMnTuXACAvvfQSuX//PsnNzbW7HGROTg65f/8+aY7QkpXV1dXkgw8+sKibzjAMEQqFRCgUNqiVDgcaCYwfP57s2bOH1NTUNHkvly9fJtu3bycvvvgi8fDwIADI1q1bG9yvPc80d+5cIhaLye3btx9K7QG3O6c+Z84c8s9//hN//etfsXTpUlRWVtrll9Ba7vxCtY4I9X+uXbuGuXPn4sqVK82Oxqz9HL6GCgkJQWxsLCZOnMgVezMYDMjJycGpU6dw5coVlJSUWDSppMXYFixYgHfeeQd+fn4PNKtUA+r1enTp0gW9evXCiRMnGDyuMnr0aAKAfPvtt6SiosKu1iY5OTmktLS0WZpq3759RKFQcIVkm9JGcLKQrCPfKxQKuaK2/Ktbt24kPj7+gdqLdr44d+4cAUDWrVtH8DhLYWEh6dChAwkICCBXrlwhRUVFJCcnp1FQ5eXlkZycHFJWVuYwqGiF53379nEVklu6HQq/ejLLspyJZVmW+39qam19lg+0efPmkcrKSpvgov8/e/ZsAoDcuHHj8QYWABw5coQIBAISGxtLysrKWgRYdOB/++034unp+VB77MCFTaCioqJIcnKyxTPRMt/l5eUkICCAREdHP1RQCdwVWBMmTGAWL16MY8eOYe/evfDy8mrUz7EuzmZv9CcUClFYWIgZM2ZwRcxaKgfc1ULPGIpEIly5cgWjR4/Gzz//zD0DjRpTUlJQUlKC559/Hu3yXykrK3slPDycBAQEkPT0dFJQUNCo5nIkKqRt2YxGI3nmmWdalabCAxoAsCxLduzYQQghxGAwEEIIefbZZwnLsuTOnTvtZpAve/fuJQDIwoULiUajadSRz83NJcXFxXb1AaTm4v3337fo+NCaL37ni59//pkQQsidO3eISCRyaceJNiVjxowhAEhCQgK5f/++Ta1FG102xe3Q18+cOUPEYnGjTnJrBpePjw/Jzc0lO3fuJADIsWPHHjqwWgWnce3aNUKbDnz33XfQaDQ2GXaGYaBWqxtN9qO5XbW1tRg8eDAyMzMbdMBo7UKfZ/LkyaipqUFGRgYyMzPDfX19s9pVlA157rnnCACyZ8+eRqPEnJwcotPpmtRW8+bNa/V+VVN0Bv3vhQsXPhIz2GpY2Ly8PBIZGYlevXohPj6ey523jpQ8PT1t9oShzPqePXswc+bMFtFU/PuxrhzdWPTaUjUUaBnx69evo2vXrg99ngWtBVgdO3ZkFixYgMTEROzZs8dmLVLahdS6xgMFVWZmJv785z87nQHBL2/Nr1TMz5Xid6uglAA/l8u6nCO9b35FY1cITflxxTnENq2xAKC8vDymX79+x8ViMU6dOsXVm+JPhtlshq+vr0WzJTrBsbGxOHPmTJN8Fb9PNH+iHqThBAIBxGIxhEIhfH194e/vD4VCAZlMxu0T6vV6VFdXo7S0FGVlZVzHC1vfxe9R7YzQZ1y4cCE+//zzhz7PbGsClp+f34nNmzfj1Vdfxfbt2/HGG2+grKzMoroMwzCoqqqCXC7nupGyLIs33ngDZ86cAcuyDWqeWjccbyzjUyqVIiIiAqGhoVCpVFAqlQgICEDnzp0RFhaGkJAQyGQyrg2Kde11+t20fUp5eTkyMjKQlpaG3Nxc5OTkIDExEWVlZRYAaQ7AkpKS2jWWvRIZGUnu3r2Ls2fPIjAwEHV1dQ0mUCwWw8/PD2KxGDt37sRzzz1n0UDzQenCfn5+CAwMhFKpRIcOHTBkyBAMGjQIAQEBXH31FvQlceXKFezcuRPJycnIyspqEPE5Eh2q1WokJiaic+fOj29Wg71y4sQJAoA8//zzpKKigmRnZzeIEO/cuUNqampIcnIytw9ofYnFYuLv70/Cw8PJ9OnTyebNm8mBAwdIZmYmqa2tbZK5r6+vJ/X19cRoNBKTycS12+Vfttrx8i/6PUajscH7S0tLyc6dO8nAgQMbcFVwYLP7woUL7TyWvTJz5kzy448/4scff0RMTEyDuqYSiQRZWVl49tlnUVJSArlcjoiICERFRaFjx46IiIhA165dERISApVKZbNYm7UJstUnyJVi7dTzn+fgwYNYt24dLl68aLf2omZ/3759mDZtWrvGskfy8/OJQqEgkZGRJCsri+Tn53PZprm5uaSoqIgcP36cbN26lZw4cYLk5OQ0qYWoBqLa51ELvScqdXV1ZMuWLSQoKMguHo6+vmbNmvYtHUdk27ZtBAB5+eWXSVVVlcU+IgVXWVkZuXfvHjdBRqORGAwGC/Nl7yQ/SrDxt6qysrLIpEmTmkwcpMD6wx/+0A4sR2Xq1KkEANm+fTuprKwkd+7csQBXTk4Oyc7OJuXl5U6BQ6/XN+orPUoNVl9fT95880279g6feOKJdmA5KgUFBSQsLIz4+PiQCxcukJKSEgvNRZMAS0pKHJ5EQgiprKwkly5dInfv3iVardYtNJnJZOLSjj/77DPi5eXVIJWan2kaEhLS7rw7I6dPnyYxMTHo1q0b9u3bB39/f2i1Ws75pT2o1Wq1Q8fD6GGE3NxcpKSkwNvbm+ukpVKpGvSh4dMXLX3Unzr5AoEAY8aMQUJCAsfcU76Myvbt2/HSSy8x7cByQr7//nvy/PPPY/jw4fjmm2/g5eWF2tpai2gvMDDQ4TJHFFy3bt1CZmYmR7qKRCL4+/tzrYZ9fHwabYjUHLA1BlZ6Oufo0aOYMmUKevbsievXr3OvSyQSDBs2DEuXLkVcXBzTrrGaIevXrycrVqzAyJEjsW3bNiiVSlRXV3Ot6AICApzqHUPBdfXqVRQWFnKt8SiDLxAIIJf/p/O9l5cXPD094eXl1SiQ7Nl4buyz9EAt/Tto0CDcuXMHv//+O/79738jOTkZvXr1QlxcHPr06fPI5rfNcRt///vfybvvvouBAwdi69atCA8PR2VlJRiGgY+PT6NNNu0Rk8mES5cuoaKiwoLF5+9HCgQCiEQiiMVieHt7Q6VScV1RxWKxQxrTYDBAr9fDYDCguLgYZWVl6NevHxQKBRiGwa5duzB79mysXbsWq1atcqu5bJOk2ZYtW8iiRYugVCqxZcsWjB8/HpWVlZDJZAgICGjWd2u1Wly6dAk6na5Bf2uqZWgGA/0rFAotgEXLNonFYrAsa9Elje4j0nZ7BoMBtbW1kMvl6N27N9cktLq6Gk888QSEQiFSUlLG+fn5nWgH1kOQEydOkNmzZ6OkpARLlizB8uXLuf1DZx1rahIrKipw6dKlRivcWOdl8VNprDugNvY7/M3n0NBQdO/eHRKJhEsBWrlyJdatW4fdu3dj1qxZbjePbZrmz87OJq+99hri4+MRFxeHf/zjH1zPwOaCq7CwECkpKWBZ1qJYr62//N/iFy5pzNdiGAYGgwFSqRTdu3dHSEgIgP9f4OP69evo168fRo0ahYSEBLecw8di/2jp0qVkw4YNGDFiBPbv3w9fX1+H+jI3Bq7bt29zefP8CjH8i5+OQx1+g8HApfPwc6/o3/r6egQGBqJXr16Qy+UNQDpp0iQcOXIE6enp6NmzZzuwHqWsW7eOvPPOO4iLi+MOdjanKTmd7NLSUovSR9b9mK0pAr1ej5qaGmg0Gq5gm9lshkgkQn19PViWRbdu3bjCuPze2UKhENu2bcOCBQuwbNkyfPzxx+0by+4g7733HgFA5s6dy6WsPEoxmUyktLSUXLhwgcTHx5OLFy8SjUbTgNGne5p5eXlEpVKRyMjI9i0ad5P58+cTAOSjjz7i9tyasyXTVA7Wg97P32AuLi5uUHfBegN6ypQpBAA5depUO7DcUf5bIIMcO3bMYiIfxb6frQ1uW6DaunUrAUDeeuutdlC5qxQUFJCAgACiVqtJUlISqa6u5jZ1H9Xmsq3foveUlpZGxGIx6du3L6moqOjSPoNuLMePHycMw5C+ffuSo0ePkpMnT5IbN26QioqKRw4y/m/qdDry5JNPErFYTFJSUtq1VWuQ1atXEwBk+vTp5OTJk2TPnj3kl19+IWfOnCGpqamkurr6keVi0WoxixcvJgDI559/3qpA9diHq5MmTSIHDx7E3/72N0RHR3P7imazGSzLwt/fH76+vggKCoKPj49NyoGSmq4SSoR+//33eOGFFzBr1izs3r2baQdWK5K8vDwyYsQIlJaW4n//938RFhbG5XLRvCYKMl9fX6jVanh7e0OpVDYgWPmt8pzlxejnz549i9jYWHTp0gXp6emtbp7aCTYAFy9eJEOHDkVoaCg2bNgAhUIBvV7f4Pg8BZlQKOQqNAcGBsLDwwNyubxRJv9BaTLWIKyvr0diYiKmT5+O6upq/Prrrxg0aFA7sFqr0ETBQYMG4W9/+xsEAoFFq2E+CPggo0frPT094e3tzSX9Ufbdnm0jo9GIqqoqFBQUoKCgAG+//TauX7+OH3/8ETNnzmyVc9QOLJ6sXbuWrFq1CsOGDcPKlSu5zWBb7Uas6zoYjUaLNikSiQRisRgymQxSqRQSicQiw9RkMqGurg61tbWora2FVquFWCzGxo0bcezYMaxbtw7vvPNOq52fdmBZyfLly8lHH32EoUOHYtmyZfDx8YFer4fJZOIad9oqGmLdnYseJuVXmLEWvqn19fXF1q1bsWvXLsyfPx/btm1r1XPTDiwbsmrVKrJ27Vp0794ds2fPRlhYGJRKJZe5aTAYuP6E/BwrWyelrf/yAUY/6+3tjR9++AFffPEFpkyZgvj4+FY/L+3AakQ2bdpE3nrrLa7MkL+/PwYNGoROnTohNDSUKxpCnXbqk1HA8RP7rJ11mmIjEokgk8nw008/YePGjRg2bBjOnz/fJuakHVgPkLt375ITJ07g+PHjuHnzJlJTUy0KmUmlUnTp0gUDBgxAp06dOM7Lw8ODS0WmBdX4Tr/BYIBOp+MyUWnjz1OnTs339/f/oh1Yj5nk5uaSe/fuITc3F6dPn8aFCxdQXFyMoqIiC79JoVDA09MTHh4ekEqlEIlEXE4VzWGvqKiARqMBAAwePBjx8fEVarXar62MVTuwmikVFRVd0tPT7+Tl5aGwsBDFxcXIy8tDdnY2ioqKUFZWhpqaGg50Pj4+6NChA2g91Z49e2LGjBltbh7+HxWCV2vYK/SrAAAAAElFTkSuQmCC;" vertex="1" parent="1">
          <mxGeometry x="517" y="916" width="40" height="40" as="geometry" />
        </mxCell>
        <mxCell id="V3Jk48kscWsiEnofZRHU-73" value="" style="sketch=0;pointerEvents=1;shadow=0;dashed=0;html=1;strokeColor=none;fillColor=#505050;labelPosition=center;verticalLabelPosition=bottom;verticalAlign=top;outlineConnect=0;align=center;shape=mxgraph.office.servers.server_generic;" vertex="1" parent="1">
          <mxGeometry x="480" y="910" width="27" height="52" as="geometry" />
        </mxCell>
        <mxCell id="V3Jk48kscWsiEnofZRHU-74" value="" style="sketch=0;pointerEvents=1;shadow=0;dashed=0;html=1;strokeColor=none;fillColor=#505050;labelPosition=center;verticalLabelPosition=bottom;verticalAlign=top;outlineConnect=0;align=center;shape=mxgraph.office.servers.server_generic;" vertex="1" parent="1">
          <mxGeometry x="480" y="1070" width="27" height="52" as="geometry" />
        </mxCell>
        <mxCell id="V3Jk48kscWsiEnofZRHU-75" value="" style="sketch=0;pointerEvents=1;shadow=0;dashed=0;html=1;strokeColor=none;fillColor=#505050;labelPosition=center;verticalLabelPosition=bottom;outlineConnect=0;verticalAlign=top;align=center;shape=mxgraph.office.clouds.cloud;" vertex="1" parent="1">
          <mxGeometry x="270" y="986" width="100" height="60" as="geometry" />
        </mxCell>
        <mxCell id="V3Jk48kscWsiEnofZRHU-76" value="" style="endArrow=classic;html=1;rounded=0;startArrow=classic;startFill=1;" edge="1" parent="1" source="V3Jk48kscWsiEnofZRHU-69" target="V3Jk48kscWsiEnofZRHU-75">
          <mxGeometry width="50" height="50" relative="1" as="geometry">
            <mxPoint x="230" y="1140" as="sourcePoint" />
            <mxPoint x="280" y="1090" as="targetPoint" />
          </mxGeometry>
        </mxCell>
        <mxCell id="V3Jk48kscWsiEnofZRHU-77" value="" style="endArrow=classic;html=1;rounded=0;startArrow=classic;startFill=1;" edge="1" parent="1" source="V3Jk48kscWsiEnofZRHU-73" target="V3Jk48kscWsiEnofZRHU-75">
          <mxGeometry width="50" height="50" relative="1" as="geometry">
            <mxPoint x="640" y="1000" as="sourcePoint" />
            <mxPoint x="690" y="950" as="targetPoint" />
          </mxGeometry>
        </mxCell>
        <mxCell id="V3Jk48kscWsiEnofZRHU-78" value="" style="endArrow=classic;html=1;rounded=0;startArrow=classic;startFill=1;endSize=6;" edge="1" parent="1" source="V3Jk48kscWsiEnofZRHU-75" target="V3Jk48kscWsiEnofZRHU-74">
          <mxGeometry width="50" height="50" relative="1" as="geometry">
            <mxPoint x="640" y="1080" as="sourcePoint" />
            <mxPoint x="690" y="1030" as="targetPoint" />
          </mxGeometry>
        </mxCell>
        <mxCell id="V3Jk48kscWsiEnofZRHU-79" value="" style="sketch=0;pointerEvents=1;shadow=0;dashed=0;html=1;strokeColor=none;fillColor=#505050;labelPosition=center;verticalLabelPosition=bottom;verticalAlign=top;outlineConnect=0;align=center;shape=mxgraph.office.servers.server_generic;" vertex="1" parent="1">
          <mxGeometry x="480" y="990" width="27" height="52" as="geometry" />
        </mxCell>
        <mxCell id="V3Jk48kscWsiEnofZRHU-80" value="" style="endArrow=classic;startArrow=classic;html=1;rounded=0;" edge="1" parent="1" source="V3Jk48kscWsiEnofZRHU-75" target="V3Jk48kscWsiEnofZRHU-79">
          <mxGeometry width="50" height="50" relative="1" as="geometry">
            <mxPoint x="420" y="1060" as="sourcePoint" />
            <mxPoint x="470" y="1010" as="targetPoint" />
          </mxGeometry>
        </mxCell>
        <mxCell id="V3Jk48kscWsiEnofZRHU-81" value="" style="shape=image;verticalLabelPosition=bottom;labelBackgroundColor=default;verticalAlign=top;aspect=fixed;imageAspect=0;image=data:image/png,iVBORw0KGgoAAAANSUhEUgAAAJYAAACWCAYAAAA8AXHiAAAD9ElEQVR42u3dv47jVBiG8fccJ5mZOOvAthSAQLNoBUJampUQdBTcAgWiAwmBQNwBd0FFz58CCjTabZDgLhAFBRSUq0wcOz7fofDOiIYCNmjOFz8/afrx8RPHznw5E87v3c8CDiyyBCAsEBYICyAsEBYICyAsEBYICyAsEBYICyAsEBYICyAsEBYICyAsEBYICyAsEBYICyAsEBYIC/jPZsUWH6N2basX7r6kdz56X/t+rxDCpE9WNtNZvdSDb77TTz880HJVy8wI698vZNbJcqnn75yr63aKEw8rDabVutH69lNjUAUvx8zDq7Rrd+q7bvJXLDNT17YahoG3wkMIMYw/Ew8r5KAQo4t14OYdhAXCAmEBhAXCAmEBhAXCAmEBhIXizaZ0sDln979/zlnKhFXOpTlGxSq6OCn/xKJpvpiPx0FYNy+EoHbbqt1sFKLfd39Lpna7VXu5LX7C4ejDspRUN41+vnior7/4UnXTyFJy/SIZ9nudLc9kyQjrZk+GNOwHtdtW1XzuOqyruLhiFXQyqqpSVVXyPi7o4SFkck+F109W+H8fllgCEBYIC4QFEBYIC4QFEBYIC4QFEBYIC5PEH6Ed8rCN0bTGZmaPx2a8zs1kSWHc6bD0F8fRhxVjVLtt9dqbr+vOqy8rxEpeB98tmZarWhdffasfv79gD9IbvlQpm2m1vqX17aelnOV10s8GU71uVDe32IO0nJOSlAbfI8mWTPOukzk4juncvIfgfiT5etadPUgxVYQFwgJhgbAAwgJhgbAAwgJhgbCAQ3Lxt8Jj2iFmKv9zcebhRMwXC+Wc3Z+UbKbkfNO3owgrhKB93+vP3//Qvu9dh2U56/TsVKummcT+XMWGZWZanJ7ot19+1ecffOL7RjZGXW42euPtt/TeZx/rcrNRjJGwbvgGS8nM9SLnnJWGpOz8OI7u5t37vZWnAT0+bgBhgbAAwgJhgbAAwgJhgbAAwgJhgbAAwgJhgbAAwgJhYQKKnSCNMWq3bfXiK3f17qcfjl+m8LrZYxhn+Jd1rd1ud/Tz7kWHJY2z4ovTEz3z3LPqu879iLKZKQ0DV6wi4rKsvuuOIiyJL6wWdzKuv5AAbt5BWABhgbBAWABhgbBAWABhgbBAWMAhsGuyI9fr4GAt2DXZEUum+WKhWFWE9aRRXe2a3DvfNflQYS0fPdJ2syl+LcL5vfu59Lhm85l4J7xaDykNSVb4RrnlD/rlrH7XSWIW6/GKSA5m03wM+lXVuKCTjyuPD/LcvB/ssvW3heWK5QGfY4GwQFggLICwQFggLICwQFggLICwQFggLICwQFggLICwQFggLICwQFggLICwQFggLOCJ/AU6RkjbVUfhEAAAAABJRU5ErkJggg==;" vertex="1" parent="1">
          <mxGeometry x="520" y="996" width="40" height="40" as="geometry" />
        </mxCell>
        <mxCell id="V3Jk48kscWsiEnofZRHU-82" value="" style="html=1;verticalLabelPosition=bottom;align=center;labelBackgroundColor=#ffffff;verticalAlign=top;strokeWidth=2;strokeColor=#b85450;shadow=0;dashed=0;shape=mxgraph.ios7.icons.flag;fillColor=#f8cecc;" vertex="1" parent="1">
          <mxGeometry x="570" y="1070" width="20" height="24" as="geometry" />
        </mxCell>
        <mxCell id="V3Jk48kscWsiEnofZRHU-83" value="" style="html=1;verticalLabelPosition=bottom;align=center;labelBackgroundColor=#ffffff;verticalAlign=top;strokeWidth=2;strokeColor=#b85450;shadow=0;dashed=0;shape=mxgraph.ios7.icons.flag;fillColor=#f8cecc;" vertex="1" parent="1">
          <mxGeometry x="570" y="1094" width="20" height="24" as="geometry" />
        </mxCell>
        <mxCell id="V3Jk48kscWsiEnofZRHU-84" value="" style="html=1;verticalLabelPosition=bottom;align=center;labelBackgroundColor=#ffffff;verticalAlign=top;strokeWidth=2;strokeColor=#6c8ebf;shadow=0;dashed=0;shape=mxgraph.ios7.icons.flag;fillColor=#dae8fc;" vertex="1" parent="1">
          <mxGeometry x="600" y="1070" width="20" height="24" as="geometry" />
        </mxCell>
        <mxCell id="V3Jk48kscWsiEnofZRHU-85" value="" style="html=1;verticalLabelPosition=bottom;align=center;labelBackgroundColor=#ffffff;verticalAlign=top;strokeWidth=2;strokeColor=#6c8ebf;shadow=0;dashed=0;shape=mxgraph.ios7.icons.flag;fillColor=#dae8fc;" vertex="1" parent="1">
          <mxGeometry x="600" y="1094" width="20" height="24" as="geometry" />
        </mxCell>
        <mxCell id="V3Jk48kscWsiEnofZRHU-86" value="" style="html=1;verticalLabelPosition=bottom;align=center;labelBackgroundColor=#ffffff;verticalAlign=top;strokeWidth=2;strokeColor=#b85450;shadow=0;dashed=0;shape=mxgraph.ios7.icons.flag;fillColor=#f8cecc;" vertex="1" parent="1">
          <mxGeometry x="570" y="992" width="20" height="24" as="geometry" />
        </mxCell>
        <mxCell id="V3Jk48kscWsiEnofZRHU-87" value="" style="html=1;verticalLabelPosition=bottom;align=center;labelBackgroundColor=#ffffff;verticalAlign=top;strokeWidth=2;strokeColor=#b85450;shadow=0;dashed=0;shape=mxgraph.ios7.icons.flag;fillColor=#f8cecc;" vertex="1" parent="1">
          <mxGeometry x="570" y="1016" width="20" height="24" as="geometry" />
        </mxCell>
        <mxCell id="V3Jk48kscWsiEnofZRHU-88" value="" style="html=1;verticalLabelPosition=bottom;align=center;labelBackgroundColor=#ffffff;verticalAlign=top;strokeWidth=2;strokeColor=#6c8ebf;shadow=0;dashed=0;shape=mxgraph.ios7.icons.flag;fillColor=#dae8fc;" vertex="1" parent="1">
          <mxGeometry x="600" y="992" width="20" height="24" as="geometry" />
        </mxCell>
        <mxCell id="V3Jk48kscWsiEnofZRHU-89" value="" style="html=1;verticalLabelPosition=bottom;align=center;labelBackgroundColor=#ffffff;verticalAlign=top;strokeWidth=2;strokeColor=#6c8ebf;shadow=0;dashed=0;shape=mxgraph.ios7.icons.flag;fillColor=#dae8fc;" vertex="1" parent="1">
          <mxGeometry x="600" y="1016" width="20" height="24" as="geometry" />
        </mxCell>
        <mxCell id="V3Jk48kscWsiEnofZRHU-90" value="" style="html=1;verticalLabelPosition=bottom;align=center;labelBackgroundColor=#ffffff;verticalAlign=top;strokeWidth=2;strokeColor=#b85450;shadow=0;dashed=0;shape=mxgraph.ios7.icons.flag;fillColor=#f8cecc;" vertex="1" parent="1">
          <mxGeometry x="570" y="912" width="20" height="24" as="geometry" />
        </mxCell>
        <mxCell id="V3Jk48kscWsiEnofZRHU-91" value="" style="html=1;verticalLabelPosition=bottom;align=center;labelBackgroundColor=#ffffff;verticalAlign=top;strokeWidth=2;strokeColor=#b85450;shadow=0;dashed=0;shape=mxgraph.ios7.icons.flag;fillColor=#f8cecc;" vertex="1" parent="1">
          <mxGeometry x="570" y="936" width="20" height="24" as="geometry" />
        </mxCell>
        <mxCell id="V3Jk48kscWsiEnofZRHU-92" value="" style="html=1;verticalLabelPosition=bottom;align=center;labelBackgroundColor=#ffffff;verticalAlign=top;strokeWidth=2;strokeColor=#6c8ebf;shadow=0;dashed=0;shape=mxgraph.ios7.icons.flag;fillColor=#dae8fc;" vertex="1" parent="1">
          <mxGeometry x="600" y="912" width="20" height="24" as="geometry" />
        </mxCell>
        <mxCell id="V3Jk48kscWsiEnofZRHU-93" value="" style="html=1;verticalLabelPosition=bottom;align=center;labelBackgroundColor=#ffffff;verticalAlign=top;strokeWidth=2;strokeColor=#6c8ebf;shadow=0;dashed=0;shape=mxgraph.ios7.icons.flag;fillColor=#dae8fc;" vertex="1" parent="1">
          <mxGeometry x="600" y="936" width="20" height="24" as="geometry" />
        </mxCell>
        <mxCell id="V3Jk48kscWsiEnofZRHU-94" value="" style="html=1;verticalLabelPosition=bottom;align=center;labelBackgroundColor=#ffffff;verticalAlign=top;strokeWidth=2;strokeColor=#6c8ebf;shadow=0;dashed=0;shape=mxgraph.ios7.icons.flag;fillColor=#dae8fc;" vertex="1" parent="1">
          <mxGeometry x="60" y="992" width="20" height="24" as="geometry" />
        </mxCell>
        <mxCell id="V3Jk48kscWsiEnofZRHU-95" value="" style="html=1;verticalLabelPosition=bottom;align=center;labelBackgroundColor=#ffffff;verticalAlign=top;strokeWidth=2;strokeColor=#6c8ebf;shadow=0;dashed=0;shape=mxgraph.ios7.icons.flag;fillColor=#dae8fc;" vertex="1" parent="1">
          <mxGeometry x="60" y="1016" width="20" height="24" as="geometry" />
        </mxCell>
        <mxCell id="V3Jk48kscWsiEnofZRHU-96" value="" style="html=1;verticalLabelPosition=bottom;align=center;labelBackgroundColor=#ffffff;verticalAlign=top;strokeWidth=2;strokeColor=#6c8ebf;shadow=0;dashed=0;shape=mxgraph.ios7.icons.flag;fillColor=#dae8fc;" vertex="1" parent="1">
          <mxGeometry x="90" y="992" width="20" height="24" as="geometry" />
        </mxCell>
        <mxCell id="V3Jk48kscWsiEnofZRHU-97" value="" style="html=1;verticalLabelPosition=bottom;align=center;labelBackgroundColor=#ffffff;verticalAlign=top;strokeWidth=2;strokeColor=#6c8ebf;shadow=0;dashed=0;shape=mxgraph.ios7.icons.flag;fillColor=#dae8fc;" vertex="1" parent="1">
          <mxGeometry x="90" y="1016" width="20" height="24" as="geometry" />
        </mxCell>
        <mxCell id="V3Jk48kscWsiEnofZRHU-100" value="" style="html=1;verticalLabelPosition=bottom;align=center;labelBackgroundColor=#ffffff;verticalAlign=top;strokeWidth=2;strokeColor=#82b366;shadow=0;dashed=0;shape=mxgraph.ios7.icons.flag;fillColor=#d5e8d4;" vertex="1" parent="1">
          <mxGeometry x="115" y="1046" width="20" height="24" as="geometry" />
        </mxCell>
        <mxCell id="V3Jk48kscWsiEnofZRHU-101" value="" style="html=1;verticalLabelPosition=bottom;align=center;labelBackgroundColor=#ffffff;verticalAlign=top;strokeWidth=2;strokeColor=#82b366;shadow=0;dashed=0;shape=mxgraph.ios7.icons.flag;fillColor=#d5e8d4;" vertex="1" parent="1">
          <mxGeometry x="115" y="1070" width="20" height="24" as="geometry" />
        </mxCell>
        <mxCell id="V3Jk48kscWsiEnofZRHU-102" value="" style="html=1;verticalLabelPosition=bottom;align=center;labelBackgroundColor=#ffffff;verticalAlign=top;strokeWidth=2;strokeColor=#82b366;shadow=0;dashed=0;shape=mxgraph.ios7.icons.flag;fillColor=#d5e8d4;" vertex="1" parent="1">
          <mxGeometry x="145" y="1046" width="20" height="24" as="geometry" />
        </mxCell>
        <mxCell id="V3Jk48kscWsiEnofZRHU-103" value="" style="html=1;verticalLabelPosition=bottom;align=center;labelBackgroundColor=#ffffff;verticalAlign=top;strokeWidth=2;strokeColor=#82b366;shadow=0;dashed=0;shape=mxgraph.ios7.icons.flag;fillColor=#d5e8d4;" vertex="1" parent="1">
          <mxGeometry x="145" y="1070" width="20" height="24" as="geometry" />
        </mxCell>
        <mxCell id="V3Jk48kscWsiEnofZRHU-104" value="" style="html=1;verticalLabelPosition=bottom;align=center;labelBackgroundColor=#ffffff;verticalAlign=top;strokeWidth=2;strokeColor=#82b366;shadow=0;dashed=0;shape=mxgraph.ios7.icons.flag;fillColor=#d5e8d4;" vertex="1" parent="1">
          <mxGeometry x="115" y="1094" width="20" height="24" as="geometry" />
        </mxCell>
        <mxCell id="V3Jk48kscWsiEnofZRHU-106" value="" style="html=1;verticalLabelPosition=bottom;align=center;labelBackgroundColor=#ffffff;verticalAlign=top;strokeWidth=2;strokeColor=#82b366;shadow=0;dashed=0;shape=mxgraph.ios7.icons.flag;fillColor=#d5e8d4;" vertex="1" parent="1">
          <mxGeometry x="145" y="1094" width="20" height="24" as="geometry" />
        </mxCell>
        <mxCell id="V3Jk48kscWsiEnofZRHU-108" value="" style="rounded=0;whiteSpace=wrap;html=1;fillColor=none;strokeColor=none;" vertex="1" parent="1">
          <mxGeometry x="40" y="-360" width="600" height="360" as="geometry" />
        </mxCell>
        <mxCell id="V3Jk48kscWsiEnofZRHU-109" value="" style="sketch=0;pointerEvents=1;shadow=0;dashed=0;html=1;strokeColor=none;fillColor=#505050;labelPosition=center;verticalLabelPosition=bottom;verticalAlign=top;outlineConnect=0;align=center;shape=mxgraph.office.servers.server_generic;" vertex="1" parent="1">
          <mxGeometry x="173" y="-210" width="27" height="52" as="geometry" />
        </mxCell>
        <mxCell id="V3Jk48kscWsiEnofZRHU-110" value="" style="shape=image;verticalLabelPosition=bottom;labelBackgroundColor=default;verticalAlign=top;aspect=fixed;imageAspect=0;image=data:image/png,iVBORw0KGgoAAAANSUhEUgAAAJYAAACWCAYAAAA8AXHiAAAA0GVYSWZJSSoACAAAAAoAAAEEAAEAAACWAAAAAQEEAAEAAACWAAAAAgEDAAMAAACGAAAAEgEDAAEAAAABAAAAGgEFAAEAAACMAAAAGwEFAAEAAACUAAAAKAEDAAEAAAACAAAAMQECAA0AAACcAAAAMgECABQAAACqAAAAaYcEAAEAAAC+AAAAAAAAAAgACAAIAEgAAAABAAAASAAAAAEAAABHSU1QIDIuMTAuMzQAADIwMjM6MTA6MDggMTY6MzE6MzMAAQABoAMAAQAAAAEAAAAAAAAA310CwgAAAYVpQ0NQSUNDIHByb2ZpbGUAAHicfZE9SMNAHMVfW6WltDjYQcQhQ/0Y7KIijlqFIlQItUKrDiaXfkGThiTFxVFwLTj4sVh1cHHW1cFVEAQ/QFxdnBRdpMT/JYUWMR4c9+PdvcfdO8DfrDLV7JkFVM0yMqmkkMuvCsFXhBFCFGMYlZipz4liGp7j6x4+vt4leJb3uT9HVCmYDPAJxLNMNyziDeLpTUvnvE8cY2VJIT4nHjfogsSPXJddfuNcctjPM2NGNjNPHCMWSl0sdzErGyrxFHFcUTXK9+dcVjhvcVardda+J39hpKCtLHOd5hBSWMQSRAiQUUcFVVhI0KqRYiJD+0kP/6DjF8klk6sCRo4F1KBCcvzgf/C7W7M4OeEmRZJA74ttfwwDwV2g1bDt72Pbbp0AgWfgSuv4a01g5pP0RkeLHwF928DFdUeT94DLHWDgSZcMyZECNP3FIvB+Rt+UB/pvgfCa21t7H6cPQJa6St8AB4fASImy1z3eHeru7d8z7f5+AK3ecr4DKaXQAAANeGlUWHRYTUw6Y29tLmFkb2JlLnhtcAAAAAAAPD94cGFja2V0IGJlZ2luPSLvu78iIGlkPSJXNU0wTXBDZWhpSHpyZVN6TlRjemtjOWQiPz4KPHg6eG1wbWV0YSB4bWxuczp4PSJhZG9iZTpuczptZXRhLyIgeDp4bXB0az0iWE1QIENvcmUgNC40LjAtRXhpdjIiPgogPHJkZjpSREYgeG1sbnM6cmRmPSJodHRwOi8vd3d3LnczLm9yZy8xOTk5LzAyLzIyLXJkZi1zeW50YXgtbnMjIj4KICA8cmRmOkRlc2NyaXB0aW9uIHJkZjphYm91dD0iIgogICAgeG1sbnM6eG1wTU09Imh0dHA6Ly9ucy5hZG9iZS5jb20veGFwLzEuMC9tbS8iCiAgICB4bWxuczpzdEV2dD0iaHR0cDovL25zLmFkb2JlLmNvbS94YXAvMS4wL3NUeXBlL1Jlc291cmNlRXZlbnQjIgogICAgeG1sbnM6ZGM9Imh0dHA6Ly9wdXJsLm9yZy9kYy9lbGVtZW50cy8xLjEvIgogICAgeG1sbnM6R0lNUD0iaHR0cDovL3d3dy5naW1wLm9yZy94bXAvIgogICAgeG1sbnM6dGlmZj0iaHR0cDovL25zLmFkb2JlLmNvbS90aWZmLzEuMC8iCiAgICB4bWxuczp4bXA9Imh0dHA6Ly9ucy5hZG9iZS5jb20veGFwLzEuMC8iCiAgIHhtcE1NOkRvY3VtZW50SUQ9ImdpbXA6ZG9jaWQ6Z2ltcDpjMjNmMDk0Yi02NmQ3LTQyY2EtOWVlYi00YTI2ZDdlZTM5NzIiCiAgIHhtcE1NOkluc3RhbmNlSUQ9InhtcC5paWQ6YTA0ZDlkZDMtODhiZi00ZGM4LWI1NjgtNDE1Njg1YjhhMDE1IgogICB4bXBNTTpPcmlnaW5hbERvY3VtZW50SUQ9InhtcC5kaWQ6ZWNjYTkxZDEtODMxNC00NmU4LWFjOTUtMWRiYmZjN2VlNjU1IgogICBkYzpGb3JtYXQ9ImltYWdlL3BuZyIKICAgR0lNUDpBUEk9IjIuMCIKICAgR0lNUDpQbGF0Zm9ybT0iTGludXgiCiAgIEdJTVA6VGltZVN0YW1wPSIxNjk2Nzc1NDk1MTgyNjkzIgogICBHSU1QOlZlcnNpb249IjIuMTAuMzQiCiAgIHRpZmY6T3JpZW50YXRpb249IjEiCiAgIHhtcDpDcmVhdG9yVG9vbD0iR0lNUCAyLjEwIgogICB4bXA6TWV0YWRhdGFEYXRlPSIyMDIzOjEwOjA4VDE2OjMxOjMzKzAyOjAwIgogICB4bXA6TW9kaWZ5RGF0ZT0iMjAyMzoxMDowOFQxNjozMTozMyswMjowMCI+CiAgIDx4bXBNTTpIaXN0b3J5PgogICAgPHJkZjpTZXE+CiAgICAgPHJkZjpsaQogICAgICBzdEV2dDphY3Rpb249InNhdmVkIgogICAgICBzdEV2dDpjaGFuZ2VkPSIvIgogICAgICBzdEV2dDppbnN0YW5jZUlEPSJ4bXAuaWlkOjVkMzhlN2IwLTFmMTktNDY0MS04NzVhLWUzMTIzZGIxZjk1MiIKICAgICAgc3RFdnQ6c29mdHdhcmVBZ2VudD0iR2ltcCAyLjEwIChMaW51eCkiCiAgICAgIHN0RXZ0OndoZW49IjIwMjMtMTAtMDhUMTY6MzE6MzUrMDI6MDAiLz4KICAgIDwvcmRmOlNlcT4KICAgPC94bXBNTTpIaXN0b3J5PgogIDwvcmRmOkRlc2NyaXB0aW9uPgogPC9yZGY6UkRGPgo8L3g6eG1wbWV0YT4KICAgICAgICAgICAgICAgICAgICAgICAgICAgICAgICAgICAgICAgICAgICAgICAgICAgICAgICAgICAgICAgICAgICAgICAgICAgICAgICAgICAgICAgICAgICAgICAgICAgIAogICAgICAgICAgICAgICAgICAgICAgICAgICAgICAgICAgICAgICAgICAgICAgICAgICAgICAgICAgICAgICAgICAgICAgICAgICAgICAgICAgICAgICAgICAgICAgICAgICAgCiAgICAgICAgICAgICAgICAgICAgICAgICAgICAgICAgICAgICAgICAgICAgICAgICAgICAgICAgICAgICAgICAgICAgICAgICAgICAgICAgICAgICAgICAgICAgICAgICAgICAKICAgICAgICAgICAgICAgICAgICAgICAgICAgICAgICAgICAgICAgICAgICAgICAgICAgICAgICAgICAgICAgICAgICAgICAgICAgICAgICAgICAgICAgICAgICAgICAgICAgIAogICAgICAgICAgICAgICAgICAgICAgICAgICAgICAgICAgICAgICAgICAgICAgICAgICAgICAgICAgICAgICAgICAgICAgICAgICAgICAgICAgICAgICAgICAgICAgICAgICAgCiAgICAgICAgICAgICAgICAgICAgICAgICAgICAgICAgICAgICAgICAgICAgICAgICAgICAgICAgICAgICAgICAgICAgICAgICAgICAgICAgICAgICAgICAgICAgICAgICAgICAKICAgICAgICAgICAgICAgICAgICAgICAgICAgICAgICAgICAgICAgICAgICAgICAgICAgICAgICAgICAgICAgICAgICAgICAgICAgICAgICAgICAgICAgICAgICAgICAgICAgIAogICAgICAgICAgICAgICAgICAgICAgICAgICAgICAgICAgICAgICAgICAgICAgICAgICAgICAgICAgICAgICAgICAgICAgICAgICAgICAgICAgICAgICAgICAgICAgICAgICAgCiAgICAgICAgICAgICAgICAgICAgICAgICAgICAgICAgICAgICAgICAgICAgICAgICAgICAgICAgICAgICAgICAgICAgICAgICAgICAgICAgICAgICAgICAgICAgICAgICAgICAKICAgICAgICAgICAgICAgICAgICAgICAgICAgICAgICAgICAgICAgICAgICAgICAgICAgICAgICAgICAgICAgICAgICAgICAgICAgICAgICAgICAgICAgICAgICAgICAgICAgIAogICAgICAgICAgICAgICAgICAgICAgICAgICAgICAgICAgICAgICAgICAgICAgICAgICAgICAgICAgICAgICAgICAgICAgICAgICAgICAgICAgICAgICAgICAgICAgICAgICAgCiAgICAgICAgICAgICAgICAgICAgICAgICAgICAgICAgICAgICAgICAgICAgICAgICAgICAgICAgICAgICAgICAgICAgICAgICAgICAgICAgICAgICAgICAgICAgICAgICAgICAKICAgICAgICAgICAgICAgICAgICAgICAgICAgICAgICAgICAgICAgICAgICAgICAgICAgICAgICAgICAgICAgICAgICAgICAgICAgICAgICAgICAgICAgICAgICAgICAgICAgIAogICAgICAgICAgICAgICAgICAgICAgICAgICAgICAgICAgICAgICAgICAgICAgICAgICAgICAgICAgICAgICAgICAgICAgICAgICAgICAgICAgICAgICAgICAgICAgICAgICAgCiAgICAgICAgICAgICAgICAgICAgICAgICAgICAgICAgICAgICAgICAgICAgICAgICAgICAgICAgICAgICAgICAgICAgICAgICAgICAgICAgICAgICAgICAgICAgICAgICAgICAKICAgICAgICAgICAgICAgICAgICAgICAgICAgICAgICAgICAgICAgICAgICAgICAgICAgICAgICAgICAgICAgICAgICAgICAgICAgICAgICAgICAgICAgICAgICAgICAgICAgIAogICAgICAgICAgICAgICAgICAgICAgICAgICAgICAgICAgICAgICAgICAgICAgICAgICAgICAgICAgICAgICAgICAgICAgICAgICAgICAgICAgICAgICAgICAgICAgICAgICAgCiAgICAgICAgICAgICAgICAgICAgICAgICAgICAgICAgICAgICAgICAgICAgICAgICAgICAgICAgICAgICAgICAgICAgICAgICAgICAgICAgICAgICAgICAgICAgICAgICAgICAKICAgICAgICAgICAgICAgICAgICAgICAgICAgICAgICAgICAgICAgICAgICAgICAgICAgICAgICAgICAgICAgICAgICAgICAgICAgICAgICAgICAgICAgICAgICAgICAgICAgIAogICAgICAgICAgICAgICAgICAgICAgICAgICAgICAgICAgICAgICAgICAgICAgICAgICAgICAgICAgICAgICAgICAgICAgICAgICAgICAgICAgICAgICAgICAgICAgICAgICAgCiAgICAgICAgICAgICAgICAgICAgICAgICAgIAo8P3hwYWNrZXQgZW5kPSJ3Ij8+xteEJAAAAAlwSFlzAAALEwAACxMBAJqcGAAAAAd0SU1FB+cKCA4fIy0y4zIAAAhxSURBVHja7Z1PjtxEFMbfK/eE7GCJ6FlMJGbFDUBCcRRzg74DWYUoOcBcYARZwRmYG8Sj8QgpG3Ys2CFlFtMLNghWISR2sehyx+20u9122a5X9X3SSFGUP66qn7/36rn+MHkoTcREZ+aHCibS9T9zGyd6jGc5zlLe/nykVr8kve35pIs9A0qZRhVTQNRGr7NXd0/pjzfbntsnyNgTmJiJ8vL3fiaKvoyTdxKef56ls+qzN70cAGu0UEeqNiCzZZy8lf2W6PPj68tnlTZFTaEcYNkHiqtvs0thbqjczLiYqDDJEoHyFaZ9kEkCjAEUAAsGLAAlHzB2EKqoTMoBVFvAFhHTRQ6wmssGmok0gDpIN8dZem/bxCZ4sPSqdICwZyk8ugAXTw0UXMo+YC64l5o4lyoAlV2VfclEhSmwhuFY1bcJQI3iXpPMHHlkqJBLBZJ78dhQ/U5f3Pk4/uwNhnwa9xoLLh4JqoiJcriUE3BF1Y/3YsECVGHCxQNDpZCkhxkWGVCFPmPUmomtj5ECVGHqNk70yrF4EHNhQAXnGiIsMqCChoCLARU0BFzKElQRoPIj57L1fZEtQAWngnPZBQtQAS7rYOnVPBVLXvyGi7uuilBdoSIiBlT+6hWd3CWictHgWMn7QknfAg7t1lF8+tqMcSewDv5L5Y4QuBXyLWtgIVkHXNZDYRlrM6IZujoslbWtQ/ItPuAfh1vBtVq7FgMqaAi4VAuozGL8M4WuDT4kqrYhsQ0szETFMn6Zo2vD1jJO8rYlCG7jVss4Qc0KWmuepeVxlrqrY7GPJ/pC/WSY4E6OVe6ghVtBO1yr8XwI1YJMCDqYDYXygkjdTP0AlYWBWxkSUUWfX714PzN58E2YoWezD04EOJrbblXt0K1TYE9Bk9LupqKp8461fPDNzk72yc32wSSpnbNNt9LMxMXy6wffag8GxvUBaAuSy7q9//B7vr58sjMU6gVFfOHWAR62Ot8VyGy0x7UXZttBI5uh8MK9VaH7QqHzbqb1+TxLnwYwvyi2OpbDJYab+dWLk6HhlRTilvcfPiKlfnTQtdZJvIRyw+BT695uNrYrOQZVY/JeJu1YHboJ2j7AKkA+Db3PNNGMidZ3RJqq6eoom1Pp9/1B0+XChp2yEo/Fe9Aw0dpk8IWmRYTugHqGw3XyrkrrWsZ/v0PXQD3DYV4Cpsizm+whJ8SKsFUesq9CMZHWRHectthAl8pI7AtNdIeJtMmvElxBAtnKs96sZ4V4U9EHg5QbIChosEJ2LWltV69O6C46GG22qds40eroXvIaHY222tZMeof7sLzXx5dn5ssA+AKYL2488+0NlwqYb+Hdu4V91QFyHTKfc0WvV4y6CFkoE49gliJPCVmIJZIg17jXB9o2aPj8hM0T1twMMG3K/ftwalurcNoM0TJOzonZ6Z1B7jtWrQNDOtKo0T0dh0p8KJR2CEhnkBAK3elwKZD5mtM5DxZOm5H50njrWC4NTIjljCDLDUPnZr6uuIBjje0GWj+fZ+njMfvEdddCgXQHxAecNgOoasJmCghgQWvdACxoCJ0ALAihEIIAFgSwoADBOs5SHLwGWdVxljIcC0IohAAWBLCI5ln6EboCsgqWXl1L8R+6ArKVuGsinhnXyn1s5ND7B6U/z5CGNaM919z7CtpYgxrodjU9K6+omGefzEK6nWIo9wh54+o8SyOi1RU65lo5UkwX+S0lzkIw+OWSPdxsTJhcBnd1J9PqPh2sIO0xeNhWv6fc8D4cpkfoEqhjGDyqsrQukBoLww1gUNcw+E5XeELlHRouFFYSL3Z1tQPyGXf7oCyKcuUmuU3HWsDBoP4m9SFYF7ogIuI8f4R+glpJ6x9MxMsbwWJirYnU/JernxAK0PZWYfD68onekqt7Hfpc/hbn+/kOasu0sdAOL1nGJU3OJe2Kt1z/jGQd6p5ekebWjgXXQlvbuhURMzdcVq92E0ksvcMl5zIuv0D72GgEy5DILm8PW8bJua+TCpfbZphodKs2OZZ22bUkHEvtW9v+/eufTw0TupNjGdfSzrtWi3DhUjhs5VYOh8DPf/v1T+NWO8Fqsx5LayJF2VfRMn6ZuwzXnkG7IceP/3F9UjLP0sgUQ/cuZ99bbijJZDorJCe786sXk0O1C3wRR2ybnIpbgNU6xJWFMAmH4dbv33FhAJugknAvTpmwNxVD+4LFRMTXROo0Tt5Knn25cs67mNszsrTczaW55a6ug5JyUa61Z2DHGtQp/++p3OpgsFZwLSKmi1waXGMPsg9AdYWqE1iSnWvXwNsa9A/+3Th5TsyPJfZRV6j6gMVExMs48WJrfu9LJuuXdQpJyNuUFw7Jq3qDVcLFRFqya/V1sWrh2Kd+qLgVc8cjGHpV1H0IiZDdEGgFLMAFqJrUe6GfWbsV4ZBcb6CK+kJlxbHgXHCqQcECXIBqMLAAF6AaDCzABaisJO87EnrceiEAqtVyO/sabPsX4HIdqkXERAUT64HGf1iZ6WuOsOhcSWHQz3GjuAngCguqQUNhjd58HRa1PscQT5qo5yON+XiqzkDgXuMBVe9778AyDVxvdgRcY838ui19EQVWPe+Ce9nXPEsVr+oIEU90nc1kp82s8q4zpR3fECs89OUTju/0Qu4lN5dyzrFqdBfaXHFnOugGqBycS7ErUDnjWMi9+rrUaueUS8/mZG5TnTkCsN1hb4oZn1iwAJhcoESABcCISOvnx9eX30kBShRYTYD5DFm1BCMJKJFg1QDbqNNootlSyGElO9zp/Pj68ll1IkNEBQu8Xll8YdK8zVyDLFrGiYgr8uZZOtt89kVEdKFdKRsEC9YWyKg+KK6Fy/qXhhImaeEuGLA2Q+WZ+dkeSsaCbdvnqjKU04FnTknS/4Osaxsssl71AAAAAElFTkSuQmCC;" vertex="1" parent="1">
          <mxGeometry x="120" y="-204" width="40" height="40" as="geometry" />
        </mxCell>
        <mxCell id="V3Jk48kscWsiEnofZRHU-111" value="" style="shape=image;verticalLabelPosition=bottom;labelBackgroundColor=default;verticalAlign=top;aspect=fixed;imageAspect=0;image=data:image/png,iVBORw0KGgoAAAANSUhEUgAAAJYAAACWCAYAAAA8AXHiAAAQ4UlEQVR42u2de1SU9brHP3NBEAUlQ1IREDXdopiogZdirdKNprnzmqc0lTLt4uWclmxZtk0z107THaiRu86Gji5Nbeva3lbGUUtENNtb2js9goZiSkMKG8dEQME5f7yv4wwMOjMMyMw8n7WeBXN533fm+X3n+V3e3+/5afBeNEAXoCsQbmHtahmAH9BS/b8CqARMwL+BUgu7ABSqfwvU/03e6lxvQAv8BhgEDASigSggoJGv+ytwEvgB+A7IAU57g9g8WVg9gBHAb4HBQNtm8rnKVIFlAvuAMwjNPioNAVKBc2pUcAcrAFLUz66RYmw+9AH+BFx0IzHVZz+p36W3FOuDwR9IBI56gJjqsxxghvpdhUYmBFgClHiwoGqbUa3eQ6X4XU8X4C8W3XxvtErgUyBC5NBwOqu/Vm8WVG27CWwAIkUejtNKrfIqREj1WpX6owsUudg3rpYIGEQ4dtvPaiNfhirqoRtwQITitGWj3F0QVPTA29KOcolVAItUn3o1EeovTUThWjsOdPdWUc1AuUkrQmgcuwZM8yZB+arjMVL4TWMbvGH0vjPwrRR2k9sJdZDZIxkMXJFCfmB2GWU+mkcxHrghhdssbgv9h6eI6i3gthRqs7EaYL67i+r3UpDN1t53V1G9K4XX7G2lu90K+qMUmtvYh+4iqiVSWG5nf3CHhroUlHtas23QT1R7HFJI7mm3m+NQxECgXArHI2ZHDHaFIFzRIwgH/g48jOAJXAEGoCxFcxptAz+EH/BXEZVHEQzs5G6uigcirI9UdQuexWPAnx/UxWdIm8Tj7aWmbmNFAt/T+NlahAfLdSAGONsUVaEe2CSi8gpaq2Xt4+iBOicultyQECm4HZ3UYYjsxqwKHwX+qfYGBe+hCuiHkjTO5VWhFvhvEZVX4gt87EggckRY04EnxMdeS7wjTSB7FRgA5AMdxL9ezS9qc+iaqxrv76Lk8xSkl2gCDroiYoWp0UraVgIoCzK6A5caGrE+AGLFn4KKHmUB7N6GRKwINVq1EH8KFtwCeqJkp3aqV/gHEZVgAx+UgXKnIlYIypYd0rYSbFGFsmzf4GjEmieiEu6BL/CGoxGrFcoMwofEf8I9+DdKopcb9kas50VUgh08pGrF7qpwpvhMsJNX7K0K+wD/En8JDtAbOHW/iDVD/CQ4yPT7RSyNOsQQJr4SHOAiyjJAU30Ra4iISnCCzkCc5RO184FPdOXVwsLCeOSRRxw+7urVq5w54/qNRx977DFatHD8RsK5c+coKSlRHKbX8+KLLzp1/b1795rP44FMQtnmz6awRrvySh07diQ6OtrxuHrxYqMIKyoqilatWjl8nNFoNAvCx8eHCRMmOHX9Y8eOebKwfgf8p62qsAeyo5TgPF1Qtq2pI6yR4huhgYywJazh4hehgfy2trA0eGAOcKHJGXpHU3eEFQUEiV+EBhKkttXNwhosPhFcxGBLYfUXfwguYoClsKLFH4KL6HNHWBq1jSUIrqA3oNGirMSRlESCq2gDdNZiMVoqCC6i652IJQiuJEKPMo/GKyguLqZlS8eTAd+4cUOk4hjhepS5NF7BgQMHpMibSFhalLzeguBKHtYiyf+FRhCWHmjX3D9l//79efhhx/VfWFhIfn6++XF8fDx+fo4v7j558iRFRUUu/U6dOnUiMTHRqWNXrFjBzZs3AWVW7LPPPuvwOYxGI2vWrGmsImunxw3GsEJCQggNDXXKeZaEhoY6NYO0sLDQ5d+pdevWPP74404dq9PdzT4VHBzs1HkaeSZrGy3KGnxBcCUttEiaIkGEJbgJvlrxgdAYaIGb4gbBxVSJsITG4KYWJeWfILg8Yl0TPwguxqgFSsQPgosp0QKl4gfBxZRKxBIaTVg/iR8EF3NBD1xorLMXFxdb3TC1l7KyMqvHhYWFdW4o23t9S/Lz8/H19W3Q56murmbPnj1O+cPyPGVlZU6fp7q62vz/Tz/95NR5rl+/3qjC0qAkA8mUH5ngQp7SAj+KHwQXU6BBWbB6FQgUfwguwAgE6VEy3Z6iGacxio+Pp0MHx3cNzsvL4/vvvzc/XrRoEeHh4Zw+fZoPP/zQ5jFRUVHMmzcPgNWrV1vNQL0f/fv3Z9u2bQC88MILfPvtt3YdFxYWxty5c3nyyScJCAjAYDBw4MAB0tPTMRgM7iask4DpTg7SfzVnYbVq1YrAQMcDau1pyOPHj6dfv34cPHiwXmGFhYUxc6ayMceWLVscEpafnx+RkUq2TXuXmQ0dOpS9e/eSn5/Ptm3b+OWXX+jWrRtTpkwhOTmZ5ORk1q5d607C+gHuJrf9h0Twpkev17Np0yZ27drFSy+9hMlkTpPOu+++y5tvvsmsWbNIT0+nvLzcXb7Wd5bCypFivjc6nY5BgwYRERFBSUkJWVlZ3Lhxgw4dOtCyZUsqKyttHte9e3diYmKorq7m6NGj/Pzzz1ZVZ1hYGMuWLbMSFUBNTQ2pqamkpaVx69Ytq9d8fHwYMmQIoaGhlJaWcvjw4XsOH0RGRhITE4OPjw8nTpxwKAo7wRFLYf0fyhZhsuOXDeLi4tiwYQPdu3e/20I1Gpk7dy5Tpkxh+PDhHDp0iEWLFplfDwgIYOvWrUyaNMlKLGlpabz11lvcunXLXF3ea6yvtqjGjRvH2rVrCQoK4uzZs7Rt25agoCCSkpJYv3691XtDQ0P55JNPSEhIIC8vj5qaGnr16sWhQ4d45ZVXOH/+vKtdVQqcgbv5sUxYJH8X7tKjRw8yMzPNoioqKiInJweTyURGRgYxMTE2j1u3bh2TJk3iwoULHD9+nIqKCnQ6HXPmzOHjjz9W6ozvvqO0tJSNGzfSs2fP+36WyZMn8/nnn5OamkpgYCB9+/YlPDyc6dOns3z5cmbMuLsNUseOHcnJyUGv19O1a1eioqKIjo6mc+fOGI1G4uPjGytamSyFBfC/3iKWoUOHUlxcbNM2bdpk9d6lS5cSEKCskEtKSqJz587mamjLli20a2d7WWZoaCiJiYlEREQQGxtLZGQkR44cAeDll1+mX79+lJeXM378eIKDgzl16hRff/01CxYsICqqbrqyNm3akJaWxttvv83KlSutRt937NjB66+/zsqVK80dltTUVC5fvszo0aOtlq8ZDAbGjRvHZ5991hiuNWvIUlj7vEVYLVq0ICQkxKYFBd3N8avRaHjmmWcAOHz4MB988IG5LVReXs6rr75a762mzZs3k5GRYX5cXFzM1KlTzVXbxInK7jKHDh3i0UcfZebMmVy7do133nmHkydPUlBQwKxZs9DrldbK2LFj0el0pKSk2Lzetm3bMJlMPPXUUwQHBzN27FiWLl1qXtjaRJg1ZLnlST7KdvcevztFfn5+vauAe/XqxRtvvGEePrgTrU6cOFHnveXl5Zw+fZq4uLg6r2Vm1r1Ldv78ec6cOUNUVJRV1VdVVUV6ejrp6en4+vryxBNPMG3aNNatW8f48eMZOXIk0dHRGI1Gli1bVu/3qqyspG/fvlRVVaHT6cjKympKt57D4i5O7b10dqNsMu7RFBUVkZaWZvO1kSNHmoVVWVlJVVUVvr6+dOnSpc57tVotERER9RayLSoqKsw9O1tUVVWxf/9+9u/fz9atW9m9ezfjxo1Dp9Oh0WisImptvvzyS/Lz883nbuJotdNqKKXWi194g7DsxWQykZWVxfDhwxk1ahTDhg1j//795tcXLlxY7+5msbGxfPHFF1bPtW3bll69epmj1/3Ys2cP586do3fv3uTn56PX65k9e3adoYna3BF7v379yMlpspGkrVY/ulov5iDzs6x47733qKmpQafTsW/fPnbu3ElKSgo5OTksX77cqhFtyWuvvWbVY9Tr9aSkpODv7w8oW8xFR0czaFD9Nzz8/PwIDg7GYDCwY8cO2rRpw+TJk+/7mQsLCzly5AgLFixoKjddBI7fS1gm4K8ip7tkZWUxc+ZM83DBmDFjmDdvHnFxcaSkpPDNN9/U3/c+coQtW7awZs0acnNzmTZtmvmcmZmZTJ06lYMHD7J48eI6t6wCAwPJyMigurqa7du3U1xczOLFi/noo49ISEioUyXPmDGDhQsXmp+bM2cOCQkJrFixwqra1Wq1JCUlMWLECFe6aQsWu6vaqgoBMoD/EklZOCQjg8zMTCZNmkRkZCRXrlxhz549nDhxwtyor92mmjt3LklJSTz//PNWzx87doyJEydiMplISkri7NmzLFmyhOTkZI4ePcqlS5do3749AwcOpLKykjFjxnDlyhUAVq1ahV6vZ+fOnWRnZ3Pq1CmCgoKIj4/H19eX+fPnm6+Tm5tLQkICmzdvZvLkyWRmZlJdXc3TTz9NYGAg06dPd6WL/qf2E5p63niUWluxPkjCwsJo3bq1w8eVlJRw+fJl8+PRo0fTrl07DAaDzV4bKHmrhg0bBsBXX31FcXExnTp1wmAwcPv27TrtqOzsbPR6PatWrWL16tWMGTPG3D4qKytjwoQJDBgwgOrqag4fPsyuXbvqnKdFixbEx8cTGxtLSEgI169fJzc3l927d5sb+7X9MXHiRLp27YrRaOT48ePs27fP5nv9/f157rnnGDhwIFqtltzcXLZv386vv/7qykHRofYKKxH4i8QqhezsbFq2bMnGjRvJy8vD39+fuLg4Zs+eTUBAABUVFfTp04eCggJvdE+iWsvZhT/KfR+Tt1v79u1Nly5dMtXH1atXTaNGjfJW/5SoWqlDfXc/b6HMKH3S26NVeXk569evp6CggIqKCqqrq7l27Ro//PAD6enpJCYmkpub663uWU096yU09zioPcoKHj8EoS5VKJtPFNt68V75sS4Dm8R/Qj1sqE9U94tYoOxacQbJ+ifUbSr1AOq9fXC/jH4XHGnxC17Dp/cSlT0RC5QtUc5IW0tQqQC6A/dMfG/P+vdrQCvgCfGpALwP7LrfmzR2nqy1GrU6iF+9miK1bXXfJUP2Zuy4ibLY4nfiW6/mTeDvrj6pBjiAjMZ7q33jQA1n/xtVHgX+KQ15r6MKeAzIs/cAR5NX3Ukr+ZT42qtYDPzN0erNUfRAFs0414PgUr4DhqAMijaqsEBZyZOLpD7ydK4DMcBZRw/UOXnBMsAAPCe+92heVhvtTc6n0lvyWFv/IBXti7I6QwrCs+xbGrhBqsYF4gpXG3jBUnN4BJeBAShLupzGFfsVXgBGATekTNyeCrXdfLE5fagJQI1UI25rNcC45qr4+VJAbmtz3WGUVgrKvWyRu9TVf5TCchv70N0agkul0Jq9rXDXXsbvpfCarb3v7l3Y+dJbbHa9vzmeMj4yFmU6qxTsg7UK4HlPG3wbpI7qSgE/GPsFiPXUkd1QlBRJUtBNa/9AWQ7v0fgCqVLYTWYbgJZ4ES+h7G0nhd84ZgSmeOtNz3CUac4iBNdPe+nm7XfU9UCy2mMRUTTMbqi+1COY6YqyF4sIxDnLAnqKjGyjAaahLOUWsdhnRcBUXDNp0+PxB5aooV3EY9uq1N51gMjFuXGvVGl/WdlN4M9AJ5FHw4lAWRFU6cWCqlQFFS5ycD3t1SqyxIsEdVWN2hKhmqgNNoO7W8V6oh1Rv6O/FPeDIQpYhbJayN3FVAisBHpJsTavoYpBKFNtf3QjMZ0F/oSyd5HGkwrDU+kGjAASgMHAQ83kc5Wi7Av5lWo/euqv3FuiWU9VYAOBPmoV2qaRr2sETqp2HGXKUB619vYTYXnmMEak2oUPVx+3q2ValA0UWqnHlKtjSbfV6GNphWpbrxBl8+0L3urY/wexPJFwuq+QOQAAAABJRU5ErkJggg==;" vertex="1" parent="1">
          <mxGeometry x="517" y="-124" width="40" height="40" as="geometry" />
        </mxCell>
        <mxCell id="V3Jk48kscWsiEnofZRHU-112" value="" style="shape=image;verticalLabelPosition=bottom;labelBackgroundColor=default;verticalAlign=top;aspect=fixed;imageAspect=0;image=data:image/png,iVBORw0KGgoAAAANSUhEUgAAAJYAAACWCAYAAAA8AXHiAAAA0GVYSWZJSSoACAAAAAoAAAEEAAEAAACWAAAAAQEEAAEAAACWAAAAAgEDAAMAAACGAAAAEgEDAAEAAAABAAAAGgEFAAEAAACMAAAAGwEFAAEAAACUAAAAKAEDAAEAAAACAAAAMQECAA0AAACcAAAAMgECABQAAACqAAAAaYcEAAEAAAC+AAAAAAAAAAgACAAIAEgAAAABAAAASAAAAAEAAABHSU1QIDIuMTAuMzQAADIwMjM6MTA6MDggMTY6Mzc6MjcAAQABoAMAAQAAAAEAAAAAAAAA46AYfwAAAYVpQ0NQSUNDIHByb2ZpbGUAAHicfZE9SMNAHMVfW6WltDjYQcQhQ/0Y7KIijlqFIlQItUKrDiaXfkGThiTFxVFwLTj4sVh1cHHW1cFVEAQ/QFxdnBRdpMT/JYUWMR4c9+PdvcfdO8DfrDLV7JkFVM0yMqmkkMuvCsFXhBFCFGMYlZipz4liGp7j6x4+vt4leJb3uT9HVCmYDPAJxLNMNyziDeLpTUvnvE8cY2VJIT4nHjfogsSPXJddfuNcctjPM2NGNjNPHCMWSl0sdzErGyrxFHFcUTXK9+dcVjhvcVardda+J39hpKCtLHOd5hBSWMQSRAiQUUcFVVhI0KqRYiJD+0kP/6DjF8klk6sCRo4F1KBCcvzgf/C7W7M4OeEmRZJA74ttfwwDwV2g1bDt72Pbbp0AgWfgSuv4a01g5pP0RkeLHwF928DFdUeT94DLHWDgSZcMyZECNP3FIvB+Rt+UB/pvgfCa21t7H6cPQJa6St8AB4fASImy1z3eHeru7d8z7f5+AK3ecr4DKaXQAAANeGlUWHRYTUw6Y29tLmFkb2JlLnhtcAAAAAAAPD94cGFja2V0IGJlZ2luPSLvu78iIGlkPSJXNU0wTXBDZWhpSHpyZVN6TlRjemtjOWQiPz4KPHg6eG1wbWV0YSB4bWxuczp4PSJhZG9iZTpuczptZXRhLyIgeDp4bXB0az0iWE1QIENvcmUgNC40LjAtRXhpdjIiPgogPHJkZjpSREYgeG1sbnM6cmRmPSJodHRwOi8vd3d3LnczLm9yZy8xOTk5LzAyLzIyLXJkZi1zeW50YXgtbnMjIj4KICA8cmRmOkRlc2NyaXB0aW9uIHJkZjphYm91dD0iIgogICAgeG1sbnM6eG1wTU09Imh0dHA6Ly9ucy5hZG9iZS5jb20veGFwLzEuMC9tbS8iCiAgICB4bWxuczpzdEV2dD0iaHR0cDovL25zLmFkb2JlLmNvbS94YXAvMS4wL3NUeXBlL1Jlc291cmNlRXZlbnQjIgogICAgeG1sbnM6ZGM9Imh0dHA6Ly9wdXJsLm9yZy9kYy9lbGVtZW50cy8xLjEvIgogICAgeG1sbnM6R0lNUD0iaHR0cDovL3d3dy5naW1wLm9yZy94bXAvIgogICAgeG1sbnM6dGlmZj0iaHR0cDovL25zLmFkb2JlLmNvbS90aWZmLzEuMC8iCiAgICB4bWxuczp4bXA9Imh0dHA6Ly9ucy5hZG9iZS5jb20veGFwLzEuMC8iCiAgIHhtcE1NOkRvY3VtZW50SUQ9ImdpbXA6ZG9jaWQ6Z2ltcDpmNTljMmMyNi02ZDJlLTRmOWItYmNiZC1mYmUyZTdhZWJjYTgiCiAgIHhtcE1NOkluc3RhbmNlSUQ9InhtcC5paWQ6NWMyYzY5OWYtNDFjNy00MTU1LTk4NWYtZjI1NzU0NjIyZjU2IgogICB4bXBNTTpPcmlnaW5hbERvY3VtZW50SUQ9InhtcC5kaWQ6YWZiZDQyNTUtYjhhMi00MTJmLTk0MTktZDk1NmI0MWQxY2QxIgogICBkYzpGb3JtYXQ9ImltYWdlL3BuZyIKICAgR0lNUDpBUEk9IjIuMCIKICAgR0lNUDpQbGF0Zm9ybT0iTGludXgiCiAgIEdJTVA6VGltZVN0YW1wPSIxNjk2Nzc1ODQ4ODUxODM2IgogICBHSU1QOlZlcnNpb249IjIuMTAuMzQiCiAgIHRpZmY6T3JpZW50YXRpb249IjEiCiAgIHhtcDpDcmVhdG9yVG9vbD0iR0lNUCAyLjEwIgogICB4bXA6TWV0YWRhdGFEYXRlPSIyMDIzOjEwOjA4VDE2OjM3OjI3KzAyOjAwIgogICB4bXA6TW9kaWZ5RGF0ZT0iMjAyMzoxMDowOFQxNjozNzoyNyswMjowMCI+CiAgIDx4bXBNTTpIaXN0b3J5PgogICAgPHJkZjpTZXE+CiAgICAgPHJkZjpsaQogICAgICBzdEV2dDphY3Rpb249InNhdmVkIgogICAgICBzdEV2dDpjaGFuZ2VkPSIvIgogICAgICBzdEV2dDppbnN0YW5jZUlEPSJ4bXAuaWlkOmI0YjUzOWNiLTg2ZTYtNGViMC04NDY0LWNjNzQyM2ZiNTE0ZiIKICAgICAgc3RFdnQ6c29mdHdhcmVBZ2VudD0iR2ltcCAyLjEwIChMaW51eCkiCiAgICAgIHN0RXZ0OndoZW49IjIwMjMtMTAtMDhUMTY6Mzc6MjgrMDI6MDAiLz4KICAgIDwvcmRmOlNlcT4KICAgPC94bXBNTTpIaXN0b3J5PgogIDwvcmRmOkRlc2NyaXB0aW9uPgogPC9yZGY6UkRGPgo8L3g6eG1wbWV0YT4KICAgICAgICAgICAgICAgICAgICAgICAgICAgICAgICAgICAgICAgICAgICAgICAgICAgICAgICAgICAgICAgICAgICAgICAgICAgICAgICAgICAgICAgICAgICAgICAgICAgIAogICAgICAgICAgICAgICAgICAgICAgICAgICAgICAgICAgICAgICAgICAgICAgICAgICAgICAgICAgICAgICAgICAgICAgICAgICAgICAgICAgICAgICAgICAgICAgICAgICAgCiAgICAgICAgICAgICAgICAgICAgICAgICAgICAgICAgICAgICAgICAgICAgICAgICAgICAgICAgICAgICAgICAgICAgICAgICAgICAgICAgICAgICAgICAgICAgICAgICAgICAKICAgICAgICAgICAgICAgICAgICAgICAgICAgICAgICAgICAgICAgICAgICAgICAgICAgICAgICAgICAgICAgICAgICAgICAgICAgICAgICAgICAgICAgICAgICAgICAgICAgIAogICAgICAgICAgICAgICAgICAgICAgICAgICAgICAgICAgICAgICAgICAgICAgICAgICAgICAgICAgICAgICAgICAgICAgICAgICAgICAgICAgICAgICAgICAgICAgICAgICAgCiAgICAgICAgICAgICAgICAgICAgICAgICAgICAgICAgICAgICAgICAgICAgICAgICAgICAgICAgICAgICAgICAgICAgICAgICAgICAgICAgICAgICAgICAgICAgICAgICAgICAKICAgICAgICAgICAgICAgICAgICAgICAgICAgICAgICAgICAgICAgICAgICAgICAgICAgICAgICAgICAgICAgICAgICAgICAgICAgICAgICAgICAgICAgICAgICAgICAgICAgIAogICAgICAgICAgICAgICAgICAgICAgICAgICAgICAgICAgICAgICAgICAgICAgICAgICAgICAgICAgICAgICAgICAgICAgICAgICAgICAgICAgICAgICAgICAgICAgICAgICAgCiAgICAgICAgICAgICAgICAgICAgICAgICAgICAgICAgICAgICAgICAgICAgICAgICAgICAgICAgICAgICAgICAgICAgICAgICAgICAgICAgICAgICAgICAgICAgICAgICAgICAKICAgICAgICAgICAgICAgICAgICAgICAgICAgICAgICAgICAgICAgICAgICAgICAgICAgICAgICAgICAgICAgICAgICAgICAgICAgICAgICAgICAgICAgICAgICAgICAgICAgIAogICAgICAgICAgICAgICAgICAgICAgICAgICAgICAgICAgICAgICAgICAgICAgICAgICAgICAgICAgICAgICAgICAgICAgICAgICAgICAgICAgICAgICAgICAgICAgICAgICAgCiAgICAgICAgICAgICAgICAgICAgICAgICAgICAgICAgICAgICAgICAgICAgICAgICAgICAgICAgICAgICAgICAgICAgICAgICAgICAgICAgICAgICAgICAgICAgICAgICAgICAKICAgICAgICAgICAgICAgICAgICAgICAgICAgICAgICAgICAgICAgICAgICAgICAgICAgICAgICAgICAgICAgICAgICAgICAgICAgICAgICAgICAgICAgICAgICAgICAgICAgIAogICAgICAgICAgICAgICAgICAgICAgICAgICAgICAgICAgICAgICAgICAgICAgICAgICAgICAgICAgICAgICAgICAgICAgICAgICAgICAgICAgICAgICAgICAgICAgICAgICAgCiAgICAgICAgICAgICAgICAgICAgICAgICAgICAgICAgICAgICAgICAgICAgICAgICAgICAgICAgICAgICAgICAgICAgICAgICAgICAgICAgICAgICAgICAgICAgICAgICAgICAKICAgICAgICAgICAgICAgICAgICAgICAgICAgICAgICAgICAgICAgICAgICAgICAgICAgICAgICAgICAgICAgICAgICAgICAgICAgICAgICAgICAgICAgICAgICAgICAgICAgIAogICAgICAgICAgICAgICAgICAgICAgICAgICAgICAgICAgICAgICAgICAgICAgICAgICAgICAgICAgICAgICAgICAgICAgICAgICAgICAgICAgICAgICAgICAgICAgICAgICAgCiAgICAgICAgICAgICAgICAgICAgICAgICAgICAgICAgICAgICAgICAgICAgICAgICAgICAgICAgICAgICAgICAgICAgICAgICAgICAgICAgICAgICAgICAgICAgICAgICAgICAKICAgICAgICAgICAgICAgICAgICAgICAgICAgICAgICAgICAgICAgICAgICAgICAgICAgICAgICAgICAgICAgICAgICAgICAgICAgICAgICAgICAgICAgICAgICAgICAgICAgIAogICAgICAgICAgICAgICAgICAgICAgICAgICAgICAgICAgICAgICAgICAgICAgICAgICAgICAgICAgICAgICAgICAgICAgICAgICAgICAgICAgICAgICAgICAgICAgICAgICAgCiAgICAgICAgICAgICAgICAgICAgICAgICAgIAo8P3hwYWNrZXQgZW5kPSJ3Ij8+WkOGNwAAAAlwSFlzAAALEwAACxMBAJqcGAAAAAd0SU1FB+cKCA4lHL79EHYAACAASURBVHja7X15eFNV+v/nJjdrm65p0pbSAoWyVLayiOyFUqCAyrANz4iKOLKMiAsIMjigg4JfUb5+YRBccBlwQMARKvtSkK1SShG6sXWhK3RNl6RJk5zfHzPn/m7SlCZpCmnp+zz3qZLt3nM+510+5z3vy6BdOElPTyc3b97EvXv3cP/+fZSVlSE/Px9FRUUoKSlBZWUlamtrUVdXB5PJBIZhIBKJIJVKoVAo4OPjg4CAAAQGBiI4OBg+Pj5QKpUICAhAaGgonnzySeZxGUvmcQZSSkoKuXXrFuLj45GSkoJ79+6hpKSkRX5LoVBApVJBrVZj1KhReOqppxASEoLQ0NCPlErlivZl3colMzOTvPnmmyQqKoqwLEsANLgEAgERCoVEKBQSgUBABAIBYRiGMAxj8/0AuNf5n6Wfb+xzLMuSrl27kqlTp5Ivv/yS5Ofnk/YZamWye/duMn78eCIWiy0m1xoADwKPsxcfdHzgWb9PLpeTYcOGkZUrV5Lr16+3g8yd5dSpUyQ6OtommFoCRI4CTiAQEJZliUAgsHjNw8ODjBkzhmzevLldk7mbvPvuuw3M26MEkr1AE4lEFv8eEhJCli1bRq5du9YOsEchWVlZ5Pjx42Tbtm0kLi6OA5S1NmgNF1+b8TXtyy+/TFJTU9sB1tJy/vx5snz5chIREUEUCoWFeXuQ49yaLmttK5FIyMKFC0lBQUE7wFwt8fHxZPTo0Q3MRmvWUvZcfA0WHBxMtm7d2g4uV8itW7fIjBkzGgw2jbzagoayx0zyNdjkyZPJ7du32wHmrBw/fpx06tTJwjy4Akh8UPLpAJZlG1ARfN+H/3pL0hUPMpFUg3Xo0IH88ssv7eByVHbs2MGt0saITWdWfUtEinTCHxbI+M/w6aefugW4WsWWzt69e8nMmTNBCAHDMDCbzc49LMNAIBDAbDaDEMvxl8vlUCgUUCqViIyMRNeuXREaGgqZTAaRSASWZbnP1tfXo76+HtXV1cjJyUFGRgYyMjKg0WhQVVUFo9Fo8d0CgQAMw8BkMrXYGAkEAgCA2WzGG2+8gY0bNzLtwHqAXLx4kURHR0Ov1zcbVHwweXp6YuzYsejTpw9CQ0MRFhaG0NBQKJVKDggCgQCEEO7ifxfD/Gfo6GsGgwEFBQXIzs5GTk4Obty4gSNHjiAvL8/m55x9DnsWjslkwsKFC/H5558z7cCyISUlJT+OGjVqRnp6OoRCodMrnmoahUKBOXPmYMiQIRgwYABUKhUkEgmMRiOnhai2sdZoTU0ozXQQiUQQi8UghKC8vBy///47EhISkJSUhIsXL3KfEQqFIIS4HGAMw0AoFMJoNGLFihVYv3490w4sK3nllVfIF198AZZlG5gXR0GlUqnw5ZdfIiYmBlqtlgMSTX/hX86KtXYTi8XcpdVqkZycjN27dyMhIQH5+fkWoHQlwPia6+uvv8a8efOYdmD9V06cOEHi4uJgNpthMpkc0iDWoAoJCcHOnTvRp08flJeXQygUNhtEjgJNKBTCw8ODamIcOHAA33zzDTIyMhr4SK7yuQghkMlkOHfuHKKioph2YAEYOnQouXDhgtMmkIJKrVZj37596NmzJzQaDViWfSTPwweZWCyGp6cnysrKcObMGWzZsgVJSUmcibQVXDRHW/fu3RvXr19/qHMtcNco8MKFC9zAODugPj4+2LFjByIjIx8pqPjmifo/5eXlYFkWU6dOxb59+/DVV1+hT58+nHYWCoXN/k2z2QyWZXH9+nVs2LCBPPYaa8iQISQxMdEpbUVNnEAgwPbt2/HMM8+gtLQUIpHILTWzyWSCUCiEQqFAdXU1duzYgW3btiE3N5fTYM2hKai59/b2RkpKCjp37vxQ5lzobgN94cIF8ve//91pf4Nqq5UrV+Lll19+KKDimzlb1IQ9vpBOp4NQKMTw4cMxdepU6PV6pKamwmg0Nlt7CYVC6HQ6SKVSnD9//r3HElg6nW7NtWvXwLKsw8Ci/sm4cePw8ccfQ6PRuMSkPAhQNPqjRKpYLIZIJIJQKOQcclsRIx90lDcjhECr1UIulyMuLg4jR47EzZs3uQiSUhTOaC2GYZCXl4fbt29Hfvzxx3seK1OYlZVFoqKiUFlZ2YDQtHfwvL29cfjwYXTu3BlarbZFgEUBIpFI4OXlBZlMZlMzmc1m7iKEwGQyQa/Xw2AwwGQyWbxmTbqazWZ4eXmhrq4O3377LT744ANotVoL0rapseAvTGpSt27digULFrT4vLPuBKzExERUVlY65bTTgVy6dCl69eqF0tLSFnHWzWYzByi5XN4AcHyACQQCC60FgPsM3Rqi5CwFHAWNQCBAdXU1BAIBXn31VQwdOhRr1qzBmTNnLEy+rXGg32G9OBmGwc8///z4Oe9PP/00iY+P58g9R/2qyMhIHDp0iFvVrgaUUCiEl5cXFApFi3BgRqMRdXV1MBgMHNCog+/l5QWTyYTNmzdj48aNqK2tbeDYUyAFBwcjNDQUiYmJ3L/RMQoLC8PVq1fDfX19sx4LYGVlZZH+/ftDo9E4bAYpkLZv346pU6eioqLCpSbQbDZDJpPBz8/voVEWZrMZBoMBWq0WBoMBOp0ODMPAz88Pv/76K5YuXYobN25YLCJCCEQiEfbu3Yvu3btj+PDhKC8vb6BNDx06hAkTJrTo3LsNj3Xy5EloNBqHtQ1dif3798e4ceNQVVXlUlARQuDj4wOVSvVQeTCBQACpVAo/Pz+o1WoEBgbCw8MDFRUVGDJkCH755RdMnz6dM4fUr9qyZQtGjBgBlUqF1atXN/CzzGYzx/Y/FsBKS0vjBtQZnua5556Dp6eny1JTKLgDAgLg7e39SMeGYRjIZDIEBAQgJCSEM8lbt27Fhg0bIJVKYTab8T//8z+YMWMGKisrUVVVhVmzZmHixIkwm80WPll6evrj42NFRkaStLQ0hxx3+t7w8HAcP34cYrGY21RuLqgEAgGUSiWkUqnbEquUmti7dy9u3LiBV199FTU1NVwgI5PJkJeXh5iYGI56MRqNGD16NE6fPt32TWF6ejqhq8gZpzsmJgY+Pj6or693iVPt7qCiWz4KhQIAMGvWLCxduhRVVVXc+AkEAtTW1qJr16545513LMa1tLT08TCF+/fv5wbLGWDFxsbCbDa7LFLz9fV1W1DxzT/1mwBAKpVCrVZDKpVydAPLstBoNHjxxRcxevRoLvWoJTNZ3QpYqampDQasKaGOaN++fTF48GAuampuJKZQKLj0ltYkAoEAMpkMarUa/v7+3CKl1wcffAA/P78WTxVyK2BlZWU5bQZHjBjhEjNICIFUKn3kjrorxMPDg1scAoEAWq0Wffr0wWuvvcbtGLR5YOXk5BAaETrCtlN1HhUVBb1e73A0acu0+Pj4PLQV3dLCN+VCoRAVFRV45ZVX0LFjR47batPAys3NRVVVlVNsuVgsRmRkJIxGY7MAYTKZIJfLH8pKflgikUggEok4YtRoNMLT0xN/+MMfkJeXh4yMDNKmgbV//36H/SuqnSIjIxEcHIz6+vpm+ydeXl5oS0K5LwosgUAAvV6PkSNHghCCo0ePtm2NdenSJaeAAAAjR46Et7d3szQW9TncNRGwOSIWi7ntMXqusVu3bvDy8kJ8fHzbBhat+emIGaTvDQ8Pd3hfsTGnva34VtbAoi4GwzDQ6XTo3LkzRo4cidOnT+Pu3bukTQIrNTWVFBUVOQQsuvLEYjHCwsJQV1fXLMedhultUejpbesFGR0dDZPJhFu3brVNjXX37l2nHXeFQoGgoKBm0Qz0xExbNIN8J56OrVAoRG1tLQYOHAgAuHDhQtsE1p07d7gHdpQaoHXVm8O40zSTtixUG9MxMplMUKvV8PDwwNmzZ9smsE6cOAHAuUMTnp6eXPJbc81FWxZ6OJdfUMXb2xu9e/fGtWvX2iawaEToDLDCwsI4nqa5VENbFuv0aMpnDRs2DMXFxTh//jxpU8DKzMwkGo3GKX4GALp27drsFGTK77R1YPE39+nfnj17AgB3frHNAOvmzZvQ6XROf75Tp04uoQha8niYO5lCPtC0Wi26d+8OhmFaLDJ8ZMC6ffu2U6kydJACAwObDayHURjEXbQW/5kNBgM6dOgALy+vtges7OxsC6DYK9Qfk8lkza7M8jiAij4nXbz0v8ViMVQqFW7evNm2gEWLkDkCDhrVsCwLDw8Pl6QhPw5i7UeazWaIxWIolUrcvXu37QDrzp075MqVK82iGmQyWbOphqZOFLdVYFGaRa1Wo6qqqu0AKz093Slik75fLpe7xBQ6C+y2ACwA6NixI3Q6HX7//XfSJoCVnJz8wAduSvjAao4ppLUTHjftRsnS4OBgEEJQUFDQNjTWjRs3mvV5iUQCsVjsEm3TFFhoqcqWrHbc0tLY7oJKpQIA0ESAVg+s5kYitEyQK6QxoFBAUYKRHv2ndSVak/aSy+WQy+UWz8owDPz9/QGgRVKVHzqwLl++TK5fv+5UpWCqNcRisdNHxazFOgCg5YUooLKysvD+++/jqaeewtSpU3HlyhWOdKTvbQ10g7+/P3c0jGpqmhff3Axcm1ryYT9kWloaDAZDs0psU2A1N9edDywKEKoJr1y5gh9++AFbt25FbW0tACAjIwOHDx/GihUrsGDBAgQGBnLfQYunubMDr1QqUVJSAp1Ox3FZAKDValunxrpx4wY5d+4cSUxMJP/+97/BsmyztA0FlisG22AwwGg0cpu158+fx8yZMzF8+HB88sknXLkgqsH0ej3ee+89REZGYtmyZbhz5w6nwYxGo1ubSKFQCKVSCZZluWRJAKirq2s9GisvL498+OGHOHjwILp3796oinZmIvimsLmnc1iWBcuySEpKwurVq3H06FFOe9EJsK5BJRAIUF5ejg0bNuC7777DnDlzsGLFCgQEBAAAVzfUHTUYy7IICAjgqgPS+20VwNq5cyfp1asXqqurMXToUCxYsAB+fn4ghKC2thbp6en417/+xZ1edhRc1HlvjnagxcyKi4uxZs0afPXVVxx9QU9Z2xpwWvKRAqykpASffvop9u3bh0WLFmHRokXw9PTkfsMdMyjowuQn/7k9sHbs2EH+9Kc/oWfPnvi///s/xMTE2HzfjBkzMGXKFKceSiQSNWuyTCYTfHx8cP78eSxbtgwZGRkWgLLnnqwBlpubi+XLl+O7777D66+/jtmzZ3MAo6b2YW56Wy86vtNOTXtwcLBdlMsj97FSU1PJvHnz8MQTTyAhIQExMTHcBNDLaDTCaDRiwoQJ2Lx5M1e8wllT6AyovL29ceTIEcycORMZGRmcz+cMjcAHmFAoRHp6Ol555RVERUXh888/x927d7lDDc09UWTPvRiNRpv9gagPKRQKUVxcjCtXrjhdk+yha6yVK1fCYDDghx9+gFqthtFoBMuyDRxtOgDz58/HwYMHER8f71ChfKoJnAGVQqFAYmIi5s2bx1VVdoWPQQFGAXTr1i0sWrQIgYGBiI2NxZ///Gf06dPHpQdjaXVlPoD4i1Sr1UKr1UKn00Gn06GmpgZnzpzBpk2bkJOTwxXadesT4FevXiUAyNy5cwkhhBiNRvIgMZlMhBBC8vPziUqlsqtBOH39zTffJFVVVSQrK4vcvXvXris3N5cUFBSQtLQ0i/a/eEid5wGQsLAwsmrVKmI2m4nZbCbOitlstjm++fn55MsvvyRLly4lkydPJr179yZBQUFEKpU22u2VYRjSo0cPQo/cl5WVveJWwFq8eDFhGIZcvnyZmEymJoHFB9+qVasatKB9ELDef/99UllZSbKzs+0GVnZ2NtFoNGT+/Pl2/RZasI1vZmamxeJyBFD19fUWi/PQoUPk7bffJk8++STx9/e3636se1wDIEFBQWTo0KHk6NGjxK1M4alTpxAREYEBAwY4xCMRQvD666/j66+/RlFRkV1+iLe3t0OMt9lshoeHB3777Td8++23XIlJaz+EmhZ7/CB7+wzyN7opfZGQkICIiAiH/C26G8CyLPLz87F7927s2rULly9fbsBV8Wu9W+e627pfoVCIoqIi1NbWonfv3u7lvOfm5mLMmDEP7BpqnU1AB8Df3x8vvvhik44kHRwfHx+HOCy6fbFnzx4YDAbO56P3SoMKa+f9Qd/P929olNXU/dCJPnTokEPRIQVVXV0dPvnkEwwcOBBLly7F5cuXOYec33eaPgtdJE0BmI5lx44dERwczLiNxkpKSiKDBg3iEvRtAYsODnWi+Q49IQRPP/00PvnkE+5k84MGw9/f3+7VTot+5OTk4F//+hcIIdzemEwmQ3BwMLp06YLAwECEhoYiODgYAQEByMnJwV//+tcGbDrVVEFBQWAYBvn5+RZBh3UlPesxYBgGZ8+eRWZmJnr06NFgLGwFHEKhEGlpaXjppZe4I3P0M66sEm3daeORA4vm89C9M1s3LRAIcO3aNfj7+6NDhw4c0KhZGjJkCAYPHoxz5841eqyL/pu/v7/dA2o2myGXy3H27Fl07twZ0dHRGDZsGIKDg6FUKrmLikajgVgsRnJyMgdAOol00ZjNZrzwwgt46aWXkJKSgkuXLiE+Ph6ZmZkW90UbTdGFRqmVyspKHDp0qNEdCf7zCoVCnD9/Hk8//TTX49B6N8BV4nalnL755hsCgBw+fJgQQiwcTOqgb9++nfTr14889dRT5IcffrB4jf7dsmVLk461UCgkKSkppLi4mOTm5trtvGdlZZHy8vJGnWKDwUCqqqpIdnY2ycnJIfn5+WTlypVEKpU2uIcJEyaQ1NRUUlJSQkpLS0lVVRUpLCwku3btIq+//jrp3r27TaeZYRguWpw4cSL3243dk9lsJjk5OSQ4OJgAICzLWjjgrgow6HjHxsYSt9JYer2eW6G2Vlx5eTk2b96M9evXQyQSYeHChVAoFJg8ebKF2ezXr1+jppSaRx8fH6dOQAuFQq65uLUPRTvQ85+BEIJly5ZhwoQJOHjwIMrLyyGRSDBs2DCMHTsWJpMJtbW1YBgGNTU1EAqFGD9+PGJiYrB69WpcvHgRBw4cwOXLl3H58mWLZzKbzTh27BiysrLQpUsXCzfBeh9z7dq1KCws5Bh8Vzcmtx4jtwJWY44obWyUlpYGkUiEoKAgSKVSfPTRR1ixYgX69+/PpccCQI8ePdCtWzfcvHmzQSMBvqMvkUgcjgqlUimUSuUDgwO6IU39PI1Ggx49emDAgAHcxnJ9fT2qq6ttToRGowEhBB4eHpg4cSImTpwInU6H3NxcnDp1Cp9++inu3LmD/v37w2Qy4fz58zaBxV+QaWlp6Ny5M+RyOfLy8lBVVYWuXbvCbDajsLDQZmYCf3vK3nHiJ/65TVRIK5pQzWUNtPv37yMoKAhisRhlZWXo27cvpkyZgiVLlnDOsNFohK+vL5544gmb0SH9TpVKBalUarePQeuLBgQENLl1wTAM52fQya2rq8P9+/dRUVGBkpISLpPU1mJiWZbTfjQ6k8lk6NGjBxYtWoS4uDgAwK5du5CUlISZM2fa1PT0+z08PLB3714kJibi4sWLiIiIgFqtxvHjx7Ft2zZ4enpabCZTQNGdDQoqGjk2FeUOHz7cvYDl6+sLAI0eJaKtOYRCIViWRWlpKf70pz/h3r17OHnypIV2GjlyZKN8CwAolUpOYzU1UNR0NqWp+CKXy7k66Xz+id57Y+aCbunI5XJ4eXlx7yeEQK/Xcy1KAHCdWGk+VGMikUgQHBwMlUoFhmGQlZWF0aNHQ6VSQaVScdtg/PoMJpMJzz77LFavXs0tUkqp8Deg+d1d6W+NGTPGvYBFo0Fa9tGe0FYkEuHFF1/Exx9/bGFW6KppDFh00uwhX/39/Z0qsS2Xy6FSqeDt7c35cw+66CFab29v+Pv7NzjSTtN8KioqwLIs5HK53ad+6uvrYTabkZmZifLycnTr1g11dXVQq9X47LPPEBUVxUWJCoUCs2bN4lyNw4cP4+jRo3j77bcxduxYTpPyu7pS0K1atQoREREuS71wiY8VFhaWLJFIBtDexdYTKZVKUVdXZ5H+W1NTgz59+qBz584Wn1EqlfDy8kJVVZVNPsvb27vJKjNmsxl+fn7N6jBBgaJQKFBfXw+DwcBNMh80LMtCLBZDIpHY1IqUajGZTMjNzUV4eLhDYKeZCXxKh2VZVFVVYdy4cRg6dChu3rwJg8EAPz8/REREQKfToaioCBKJBFFRUXjyySdRX1+PgoICHD58GPHx8bh69Sq0Wi1kMhneeustvPvuuy7N53EJsFQq1cDQ0FCSmppqkxH38fFBZWUll5fEd8Z79OjRQCP5+/s3ABb96+vr67KDFPZuO0kkEqczAOh4aDQa3LhxAxMnToREImmSGLUWGjBQUPKj0aioKAgEAi6w4Pt5Wq3WIjjq27cvVqxYgeTkZEyaNAm9evXC2rVrXZ4k5rItnZCQEKSkpFg4tvSvn58fysrKYDAYGoCOpqzwS0AGBQU1So4GBQXZdVDV3XLPS0tLUVNTg65duz7Q1DcWcRcXF3PBCx0z6gdWVVWhsrKSSzfmjz/fcddoNJyvNWDAAIjFYvj4+LTMgnTVFw0YMAD37t3jmizyB06tVkMmk3EtdfmTbh1msyyLTp06WbzGr5ASHh5uE6DuKvRZCwoKwDAMoqKimtwTtQWse/fucQvYw8OD2xekkSB1ypviqSjI6urqUFNTAz8/P/cG1uTJk0EIwbFjx7gwn0Z7wcHBCA4ORnFxcQP1z6cN6H936NDBpq/m6emJLl26wGAw2EUduJOcOHEChBBERkY6dX8ajQYsy0Imk0EsFkOtVkOhUHBj/KCsDMqT8RMkdTod9Hq9+2usvn37wsvLC7/99ptFlEcfKjg4GDk5ORblofncF391N9aBq2PHjlAoFHZxWO4CLHofR44cgaenJ6eNHb2/mpoaC19PLBbD19cXarUavr6+8PDwgEgkavC9DMNwPB6fWC4vL4dOp+OaabpaXJaPFRgYyEycOJGcPHkSer2eAxB90CFDhuDUqVMQiUQcI88wDLfRy/fNaE0BCiAaVUVFRXHc0IMmxl0q9dFFlZ2djYyMDEydOpUrZuKoKaTpPtblw/mdVvlpMnSMqKm0lsrKShBCWgxYLs2ij46ORklJCVc/nD+AgwYNws2bN1FaWmrRlYoy1PxBpLyYtZPerVs3uwrausuRK3qfv//+O3Q6HSZPnuyQ424d5FBH/EERLCVmRSJRo+cN+GS2s+cHHiqwpk2bBgD4xz/+0UDdd+7cGQzDICMjg6shQLdy+OYQ+E9aDH9l0oloLC3HFrDcoWgtDTouXrwIiUSCIUOGOOS4t0SUaw2sluom61JghYeHM8888wxOnz6N0tJSTrsYjUaIRCLExsYiMTERUqmU00YmkwkGg8Hie3x9fbntDjo5np6eCA0NtbtegzsAi4b+e/bsQadOndCpUyeOMHXmu1wJsJqaGgBosT5CLrcXzz//PCorK/HTTz9xA0EneebMmbhx4wY0Go2Fc2+9ee3l5WUBLBopdu/evcnez1QTPmpgUS17+fJlZGdnIzY2tlkpL44cprVHaCn0lmqq7nJgTZs2jVGpVHj//fdRU1NjcVAzIiICcrkchw4d4qI7gUAA2kiAAsbDw4Pb8af/1rt3b/j6+tqlsdxBW1EAHT58GAAwe/bsZn2fWCy2yBx1VnPRz9HF3NRGuNsACwA++OADFBQUcIcGaAoHIQRvvPEGDh8+bHFKpra21gIwtM8eXyZMmGAXfwXALRovUXD/+uuvCAsLQ58+fZyiGSgQJBIJd4rclb5Wi7kBLfGl06ZNG6dSqbB69Wpum4ESedHR0QgLC8PXX38NpVLJgY7afFvRkFQqRXh4uF2D6syR/ZaIBhmGQVlZGRISEjB8+HCufLiz0apUKoXRaGzgj7qKZ2sVwPLz8zuxevVqZGZm4quvvuJARZ35Dz/8EIcPH8aFCxcQGBiI+vp6C2BZ81Dh4eEO9SZ0F/9q//79MJlMiI2NbbaGoOXHXQUs/ompVgMsAPjLX/7CREZGYv369SgsLORAZTabERYWhi1btmDNmjU4cuQIfH19Gxw94gOof//+CAkJgV6vbxJY7sBh0Xvcs2cPRCIRpkyZ4vR9UUDS8aHAchaodNGlp6eDZVm7KRy3ARYAfPbZZygqKsLixYs5B55mPY4cORI7duzA999/j/nz52Pbtm1c/jafWWcYBk8//bTdG8+POiKkdEJlZSWXmuLr6+sSjcUHVnPuzWAw4Oeff0avXr3Qt29fptUBKyYmhlm4cCF++uknHDx4kAMV/Tt48GAkJCRg+fLl6Nmzp03ghIaGon///hYV6NxZY1EzmJaWhpKSEq4+WHPbs1Ai05pMdkbu3buHwsJCl6YiP1RgAcB7772XHBAQgBUrVlgk+lFeRiKRIC4uDs8++yy3wcr3sZ566il4e3vbNTFUIz5KjUXvce/evdz9832a5prC5gCL+lNnz54FIQSxsbGtF1gqlWrg8uXLkZqaiv3793NsOx1sfmE2fuEKuvJjY2PtPu5FVf2j1FiUXtmzZw9CQ0Mdzr9qTFwBLAr6X375BQDQq1ev1gssAJgzZ05FQEAAVq1aBa1W26DNmbWWEYlE0Gq16NixI8aPH2/B1LtzREi5uaysLBQVFeGPf/yjhXlsjlAKxVmClGaUVFRU4OTJkxg+fDg6derEtGpgqdVqv1WrViEzMxOHDx/m8rNtaRyz2Yzi4mJotVqMGDHC4WZMj5Icpfd59epVmM1mjB071uVkpLMgpfdw8+ZN3L9/n8u0aNXAAoAlS5Ywfn5+WLFiBcrLyyEWiy0quVBQCQQCfPrpp6ivr+eyUh2ZmJbaonDE1CQlJUEoFHInkFoCvM6C6/z58wCAcePGtQ1gAcDGjRtx+/ZtxMXF4erVq5x6pzUVWJZFcnIyNm3ahFGjRmHsDEse7QAAETZJREFU2LHcfqO9E/uoTCENHIxGI3766Sd07doVYWFhTmczNGUKnQE9wzDYt28fvL29MWDAAKbNAOuFF15gNm3ahKSkJAwcOBCbNm3ijiqxLIvTp09j0qRJEIvFWLNmDeeL2RumP8y2I1TD0v07WuyspKQEWVlZ6N69u8vasvB9R2eARS3B7du3kZyczB31bzPAAoDFixczly9fxoABA/Daa69hwoQJePPNNzFt2jRER0ejpqYGX331Ffr27Yva2lqHVntLcVj8yJWaIvpbtJAIPe1MT+OMGjWKC0pc0S2MgtOZ76EJAOfOnYNer8eMGTNafJ4fyW5tVFQUAwArV64kH374IY4ePQoA+OMf/4hXX30VERERDkWCdMBdra0ooGyl+Go0Gty9exe5ubkoLS1FVVUVSkpKkJSUBEIIvvvuO6hUKkyfPp3LeXL0kKot59tZbccwDE6ePAlvb2+MHDnyozYJLCoffvghk5CQQJYsWYJr164hJCQEffv2RVlZmdNZlq4AFzVzNH8c+E/e+q+//orTp08jPz8fJSUlKC0t5U4oW8u1a9cwZ84crF+/Hn/5y18wb948LrCwt1sYNbV8bs6Z56OHVg4cOID+/ftDqVSuaNPAAoDo6GimsLCQLFiwABs2bEBxcTE2bNjA1UlwpICtK8hRfq/C/Px8/POf/8Tx48eRkJDQ6KTxi7VRcpc6y2lpaVi0aBG+//57LFmyBLNmzbLInuVrIv7JGvosVNuVlpYCAEe/2Bsd0iYOBw4cQFVVFZ555hmcOXMGj5XMnTuXACAvvfQSuX//PsnNzbW7HGROTg65f/8+aY7QkpXV1dXkgw8+sKibzjAMEQqFRCgUNqiVDgcaCYwfP57s2bOH1NTUNHkvly9fJtu3bycvvvgi8fDwIADI1q1bG9yvPc80d+5cIhaLye3btx9K7QG3O6c+Z84c8s9//hN//etfsXTpUlRWVtrll9Ba7vxCtY4I9X+uXbuGuXPn4sqVK82Oxqz9HL6GCgkJQWxsLCZOnMgVezMYDMjJycGpU6dw5coVlJSUWDSppMXYFixYgHfeeQd+fn4PNKtUA+r1enTp0gW9evXCiRMnGDyuMnr0aAKAfPvtt6SiosKu1iY5OTmktLS0WZpq3759RKFQcIVkm9JGcLKQrCPfKxQKuaK2/Ktbt24kPj7+gdqLdr44d+4cAUDWrVtH8DhLYWEh6dChAwkICCBXrlwhRUVFJCcnp1FQ5eXlkZycHFJWVuYwqGiF53379nEVklu6HQq/ejLLspyJZVmW+39qam19lg+0efPmkcrKSpvgov8/e/ZsAoDcuHHj8QYWABw5coQIBAISGxtLysrKWgRYdOB/++034unp+VB77MCFTaCioqJIcnKyxTPRMt/l5eUkICCAREdHP1RQCdwVWBMmTGAWL16MY8eOYe/evfDy8mrUz7EuzmZv9CcUClFYWIgZM2ZwRcxaKgfc1ULPGIpEIly5cgWjR4/Gzz//zD0DjRpTUlJQUlKC559/Hu3yXykrK3slPDycBAQEkPT0dFJQUNCo5nIkKqRt2YxGI3nmmWdalabCAxoAsCxLduzYQQghxGAwEEIIefbZZwnLsuTOnTvtZpAve/fuJQDIwoULiUajadSRz83NJcXFxXb1AaTm4v3337fo+NCaL37ni59//pkQQsidO3eISCRyaceJNiVjxowhAEhCQgK5f/++Ta1FG102xe3Q18+cOUPEYnGjTnJrBpePjw/Jzc0lO3fuJADIsWPHHjqwWgWnce3aNUKbDnz33XfQaDQ2GXaGYaBWqxtN9qO5XbW1tRg8eDAyMzMbdMBo7UKfZ/LkyaipqUFGRgYyMzPDfX19s9pVlA157rnnCACyZ8+eRqPEnJwcotPpmtRW8+bNa/V+VVN0Bv3vhQsXPhIz2GpY2Ly8PBIZGYlevXohPj6ey523jpQ8PT1t9oShzPqePXswc+bMFtFU/PuxrhzdWPTaUjUUaBnx69evo2vXrg99ngWtBVgdO3ZkFixYgMTEROzZs8dmLVLahdS6xgMFVWZmJv785z87nQHBL2/Nr1TMz5Xid6uglAA/l8u6nCO9b35FY1cITflxxTnENq2xAKC8vDymX79+x8ViMU6dOsXVm+JPhtlshq+vr0WzJTrBsbGxOHPmTJN8Fb9PNH+iHqThBAIBxGIxhEIhfH194e/vD4VCAZlMxu0T6vV6VFdXo7S0FGVlZVzHC1vfxe9R7YzQZ1y4cCE+//zzhz7PbGsClp+f34nNmzfj1Vdfxfbt2/HGG2+grKzMoroMwzCoqqqCXC7nupGyLIs33ngDZ86cAcuyDWqeWjccbyzjUyqVIiIiAqGhoVCpVFAqlQgICEDnzp0RFhaGkJAQyGQyrg2Kde11+t20fUp5eTkyMjKQlpaG3Nxc5OTkIDExEWVlZRYAaQ7AkpKS2jWWvRIZGUnu3r2Ls2fPIjAwEHV1dQ0mUCwWw8/PD2KxGDt37sRzzz1n0UDzQenCfn5+CAwMhFKpRIcOHTBkyBAMGjQIAQEBXH31FvQlceXKFezcuRPJycnIyspqEPE5Eh2q1WokJiaic+fOj29Wg71y4sQJAoA8//zzpKKigmRnZzeIEO/cuUNqampIcnIytw9ofYnFYuLv70/Cw8PJ9OnTyebNm8mBAwdIZmYmqa2tbZK5r6+vJ/X19cRoNBKTycS12+Vfttrx8i/6PUajscH7S0tLyc6dO8nAgQMbcFVwYLP7woUL7TyWvTJz5kzy448/4scff0RMTEyDuqYSiQRZWVl49tlnUVJSArlcjoiICERFRaFjx46IiIhA165dERISApVKZbNYm7UJstUnyJVi7dTzn+fgwYNYt24dLl68aLf2omZ/3759mDZtWrvGskfy8/OJQqEgkZGRJCsri+Tn53PZprm5uaSoqIgcP36cbN26lZw4cYLk5OQ0qYWoBqLa51ELvScqdXV1ZMuWLSQoKMguHo6+vmbNmvYtHUdk27ZtBAB5+eWXSVVVlcU+IgVXWVkZuXfvHjdBRqORGAwGC/Nl7yQ/SrDxt6qysrLIpEmTmkwcpMD6wx/+0A4sR2Xq1KkEANm+fTuprKwkd+7csQBXTk4Oyc7OJuXl5U6BQ6/XN+orPUoNVl9fT95880279g6feOKJdmA5KgUFBSQsLIz4+PiQCxcukJKSEgvNRZMAS0pKHJ5EQgiprKwkly5dInfv3iVardYtNJnJZOLSjj/77DPi5eXVIJWan2kaEhLS7rw7I6dPnyYxMTHo1q0b9u3bB39/f2i1Ws75pT2o1Wq1Q8fD6GGE3NxcpKSkwNvbm+ukpVKpGvSh4dMXLX3Unzr5AoEAY8aMQUJCAsfcU76Myvbt2/HSSy8x7cByQr7//nvy/PPPY/jw4fjmm2/g5eWF2tpai2gvMDDQ4TJHFFy3bt1CZmYmR7qKRCL4+/tzrYZ9fHwabYjUHLA1BlZ6Oufo0aOYMmUKevbsievXr3OvSyQSDBs2DEuXLkVcXBzTrrGaIevXrycrVqzAyJEjsW3bNiiVSlRXV3Ot6AICApzqHUPBdfXqVRQWFnKt8SiDLxAIIJf/p/O9l5cXPD094eXl1SiQ7Nl4buyz9EAt/Tto0CDcuXMHv//+O/79738jOTkZvXr1QlxcHPr06fPI5rfNcRt///vfybvvvouBAwdi69atCA8PR2VlJRiGgY+PT6NNNu0Rk8mES5cuoaKiwoLF5+9HCgQCiEQiiMVieHt7Q6VScV1RxWKxQxrTYDBAr9fDYDCguLgYZWVl6NevHxQKBRiGwa5duzB79mysXbsWq1atcqu5bJOk2ZYtW8iiRYugVCqxZcsWjB8/HpWVlZDJZAgICGjWd2u1Wly6dAk6na5Bf2uqZWgGA/0rFAotgEXLNonFYrAsa9Elje4j0nZ7BoMBtbW1kMvl6N27N9cktLq6Gk888QSEQiFSUlLG+fn5nWgH1kOQEydOkNmzZ6OkpARLlizB8uXLuf1DZx1rahIrKipw6dKlRivcWOdl8VNprDugNvY7/M3n0NBQdO/eHRKJhEsBWrlyJdatW4fdu3dj1qxZbjePbZrmz87OJq+99hri4+MRFxeHf/zjH1zPwOaCq7CwECkpKWBZ1qJYr62//N/iFy5pzNdiGAYGgwFSqRTdu3dHSEgIgP9f4OP69evo168fRo0ahYSEBLecw8di/2jp0qVkw4YNGDFiBPbv3w9fX1+H+jI3Bq7bt29zefP8CjH8i5+OQx1+g8HApfPwc6/o3/r6egQGBqJXr16Qy+UNQDpp0iQcOXIE6enp6NmzZzuwHqWsW7eOvPPOO4iLi+MOdjanKTmd7NLSUovSR9b9mK0pAr1ej5qaGmg0Gq5gm9lshkgkQn19PViWRbdu3bjCuPze2UKhENu2bcOCBQuwbNkyfPzxx+0by+4g7733HgFA5s6dy6WsPEoxmUyktLSUXLhwgcTHx5OLFy8SjUbTgNGne5p5eXlEpVKRyMjI9i0ad5P58+cTAOSjjz7i9tyasyXTVA7Wg97P32AuLi5uUHfBegN6ypQpBAA5depUO7DcUf5bIIMcO3bMYiIfxb6frQ1uW6DaunUrAUDeeuutdlC5qxQUFJCAgACiVqtJUlISqa6u5jZ1H9Xmsq3foveUlpZGxGIx6du3L6moqOjSPoNuLMePHycMw5C+ffuSo0ePkpMnT5IbN26QioqKRw4y/m/qdDry5JNPErFYTFJSUtq1VWuQ1atXEwBk+vTp5OTJk2TPnj3kl19+IWfOnCGpqamkurr6keVi0WoxixcvJgDI559/3qpA9diHq5MmTSIHDx7E3/72N0RHR3P7imazGSzLwt/fH76+vggKCoKPj49NyoGSmq4SSoR+//33eOGFFzBr1izs3r2baQdWK5K8vDwyYsQIlJaW4n//938RFhbG5XLRvCYKMl9fX6jVanh7e0OpVDYgWPmt8pzlxejnz549i9jYWHTp0gXp6emtbp7aCTYAFy9eJEOHDkVoaCg2bNgAhUIBvV7f4Pg8BZlQKOQqNAcGBsLDwwNyubxRJv9BaTLWIKyvr0diYiKmT5+O6upq/Prrrxg0aFA7sFqr0ETBQYMG4W9/+xsEAoFFq2E+CPggo0frPT094e3tzSX9Ufbdnm0jo9GIqqoqFBQUoKCgAG+//TauX7+OH3/8ETNnzmyVc9QOLJ6sXbuWrFq1CsOGDcPKlSu5zWBb7Uas6zoYjUaLNikSiQRisRgymQxSqRQSicQiw9RkMqGurg61tbWora2FVquFWCzGxo0bcezYMaxbtw7vvPNOq52fdmBZyfLly8lHH32EoUOHYtmyZfDx8YFer4fJZOIad9oqGmLdnYseJuVXmLEWvqn19fXF1q1bsWvXLsyfPx/btm1r1XPTDiwbsmrVKrJ27Vp0794ds2fPRlhYGJRKJZe5aTAYuP6E/BwrWyelrf/yAUY/6+3tjR9++AFffPEFpkyZgvj4+FY/L+3AakQ2bdpE3nrrLa7MkL+/PwYNGoROnTohNDSUKxpCnXbqk1HA8RP7rJ11mmIjEokgk8nw008/YePGjRg2bBjOnz/fJuakHVgPkLt375ITJ07g+PHjuHnzJlJTUy0KmUmlUnTp0gUDBgxAp06dOM7Lw8ODS0WmBdX4Tr/BYIBOp+MyUWnjz1OnTs339/f/oh1Yj5nk5uaSe/fuITc3F6dPn8aFCxdQXFyMoqIiC79JoVDA09MTHh4ekEqlEIlEXE4VzWGvqKiARqMBAAwePBjx8fEVarXar62MVTuwmikVFRVd0tPT7+Tl5aGwsBDFxcXIy8tDdnY2ioqKUFZWhpqaGg50Pj4+6NChA2g91Z49e2LGjBltbh7+HxWCV2vYK/SrAAAAAElFTkSuQmCC;" vertex="1" parent="1">
          <mxGeometry x="517" y="-284" width="40" height="40" as="geometry" />
        </mxCell>
        <mxCell id="V3Jk48kscWsiEnofZRHU-113" value="" style="sketch=0;pointerEvents=1;shadow=0;dashed=0;html=1;strokeColor=none;fillColor=#505050;labelPosition=center;verticalLabelPosition=bottom;verticalAlign=top;outlineConnect=0;align=center;shape=mxgraph.office.servers.server_generic;" vertex="1" parent="1">
          <mxGeometry x="480" y="-290" width="27" height="52" as="geometry" />
        </mxCell>
        <mxCell id="V3Jk48kscWsiEnofZRHU-114" value="" style="sketch=0;pointerEvents=1;shadow=0;dashed=0;html=1;strokeColor=none;fillColor=#505050;labelPosition=center;verticalLabelPosition=bottom;verticalAlign=top;outlineConnect=0;align=center;shape=mxgraph.office.servers.server_generic;" vertex="1" parent="1">
          <mxGeometry x="480" y="-130" width="27" height="52" as="geometry" />
        </mxCell>
        <mxCell id="V3Jk48kscWsiEnofZRHU-119" value="" style="sketch=0;pointerEvents=1;shadow=0;dashed=0;html=1;strokeColor=none;fillColor=#505050;labelPosition=center;verticalLabelPosition=bottom;verticalAlign=top;outlineConnect=0;align=center;shape=mxgraph.office.servers.server_generic;" vertex="1" parent="1">
          <mxGeometry x="480" y="-210" width="27" height="52" as="geometry" />
        </mxCell>
        <mxCell id="V3Jk48kscWsiEnofZRHU-121" value="" style="shape=image;verticalLabelPosition=bottom;labelBackgroundColor=default;verticalAlign=top;aspect=fixed;imageAspect=0;image=data:image/png,iVBORw0KGgoAAAANSUhEUgAAAJYAAACWCAYAAAA8AXHiAAAD9ElEQVR42u3dv47jVBiG8fccJ5mZOOvAthSAQLNoBUJampUQdBTcAgWiAwmBQNwBd0FFz58CCjTabZDgLhAFBRSUq0wcOz7fofDOiIYCNmjOFz8/afrx8RPHznw5E87v3c8CDiyyBCAsEBYICyAsEBYICyAsEBYICyAsEBYICyAsEBYICyAsEBYICyAsEBYICyAsEBYICyAsEBYIC/jPZsUWH6N2basX7r6kdz56X/t+rxDCpE9WNtNZvdSDb77TTz880HJVy8wI698vZNbJcqnn75yr63aKEw8rDabVutH69lNjUAUvx8zDq7Rrd+q7bvJXLDNT17YahoG3wkMIMYw/Ew8r5KAQo4t14OYdhAXCAmEBhAXCAmEBhAXCAmEBhIXizaZ0sDln979/zlnKhFXOpTlGxSq6OCn/xKJpvpiPx0FYNy+EoHbbqt1sFKLfd39Lpna7VXu5LX7C4ejDspRUN41+vnior7/4UnXTyFJy/SIZ9nudLc9kyQjrZk+GNOwHtdtW1XzuOqyruLhiFXQyqqpSVVXyPi7o4SFkck+F109W+H8fllgCEBYIC4QFEBYIC4QFEBYIC4QFEBYIC5PEH6Ed8rCN0bTGZmaPx2a8zs1kSWHc6bD0F8fRhxVjVLtt9dqbr+vOqy8rxEpeB98tmZarWhdffasfv79gD9IbvlQpm2m1vqX17aelnOV10s8GU71uVDe32IO0nJOSlAbfI8mWTPOukzk4juncvIfgfiT5etadPUgxVYQFwgJhgbAAwgJhgbAAwgJhgbCAQ3Lxt8Jj2iFmKv9zcebhRMwXC+Wc3Z+UbKbkfNO3owgrhKB93+vP3//Qvu9dh2U56/TsVKummcT+XMWGZWZanJ7ot19+1ecffOL7RjZGXW42euPtt/TeZx/rcrNRjJGwbvgGS8nM9SLnnJWGpOz8OI7u5t37vZWnAT0+bgBhgbAAwgJhgbAAwgJhgbAAwgJhgbAAwgJhgbAAwgJhYQKKnSCNMWq3bfXiK3f17qcfjl+m8LrZYxhn+Jd1rd1ud/Tz7kWHJY2z4ovTEz3z3LPqu879iLKZKQ0DV6wi4rKsvuuOIiyJL6wWdzKuv5AAbt5BWABhgbBAWABhgbBAWABhgbBAWMAhsGuyI9fr4GAt2DXZEUum+WKhWFWE9aRRXe2a3DvfNflQYS0fPdJ2syl+LcL5vfu59Lhm85l4J7xaDykNSVb4RrnlD/rlrH7XSWIW6/GKSA5m03wM+lXVuKCTjyuPD/LcvB/ssvW3heWK5QGfY4GwQFggLICwQFggLICwQFggLICwQFggLICwQFggLICwQFggLICwQFggLICwQFggLOCJ/AU6RkjbVUfhEAAAAABJRU5ErkJggg==;" vertex="1" parent="1">
          <mxGeometry x="520" y="-204" width="40" height="40" as="geometry" />
        </mxCell>
        <mxCell id="V3Jk48kscWsiEnofZRHU-122" value="" style="rounded=0;whiteSpace=wrap;html=1;fillColor=none;strokeColor=none;" vertex="1" parent="1">
          <mxGeometry x="40" y="-760" width="600" height="360" as="geometry" />
        </mxCell>
        <mxCell id="V3Jk48kscWsiEnofZRHU-123" value="" style="sketch=0;pointerEvents=1;shadow=0;dashed=0;html=1;strokeColor=none;fillColor=#505050;labelPosition=center;verticalLabelPosition=bottom;verticalAlign=top;outlineConnect=0;align=center;shape=mxgraph.office.servers.server_generic;" vertex="1" parent="1">
          <mxGeometry x="173" y="-610" width="27" height="52" as="geometry" />
        </mxCell>
        <mxCell id="V3Jk48kscWsiEnofZRHU-124" value="" style="shape=image;verticalLabelPosition=bottom;labelBackgroundColor=default;verticalAlign=top;aspect=fixed;imageAspect=0;image=data:image/png,iVBORw0KGgoAAAANSUhEUgAAAJYAAACWCAYAAAA8AXHiAAAA0GVYSWZJSSoACAAAAAoAAAEEAAEAAACWAAAAAQEEAAEAAACWAAAAAgEDAAMAAACGAAAAEgEDAAEAAAABAAAAGgEFAAEAAACMAAAAGwEFAAEAAACUAAAAKAEDAAEAAAACAAAAMQECAA0AAACcAAAAMgECABQAAACqAAAAaYcEAAEAAAC+AAAAAAAAAAgACAAIAEgAAAABAAAASAAAAAEAAABHSU1QIDIuMTAuMzQAADIwMjM6MTA6MDggMTY6MzE6MzMAAQABoAMAAQAAAAEAAAAAAAAA310CwgAAAYVpQ0NQSUNDIHByb2ZpbGUAAHicfZE9SMNAHMVfW6WltDjYQcQhQ/0Y7KIijlqFIlQItUKrDiaXfkGThiTFxVFwLTj4sVh1cHHW1cFVEAQ/QFxdnBRdpMT/JYUWMR4c9+PdvcfdO8DfrDLV7JkFVM0yMqmkkMuvCsFXhBFCFGMYlZipz4liGp7j6x4+vt4leJb3uT9HVCmYDPAJxLNMNyziDeLpTUvnvE8cY2VJIT4nHjfogsSPXJddfuNcctjPM2NGNjNPHCMWSl0sdzErGyrxFHFcUTXK9+dcVjhvcVardda+J39hpKCtLHOd5hBSWMQSRAiQUUcFVVhI0KqRYiJD+0kP/6DjF8klk6sCRo4F1KBCcvzgf/C7W7M4OeEmRZJA74ttfwwDwV2g1bDt72Pbbp0AgWfgSuv4a01g5pP0RkeLHwF928DFdUeT94DLHWDgSZcMyZECNP3FIvB+Rt+UB/pvgfCa21t7H6cPQJa6St8AB4fASImy1z3eHeru7d8z7f5+AK3ecr4DKaXQAAANeGlUWHRYTUw6Y29tLmFkb2JlLnhtcAAAAAAAPD94cGFja2V0IGJlZ2luPSLvu78iIGlkPSJXNU0wTXBDZWhpSHpyZVN6TlRjemtjOWQiPz4KPHg6eG1wbWV0YSB4bWxuczp4PSJhZG9iZTpuczptZXRhLyIgeDp4bXB0az0iWE1QIENvcmUgNC40LjAtRXhpdjIiPgogPHJkZjpSREYgeG1sbnM6cmRmPSJodHRwOi8vd3d3LnczLm9yZy8xOTk5LzAyLzIyLXJkZi1zeW50YXgtbnMjIj4KICA8cmRmOkRlc2NyaXB0aW9uIHJkZjphYm91dD0iIgogICAgeG1sbnM6eG1wTU09Imh0dHA6Ly9ucy5hZG9iZS5jb20veGFwLzEuMC9tbS8iCiAgICB4bWxuczpzdEV2dD0iaHR0cDovL25zLmFkb2JlLmNvbS94YXAvMS4wL3NUeXBlL1Jlc291cmNlRXZlbnQjIgogICAgeG1sbnM6ZGM9Imh0dHA6Ly9wdXJsLm9yZy9kYy9lbGVtZW50cy8xLjEvIgogICAgeG1sbnM6R0lNUD0iaHR0cDovL3d3dy5naW1wLm9yZy94bXAvIgogICAgeG1sbnM6dGlmZj0iaHR0cDovL25zLmFkb2JlLmNvbS90aWZmLzEuMC8iCiAgICB4bWxuczp4bXA9Imh0dHA6Ly9ucy5hZG9iZS5jb20veGFwLzEuMC8iCiAgIHhtcE1NOkRvY3VtZW50SUQ9ImdpbXA6ZG9jaWQ6Z2ltcDpjMjNmMDk0Yi02NmQ3LTQyY2EtOWVlYi00YTI2ZDdlZTM5NzIiCiAgIHhtcE1NOkluc3RhbmNlSUQ9InhtcC5paWQ6YTA0ZDlkZDMtODhiZi00ZGM4LWI1NjgtNDE1Njg1YjhhMDE1IgogICB4bXBNTTpPcmlnaW5hbERvY3VtZW50SUQ9InhtcC5kaWQ6ZWNjYTkxZDEtODMxNC00NmU4LWFjOTUtMWRiYmZjN2VlNjU1IgogICBkYzpGb3JtYXQ9ImltYWdlL3BuZyIKICAgR0lNUDpBUEk9IjIuMCIKICAgR0lNUDpQbGF0Zm9ybT0iTGludXgiCiAgIEdJTVA6VGltZVN0YW1wPSIxNjk2Nzc1NDk1MTgyNjkzIgogICBHSU1QOlZlcnNpb249IjIuMTAuMzQiCiAgIHRpZmY6T3JpZW50YXRpb249IjEiCiAgIHhtcDpDcmVhdG9yVG9vbD0iR0lNUCAyLjEwIgogICB4bXA6TWV0YWRhdGFEYXRlPSIyMDIzOjEwOjA4VDE2OjMxOjMzKzAyOjAwIgogICB4bXA6TW9kaWZ5RGF0ZT0iMjAyMzoxMDowOFQxNjozMTozMyswMjowMCI+CiAgIDx4bXBNTTpIaXN0b3J5PgogICAgPHJkZjpTZXE+CiAgICAgPHJkZjpsaQogICAgICBzdEV2dDphY3Rpb249InNhdmVkIgogICAgICBzdEV2dDpjaGFuZ2VkPSIvIgogICAgICBzdEV2dDppbnN0YW5jZUlEPSJ4bXAuaWlkOjVkMzhlN2IwLTFmMTktNDY0MS04NzVhLWUzMTIzZGIxZjk1MiIKICAgICAgc3RFdnQ6c29mdHdhcmVBZ2VudD0iR2ltcCAyLjEwIChMaW51eCkiCiAgICAgIHN0RXZ0OndoZW49IjIwMjMtMTAtMDhUMTY6MzE6MzUrMDI6MDAiLz4KICAgIDwvcmRmOlNlcT4KICAgPC94bXBNTTpIaXN0b3J5PgogIDwvcmRmOkRlc2NyaXB0aW9uPgogPC9yZGY6UkRGPgo8L3g6eG1wbWV0YT4KICAgICAgICAgICAgICAgICAgICAgICAgICAgICAgICAgICAgICAgICAgICAgICAgICAgICAgICAgICAgICAgICAgICAgICAgICAgICAgICAgICAgICAgICAgICAgICAgICAgIAogICAgICAgICAgICAgICAgICAgICAgICAgICAgICAgICAgICAgICAgICAgICAgICAgICAgICAgICAgICAgICAgICAgICAgICAgICAgICAgICAgICAgICAgICAgICAgICAgICAgCiAgICAgICAgICAgICAgICAgICAgICAgICAgICAgICAgICAgICAgICAgICAgICAgICAgICAgICAgICAgICAgICAgICAgICAgICAgICAgICAgICAgICAgICAgICAgICAgICAgICAKICAgICAgICAgICAgICAgICAgICAgICAgICAgICAgICAgICAgICAgICAgICAgICAgICAgICAgICAgICAgICAgICAgICAgICAgICAgICAgICAgICAgICAgICAgICAgICAgICAgIAogICAgICAgICAgICAgICAgICAgICAgICAgICAgICAgICAgICAgICAgICAgICAgICAgICAgICAgICAgICAgICAgICAgICAgICAgICAgICAgICAgICAgICAgICAgICAgICAgICAgCiAgICAgICAgICAgICAgICAgICAgICAgICAgICAgICAgICAgICAgICAgICAgICAgICAgICAgICAgICAgICAgICAgICAgICAgICAgICAgICAgICAgICAgICAgICAgICAgICAgICAKICAgICAgICAgICAgICAgICAgICAgICAgICAgICAgICAgICAgICAgICAgICAgICAgICAgICAgICAgICAgICAgICAgICAgICAgICAgICAgICAgICAgICAgICAgICAgICAgICAgIAogICAgICAgICAgICAgICAgICAgICAgICAgICAgICAgICAgICAgICAgICAgICAgICAgICAgICAgICAgICAgICAgICAgICAgICAgICAgICAgICAgICAgICAgICAgICAgICAgICAgCiAgICAgICAgICAgICAgICAgICAgICAgICAgICAgICAgICAgICAgICAgICAgICAgICAgICAgICAgICAgICAgICAgICAgICAgICAgICAgICAgICAgICAgICAgICAgICAgICAgICAKICAgICAgICAgICAgICAgICAgICAgICAgICAgICAgICAgICAgICAgICAgICAgICAgICAgICAgICAgICAgICAgICAgICAgICAgICAgICAgICAgICAgICAgICAgICAgICAgICAgIAogICAgICAgICAgICAgICAgICAgICAgICAgICAgICAgICAgICAgICAgICAgICAgICAgICAgICAgICAgICAgICAgICAgICAgICAgICAgICAgICAgICAgICAgICAgICAgICAgICAgCiAgICAgICAgICAgICAgICAgICAgICAgICAgICAgICAgICAgICAgICAgICAgICAgICAgICAgICAgICAgICAgICAgICAgICAgICAgICAgICAgICAgICAgICAgICAgICAgICAgICAKICAgICAgICAgICAgICAgICAgICAgICAgICAgICAgICAgICAgICAgICAgICAgICAgICAgICAgICAgICAgICAgICAgICAgICAgICAgICAgICAgICAgICAgICAgICAgICAgICAgIAogICAgICAgICAgICAgICAgICAgICAgICAgICAgICAgICAgICAgICAgICAgICAgICAgICAgICAgICAgICAgICAgICAgICAgICAgICAgICAgICAgICAgICAgICAgICAgICAgICAgCiAgICAgICAgICAgICAgICAgICAgICAgICAgICAgICAgICAgICAgICAgICAgICAgICAgICAgICAgICAgICAgICAgICAgICAgICAgICAgICAgICAgICAgICAgICAgICAgICAgICAKICAgICAgICAgICAgICAgICAgICAgICAgICAgICAgICAgICAgICAgICAgICAgICAgICAgICAgICAgICAgICAgICAgICAgICAgICAgICAgICAgICAgICAgICAgICAgICAgICAgIAogICAgICAgICAgICAgICAgICAgICAgICAgICAgICAgICAgICAgICAgICAgICAgICAgICAgICAgICAgICAgICAgICAgICAgICAgICAgICAgICAgICAgICAgICAgICAgICAgICAgCiAgICAgICAgICAgICAgICAgICAgICAgICAgICAgICAgICAgICAgICAgICAgICAgICAgICAgICAgICAgICAgICAgICAgICAgICAgICAgICAgICAgICAgICAgICAgICAgICAgICAKICAgICAgICAgICAgICAgICAgICAgICAgICAgICAgICAgICAgICAgICAgICAgICAgICAgICAgICAgICAgICAgICAgICAgICAgICAgICAgICAgICAgICAgICAgICAgICAgICAgIAogICAgICAgICAgICAgICAgICAgICAgICAgICAgICAgICAgICAgICAgICAgICAgICAgICAgICAgICAgICAgICAgICAgICAgICAgICAgICAgICAgICAgICAgICAgICAgICAgICAgCiAgICAgICAgICAgICAgICAgICAgICAgICAgIAo8P3hwYWNrZXQgZW5kPSJ3Ij8+xteEJAAAAAlwSFlzAAALEwAACxMBAJqcGAAAAAd0SU1FB+cKCA4fIy0y4zIAAAhxSURBVHja7Z1PjtxEFMbfK/eE7GCJ6FlMJGbFDUBCcRRzg74DWYUoOcBcYARZwRmYG8Sj8QgpG3Ys2CFlFtMLNghWISR2sehyx+20u9122a5X9X3SSFGUP66qn7/36rn+MHkoTcREZ+aHCibS9T9zGyd6jGc5zlLe/nykVr8kve35pIs9A0qZRhVTQNRGr7NXd0/pjzfbntsnyNgTmJiJ8vL3fiaKvoyTdxKef56ls+qzN70cAGu0UEeqNiCzZZy8lf2W6PPj68tnlTZFTaEcYNkHiqtvs0thbqjczLiYqDDJEoHyFaZ9kEkCjAEUAAsGLAAlHzB2EKqoTMoBVFvAFhHTRQ6wmssGmok0gDpIN8dZem/bxCZ4sPSqdICwZyk8ugAXTw0UXMo+YC64l5o4lyoAlV2VfclEhSmwhuFY1bcJQI3iXpPMHHlkqJBLBZJ78dhQ/U5f3Pk4/uwNhnwa9xoLLh4JqoiJcriUE3BF1Y/3YsECVGHCxQNDpZCkhxkWGVCFPmPUmomtj5ECVGHqNk70yrF4EHNhQAXnGiIsMqCChoCLARU0BFzKElQRoPIj57L1fZEtQAWngnPZBQtQAS7rYOnVPBVLXvyGi7uuilBdoSIiBlT+6hWd3CWictHgWMn7QknfAg7t1lF8+tqMcSewDv5L5Y4QuBXyLWtgIVkHXNZDYRlrM6IZujoslbWtQ/ItPuAfh1vBtVq7FgMqaAi4VAuozGL8M4WuDT4kqrYhsQ0szETFMn6Zo2vD1jJO8rYlCG7jVss4Qc0KWmuepeVxlrqrY7GPJ/pC/WSY4E6OVe6ghVtBO1yr8XwI1YJMCDqYDYXygkjdTP0AlYWBWxkSUUWfX714PzN58E2YoWezD04EOJrbblXt0K1TYE9Bk9LupqKp8461fPDNzk72yc32wSSpnbNNt9LMxMXy6wffag8GxvUBaAuSy7q9//B7vr58sjMU6gVFfOHWAR62Ot8VyGy0x7UXZttBI5uh8MK9VaH7QqHzbqb1+TxLnwYwvyi2OpbDJYab+dWLk6HhlRTilvcfPiKlfnTQtdZJvIRyw+BT695uNrYrOQZVY/JeJu1YHboJ2j7AKkA+Db3PNNGMidZ3RJqq6eoom1Pp9/1B0+XChp2yEo/Fe9Aw0dpk8IWmRYTugHqGw3XyrkrrWsZ/v0PXQD3DYV4Cpsizm+whJ8SKsFUesq9CMZHWRHectthAl8pI7AtNdIeJtMmvElxBAtnKs96sZ4V4U9EHg5QbIChosEJ2LWltV69O6C46GG22qds40eroXvIaHY222tZMeof7sLzXx5dn5ssA+AKYL2488+0NlwqYb+Hdu4V91QFyHTKfc0WvV4y6CFkoE49gliJPCVmIJZIg17jXB9o2aPj8hM0T1twMMG3K/ftwalurcNoM0TJOzonZ6Z1B7jtWrQNDOtKo0T0dh0p8KJR2CEhnkBAK3elwKZD5mtM5DxZOm5H50njrWC4NTIjljCDLDUPnZr6uuIBjje0GWj+fZ+njMfvEdddCgXQHxAecNgOoasJmCghgQWvdACxoCJ0ALAihEIIAFgSwoADBOs5SHLwGWdVxljIcC0IohAAWBLCI5ln6EboCsgqWXl1L8R+6ArKVuGsinhnXyn1s5ND7B6U/z5CGNaM919z7CtpYgxrodjU9K6+omGefzEK6nWIo9wh54+o8SyOi1RU65lo5UkwX+S0lzkIw+OWSPdxsTJhcBnd1J9PqPh2sIO0xeNhWv6fc8D4cpkfoEqhjGDyqsrQukBoLww1gUNcw+E5XeELlHRouFFYSL3Z1tQPyGXf7oCyKcuUmuU3HWsDBoP4m9SFYF7ogIuI8f4R+glpJ6x9MxMsbwWJirYnU/JernxAK0PZWYfD68onekqt7Hfpc/hbn+/kOasu0sdAOL1nGJU3OJe2Kt1z/jGQd6p5ekebWjgXXQlvbuhURMzdcVq92E0ksvcMl5zIuv0D72GgEy5DILm8PW8bJua+TCpfbZphodKs2OZZ22bUkHEvtW9v+/eufTw0TupNjGdfSzrtWi3DhUjhs5VYOh8DPf/v1T+NWO8Fqsx5LayJF2VfRMn6ZuwzXnkG7IceP/3F9UjLP0sgUQ/cuZ99bbijJZDorJCe786sXk0O1C3wRR2ybnIpbgNU6xJWFMAmH4dbv33FhAJugknAvTpmwNxVD+4LFRMTXROo0Tt5Knn25cs67mNszsrTczaW55a6ug5JyUa61Z2DHGtQp/++p3OpgsFZwLSKmi1waXGMPsg9AdYWqE1iSnWvXwNsa9A/+3Th5TsyPJfZRV6j6gMVExMs48WJrfu9LJuuXdQpJyNuUFw7Jq3qDVcLFRFqya/V1sWrh2Kd+qLgVc8cjGHpV1H0IiZDdEGgFLMAFqJrUe6GfWbsV4ZBcb6CK+kJlxbHgXHCqQcECXIBqMLAAF6AaDCzABaisJO87EnrceiEAqtVyO/sabPsX4HIdqkXERAUT64HGf1iZ6WuOsOhcSWHQz3GjuAngCguqQUNhjd58HRa1PscQT5qo5yON+XiqzkDgXuMBVe9778AyDVxvdgRcY838ui19EQVWPe+Ce9nXPEsVr+oIEU90nc1kp82s8q4zpR3fECs89OUTju/0Qu4lN5dyzrFqdBfaXHFnOugGqBycS7ErUDnjWMi9+rrUaueUS8/mZG5TnTkCsN1hb4oZn1iwAJhcoESABcCISOvnx9eX30kBShRYTYD5DFm1BCMJKJFg1QDbqNNootlSyGElO9zp/Pj68ll1IkNEBQu8Xll8YdK8zVyDLFrGiYgr8uZZOtt89kVEdKFdKRsEC9YWyKg+KK6Fy/qXhhImaeEuGLA2Q+WZ+dkeSsaCbdvnqjKU04FnTknS/4Osaxsssl71AAAAAElFTkSuQmCC;" vertex="1" parent="1">
          <mxGeometry x="120" y="-604" width="40" height="40" as="geometry" />
        </mxCell>
      </root>
    </mxGraphModel>
  </diagram>
</mxfile>
